FontWithASyntaxHighlighter-Black.ufo
<glyph name="quotedbl" format="2">
  <advance width="1240"/>
  <unicode hex="0022"/>
  <outline>
    <contour>
      <point x="464" y="744" type="line"/>
      <point x="491" y="1460" type="line"/>
      <point x="168" y="1460" type="line"/>
      <point x="195" y="744" type="line"/>
    </contour>
    <contour>
      <point x="1045" y="744" type="line"/>
      <point x="1072" y="1460" type="line"/>
      <point x="749" y="1460" type="line"/>
      <point x="776" y="744" type="line"/>
    </contour>
  </outline>
</glyph>
<glyph name="asterisk" format="2">
  <advance width="1240"/>
  <unicode hex="002A"/>
  <outline>
    <contour>
      <point x="732" y="1004" type="line"/>
      <point x="773" y="1530" type="line"/>
      <point x="467" y="1530" type="line"/>
      <point x="509" y="1004" type="line"/>
    </contour>
    <contour>
      <point x="655" y="897" type="line"/>
      <point x="1167" y="1021" type="line"/>
      <point x="1073" y="1310" type="line"/>
      <point x="585" y="1110" type="line"/>
    </contour>
    <contour>
      <point x="531" y="941" type="line"/>
      <point x="809" y="491" type="line"/>
      <point x="1056" y="670" type="line"/>
      <point x="712" y="1072" type="line"/>
    </contour>
    <contour>
      <point x="528" y="1072" type="line"/>
      <point x="184" y="670" type="line"/>
      <point x="431" y="491" type="line"/>
      <point x="709" y="941" type="line"/>
    </contour>
    <contour>
      <point x="655" y="1110" type="line"/>
      <point x="167" y="1310" type="line"/>
      <point x="73" y="1021" type="line"/>
      <point x="585" y="897" type="line"/>
    </contour>
  </outline>
</glyph>
<glyph name="plus" format="2">
  <advance width="1240"/>
  <unicode hex="002B"/>
  <outline>
    <contour>
      <point x="100" y="537" type="line"/>
      <point x="1140" y="537" type="line"/>
      <point x="1140" y="808" type="line"/>
      <point x="100" y="808" type="line"/>
    </contour>
    <contour>
      <point x="475" y="1194" type="line"/>
      <point x="475" y="152" type="line"/>
      <point x="766" y="152" type="line"/>
      <point x="766" y="1194" type="line"/>
    </contour>
  </outline>
</glyph>
<glyph name="comma" format="2">
  <advance width="1240"/>
  <unicode hex="002C"/>
  <outline>
    <contour>
      <point x="616" y="-42" type="curve" smooth="yes"/>
      <point x="666" y="-42"/>
      <point x="709" y="-30"/>
      <point x="749" y="-7" type="curve"/>
      <point x="673" y="69" type="line"/>
      <point x="669" y="-102"/>
      <point x="535" y="-245"/>
      <point x="334" y="-377" type="curve"/>
      <point x="481" y="-492" type="line"/>
      <point x="690" y="-367"/>
      <point x="882" y="-169"/>
      <point x="882" y="106" type="curve" smooth="yes"/>
      <point x="882" y="319"/>
      <point x="767" y="418"/>
      <point x="618" y="418" type="curve" smooth="yes"/>
      <point x="478" y="418"/>
      <point x="376" y="330"/>
      <point x="376" y="189" type="curve" smooth="yes"/>
      <point x="376" y="46"/>
      <point x="481" y="-42"/>
    </contour>
  </outline>
</glyph>
<glyph name="period" format="2">
  <advance width="1240"/>
  <unicode hex="002E"/>
  <outline>
    <contour>
      <point x="615" y="-42" type="curve" smooth="yes"/>
      <point x="744" y="-42"/>
      <point x="851" y="46"/>
      <point x="851" y="189" type="curve" smooth="yes"/>
      <point x="851" y="333"/>
      <point x="744" y="418"/>
      <point x="615" y="418" type="curve" smooth="yes"/>
      <point x="484" y="418"/>
      <point x="376" y="333"/>
      <point x="376" y="189" type="curve" smooth="yes"/>
      <point x="376" y="46"/>
      <point x="484" y="-42"/>
    </contour>
  </outline>
</glyph>
<glyph name="two" format="2">
  <advance width="1240"/>
  <unicode hex="0032"/>
  <outline>
    <contour>
      <point x="184" y="0" type="line"/>
      <point x="1128" y="0" type="line"/>
      <point x="1128" y="271" type="line"/>
      <point x="364" y="271" type="line"/>
      <point x="369" y="123" type="line"/>
      <point x="1062" y="788" type="line"/>
      <point x="1062" y="1262" type="line"/>
      <point x="757" y="1460" type="line"/>
      <point x="192" y="1460" type="line"/>
      <point x="152" y="1159" type="line"/>
      <point x="637" y="1159" type="line"/>
      <point x="737" y="1088" type="line"/>
      <point x="737" y="912" type="line"/>
      <point x="124" y="301" type="line"/>
    </contour>
  </outline>
</glyph>
<glyph name="less" format="2">
  <advance width="1240"/>
  <unicode hex="003C"/>
  <outline>
    <contour>
      <point x="910" y="1339" type="line"/>
      <point x="160" y="793" type="line"/>
      <point x="160" y="558" type="line"/>
      <point x="910" y="12" type="line"/>
      <point x="1070" y="231" type="line"/>
      <point x="467" y="670" type="line"/>
      <point x="467" y="681" type="line"/>
      <point x="1070" y="1120" type="line"/>
    </contour>
  </outline>
</glyph>
<glyph name="equal" format="2">
  <advance width="1240"/>
  <unicode hex="003D"/>
  <outline>
    <contour>
      <point x="140" y="831" type="line"/>
      <point x="1100" y="831" type="line"/>
      <point x="1100" y="1102" type="line"/>
      <point x="140" y="1102" type="line"/>
    </contour>
    <contour>
      <point x="140" y="244" type="line"/>
      <point x="1100" y="244" type="line"/>
      <point x="1100" y="515" type="line"/>
      <point x="140" y="515" type="line"/>
    </contour>
  </outline>
</glyph>
<glyph name="A" format="2">
  <advance width="1240"/>
  <unicode hex="0041"/>
  <outline>
    <contour>
      <point x="132" y="0" type="line"/>
      <point x="459" y="0" type="line"/>
      <point x="459" y="819" type="line"/>
      <point x="661" y="1261" type="line"/>
      <point x="579" y="1261" type="line"/>
      <point x="781" y="819" type="line"/>
      <point x="781" y="0" type="line"/>
      <point x="1108" y="0" type="line"/>
      <point x="1108" y="933" type="line"/>
      <point x="823" y="1460" type="line"/>
      <point x="417" y="1460" type="line"/>
      <point x="132" y="933" type="line"/>
    </contour>
    <contour>
      <point x="339" y="303" type="line"/>
      <point x="930" y="303" type="line"/>
      <point x="930" y="537" type="line"/>
      <point x="339" y="537" type="line"/>
    </contour>
  </outline>
</glyph>
<glyph name="B" format="2">
  <advance width="1240"/>
  <unicode hex="0042"/>
  <outline>
    <contour>
      <point x="258" y="0" type="line"/>
      <point x="823" y="0" type="line"/>
      <point x="1168" y="280" type="line"/>
      <point x="1168" y="584" type="line"/>
      <point x="820" y="836" type="line"/>
      <point x="820" y="688" type="line"/>
      <point x="1118" y="889" type="line"/>
      <point x="1118" y="1193" type="line"/>
      <point x="823" y="1460" type="line"/>
      <point x="258" y="1460" type="line"/>
      <point x="258" y="1219" type="line"/>
      <point x="683" y="1219" type="line"/>
      <point x="843" y="1079" type="line"/>
      <point x="843" y="1003" type="line"/>
      <point x="683" y="863" type="line"/>
      <point x="258" y="863" type="line"/>
      <point x="258" y="622" type="line"/>
      <point x="683" y="622" type="line"/>
      <point x="843" y="470" type="line"/>
      <point x="843" y="394" type="line"/>
      <point x="683" y="241" type="line"/>
      <point x="258" y="241" type="line"/>
    </contour>
    <contour>
      <point x="127" y="0" type="line"/>
      <point x="464" y="0" type="line"/>
      <point x="464" y="1460" type="line"/>
      <point x="127" y="1460" type="line"/>
    </contour>
  </outline>
</glyph>
<glyph name="C" format="2">
  <advance width="1240"/>
  <unicode hex="0043"/>
  <outline>
    <contour>
      <point x="417" y="0" type="line"/>
      <point x="1082" y="0" type="line"/>
      <point x="1122" y="301" type="line"/>
      <point x="587" y="301" type="line"/>
      <point x="397" y="642" type="line"/>
      <point x="397" y="818" type="line"/>
      <point x="587" y="1159" type="line"/>
      <point x="1122" y="1159" type="line"/>
      <point x="1082" y="1460" type="line"/>
      <point x="417" y="1460" type="line"/>
      <point x="72" y="932" type="line"/>
      <point x="72" y="528" type="line"/>
    </contour>
  </outline>
</glyph>
<glyph name="D" format="2">
  <advance width="1240"/>
  <unicode hex="0044"/>
  <outline>
    <contour>
      <point x="268" y="0" type="line"/>
      <point x="823" y="0" type="line"/>
      <point x="1168" y="539" type="line"/>
      <point x="1168" y="943" type="line"/>
      <point x="823" y="1460" type="line"/>
      <point x="268" y="1460" type="line"/>
      <point x="238" y="1159" type="line"/>
      <point x="653" y="1159" type="line"/>
      <point x="843" y="829" type="line"/>
      <point x="843" y="653" type="line"/>
      <point x="653" y="301" type="line"/>
      <point x="238" y="301" type="line"/>
    </contour>
    <contour>
      <point x="132" y="0" type="line"/>
      <point x="461" y="0" type="line"/>
      <point x="461" y="1460" type="line"/>
      <point x="132" y="1460" type="line"/>
    </contour>
  </outline>
</glyph>
<glyph name="H" format="2">
  <advance width="1240"/>
  <unicode hex="0048"/>
  <outline>
    <contour>
      <point x="771" y="0" type="line"/>
      <point x="1108" y="0" type="line"/>
      <point x="1108" y="1460" type="line"/>
      <point x="771" y="1460" type="line"/>
    </contour>
    <contour>
      <point x="132" y="0" type="line"/>
      <point x="469" y="0" type="line"/>
      <point x="469" y="1460" type="line"/>
      <point x="132" y="1460" type="line"/>
    </contour>
    <contour>
      <point x="269" y="602" type="line"/>
      <point x="967" y="602" type="line"/>
      <point x="967" y="873" type="line"/>
      <point x="269" y="873" type="line"/>
    </contour>
  </outline>
</glyph>
<glyph name="I" format="2">
  <advance width="1240"/>
  <unicode hex="0049"/>
  <outline>
    <contour>
      <point x="455" y="0" type="line"/>
      <point x="785" y="0" type="line"/>
      <point x="785" y="1460" type="line"/>
      <point x="455" y="1460" type="line"/>
    </contour>
    <contour>
      <point x="165" y="0" type="line"/>
      <point x="1075" y="0" type="line"/>
      <point x="1095" y="271" type="line"/>
      <point x="145" y="271" type="line"/>
    </contour>
    <contour>
      <point x="145" y="1189" type="line"/>
      <point x="1095" y="1189" type="line"/>
      <point x="1075" y="1460" type="line"/>
      <point x="165" y="1460" type="line"/>
    </contour>
  </outline>
</glyph>
<glyph name="K" format="2">
  <advance width="1240"/>
  <unicode hex="004B"/>
  <outline>
    <contour>
      <point x="763" y="0" type="line"/>
      <point x="1128" y="0" type="line"/>
      <point x="1128" y="361" type="line"/>
      <point x="816" y="851" type="line"/>
      <point x="816" y="659" type="line"/>
      <point x="1128" y="1099" type="line"/>
      <point x="1128" y="1460" type="line"/>
      <point x="793" y="1460" type="line"/>
      <point x="793" y="1153" type="line"/>
      <point x="595" y="838" type="line"/>
      <point x="626" y="860" type="line"/>
      <point x="402" y="860" type="line"/>
      <point x="402" y="588" type="line"/>
      <point x="624" y="588" type="line"/>
      <point x="575" y="615" type="line"/>
      <point x="763" y="267" type="line"/>
    </contour>
    <contour>
      <point x="118" y="0" type="line"/>
      <point x="455" y="0" type="line"/>
      <point x="455" y="1460" type="line"/>
      <point x="118" y="1460" type="line"/>
    </contour>
  </outline>
</glyph>
<glyph name="N" format="2">
  <advance width="1240"/>
  <unicode hex="004E"/>
  <outline>
    <contour>
      <point x="132" y="0" type="line"/>
      <point x="439" y="0" type="line"/>
      <point x="439" y="774" type="line"/>
      <point x="451" y="774" type="line"/>
      <point x="907" y="0" type="line"/>
      <point x="1108" y="0" type="line"/>
      <point x="1108" y="1460" type="line"/>
      <point x="801" y="1460" type="line"/>
      <point x="801" y="671" type="line"/>
      <point x="789" y="671" type="line"/>
      <point x="335" y="1460" type="line"/>
      <point x="132" y="1460" type="line"/>
    </contour>
  </outline>
</glyph>
<glyph name="O" format="2">
  <advance width="1240"/>
  <unicode hex="004F"/>
  <outline>
    <contour>
      <point x="437" y="0" type="line"/>
      <point x="803" y="0" type="line"/>
      <point x="1168" y="528" type="line"/>
      <point x="1168" y="932" type="line"/>
      <point x="803" y="1460" type="line"/>
      <point x="437" y="1460" type="line"/>
      <point x="72" y="932" type="line"/>
      <point x="72" y="528" type="line"/>
    </contour>
    <contour>
      <point x="587" y="311" type="line"/>
      <point x="397" y="642" type="line"/>
      <point x="397" y="818" type="line"/>
      <point x="587" y="1149" type="line"/>
      <point x="653" y="1149" type="line"/>
      <point x="843" y="818" type="line"/>
      <point x="843" y="642" type="line"/>
      <point x="653" y="311" type="line"/>
    </contour>
  </outline>
</glyph>
<glyph name="S" format="2">
  <advance width="1240"/>
  <unicode hex="0053"/>
  <outline>
    <contour>
      <point x="146" y="0" type="line"/>
      <point x="851" y="0" type="line"/>
      <point x="1114" y="311" type="line"/>
      <point x="1114" y="539" type="line"/>
      <point x="501" y="1011" type="line"/>
      <point x="501" y="1075" type="line"/>
      <point x="559" y="1159" type="line"/>
      <point x="1104" y="1159" type="line"/>
      <point x="1074" y="1460" type="line"/>
      <point x="389" y="1460" type="line"/>
      <point x="126" y="1149" type="line"/>
      <point x="126" y="921" type="line"/>
      <point x="739" y="449" type="line"/>
      <point x="739" y="385" type="line"/>
      <point x="681" y="301" type="line"/>
      <point x="116" y="301" type="line"/>
    </contour>
  </outline>
</glyph>
<glyph name="T" format="2">
  <advance width="1240"/>
  <unicode hex="0054"/>
  <outline>
    <contour>
      <point x="458" y="0" type="line"/>
      <point x="788" y="0" type="line"/>
      <point x="788" y="1460" type="line"/>
      <point x="458" y="1460" type="line"/>
    </contour>
    <contour>
      <point x="81" y="1189" type="line"/>
      <point x="1157" y="1189" type="line"/>
      <point x="1137" y="1460" type="line"/>
      <point x="101" y="1460" type="line"/>
    </contour>
  </outline>
</glyph>
<glyph name="Y" format="2">
  <advance width="1240"/>
  <unicode hex="0059"/>
  <outline>
    <contour>
      <point x="457" y="532" type="line"/>
      <point x="783" y="532" type="line"/>
      <point x="1130" y="1069" type="line"/>
      <point x="1130" y="1460" type="line"/>
      <point x="805" y="1460" type="line"/>
      <point x="805" y="1163" type="line"/>
      <point x="589" y="781" type="line"/>
      <point x="661" y="781" type="line"/>
      <point x="445" y="1163" type="line"/>
      <point x="445" y="1460" type="line"/>
      <point x="110" y="1460" type="line"/>
      <point x="110" y="1069" type="line"/>
    </contour>
    <contour>
      <point x="455" y="0" type="line"/>
      <point x="784" y="0" type="line"/>
      <point x="784" y="676" type="line"/>
      <point x="455" y="676" type="line"/>
    </contour>
  </outline>
</glyph>
<glyph name="bracketright" format="2">
  <advance width="1240"/>
  <unicode hex="005D"/>
  <outline>
    <contour>
      <point x="924" y="-400" type="line"/>
      <point x="924" y="1602" type="line"/>
      <point x="207" y="1602" type="line"/>
      <point x="207" y="1362" type="line"/>
      <point x="659" y="1362" type="line"/>
      <point x="614" y="1406" type="line"/>
      <point x="614" y="-204" type="line"/>
      <point x="659" y="-160" type="line"/>
      <point x="207" y="-160" type="line"/>
      <point x="207" y="-400" type="line"/>
    </contour>
  </outline>
</glyph>
<glyph name="asciicircum" format="2">
  <advance width="1240"/>
  <unicode hex="005E"/>
  <outline>
    <contour>
      <point x="76" y="811" type="line"/>
      <point x="311" y="675" type="line"/>
      <point x="609" y="1192" type="line"/>
      <point x="630" y="1192" type="line"/>
      <point x="928" y="675" type="line"/>
      <point x="1163" y="811" type="line"/>
      <point x="748" y="1530" type="line"/>
      <point x="491" y="1530" type="line"/>
    </contour>
  </outline>
</glyph>
<glyph name="b" format="2">
  <advance width="1240"/>
  <unicode hex="0062"/>
  <outline>
    <contour>
      <point x="112" y="0" type="line"/>
      <point x="427" y="0" type="line"/>
      <point x="427" y="882" type="line"/>
      <point x="442" y="942" type="line"/>
      <point x="442" y="1530" type="line"/>
      <point x="112" y="1470" type="line"/>
    </contour>
    <contour>
      <point x="270" y="0" type="line"/>
      <point x="795" y="0" type="line"/>
      <point x="1140" y="317" type="line"/>
      <point x="1140" y="801" type="line"/>
      <point x="825" y="1106" type="line"/>
      <point x="270" y="928" type="line"/>
      <point x="270" y="729" type="line"/>
      <point x="721" y="805" type="line"/>
      <point x="815" y="722" type="line"/>
      <point x="815" y="423" type="line"/>
      <point x="655" y="263" type="line"/>
      <point x="270" y="263" type="line"/>
    </contour>
  </outline>
</glyph>
<glyph name="f" format="2">
  <advance width="1240"/>
  <unicode hex="0066"/>
  <outline>
    <contour>
      <point x="401" y="-1" type="line"/>
      <point x="726" y="-1" type="line"/>
      <point x="726" y="1068" type="line"/>
      <point x="846" y="1200" type="line"/>
      <point x="1181" y="1200" type="line"/>
      <point x="1151" y="1481" type="line"/>
      <point x="676" y="1481" type="line"/>
      <point x="401" y="1162" type="line"/>
    </contour>
    <contour>
      <point x="118" y="695" type="line"/>
      <point x="1164" y="695" type="line"/>
      <point x="1164" y="953" type="line"/>
      <point x="118" y="953" type="line"/>
    </contour>
  </outline>
</glyph>
<glyph name="h" format="2">
  <advance width="1240"/>
  <unicode hex="0068"/>
  <outline>
    <contour>
      <point x="803" y="0" type="line"/>
      <point x="1128" y="0" type="line"/>
      <point x="1128" y="811" type="line"/>
      <point x="833" y="1106" type="line"/>
      <point x="256" y="928" type="line"/>
      <point x="256" y="747" type="line"/>
      <point x="709" y="823" type="line"/>
      <point x="803" y="740" type="line"/>
    </contour>
    <contour>
      <point x="112" y="0" type="line"/>
      <point x="437" y="0" type="line"/>
      <point x="437" y="1530" type="line"/>
      <point x="112" y="1470" type="line"/>
    </contour>
  </outline>
</glyph>
<glyph name="o" format="2">
  <advance width="1240"/>
  <unicode hex="006F"/>
  <outline>
    <contour>
      <point x="415" y="0" type="line"/>
      <point x="825" y="0" type="line"/>
      <point x="1140" y="369" type="line"/>
      <point x="1140" y="713" type="line"/>
      <point x="825" y="1082" type="line"/>
      <point x="415" y="1082" type="line"/>
      <point x="100" y="713" type="line"/>
      <point x="100" y="369" type="line"/>
    </contour>
    <contour>
      <point x="545" y="281" type="line"/>
      <point x="405" y="453" type="line"/>
      <point x="405" y="629" type="line"/>
      <point x="545" y="801" type="line"/>
      <point x="695" y="801" type="line"/>
      <point x="835" y="629" type="line"/>
      <point x="835" y="453" type="line"/>
      <point x="695" y="281" type="line"/>
    </contour>
  </outline>
</glyph>
<glyph name="asciitilde" format="2">
  <advance width="1240"/>
  <unicode hex="007E"/>
  <outline>
    <contour>
      <point x="826" y="415" type="curve" smooth="yes"/>
      <point x="969" y="415"/>
      <point x="1082" y="526"/>
      <point x="1102" y="876" type="curve"/>
      <point x="884" y="911" type="line"/>
      <point x="868" y="778"/>
      <point x="842" y="710"/>
      <point x="776" y="710" type="curve" smooth="yes"/>
      <point x="657" y="710"/>
      <point x="615" y="931"/>
      <point x="413" y="931" type="curve" smooth="yes"/>
      <point x="269" y="931"/>
      <point x="158" y="818"/>
      <point x="138" y="470" type="curve"/>
      <point x="356" y="435" type="line"/>
      <point x="372" y="568"/>
      <point x="398" y="636"/>
      <point x="464" y="636" type="curve" smooth="yes"/>
      <point x="583" y="636"/>
      <point x="625" y="415"/>
    </contour>
  </outline>
</glyph>
<glyph name="exclamdown" format="2">
  <advance width="1240"/>
  <unicode hex="00A1"/>
  <outline>
    <contour>
      <point x="480" y="438" type="line"/>
      <point x="449" y="-379" type="line"/>
      <point x="788" y="-379" type="line"/>
      <point x="757" y="438" type="line"/>
    </contour>
    <contour>
      <point x="617.5" y="1108.54" type="curve" smooth="yes"/>
      <point x="501.4" y="1108.54"/>
      <point x="405.1" y="1031.98"/>
      <point x="405.1" y="907.57" type="curve" smooth="yes"/>
      <point x="405.1" y="782.29"/>
      <point x="501.4" y="708.34"/>
      <point x="617.5" y="708.34" type="curve" smooth="yes"/>
      <point x="735.4" y="708.34"/>
      <point x="832.6" y="782.29"/>
      <point x="832.6" y="907.57" type="curve" smooth="yes"/>
      <point x="832.6" y="1031.98"/>
      <point x="735.4" y="1108.54"/>
    </contour>
  </outline>
</glyph>
<glyph name="currency" format="2">
  <advance width="1240"/>
  <unicode hex="00A4"/>
  <outline>
    <contour>
      <point x="620" y="226" type="curve" smooth="yes"/>
      <point x="878" y="226"/>
      <point x="1058" y="407"/>
      <point x="1058" y="673" type="curve" smooth="yes"/>
      <point x="1058" y="939"/>
      <point x="878" y="1119"/>
      <point x="620" y="1119" type="curve" smooth="yes"/>
      <point x="362" y="1119"/>
      <point x="182" y="939"/>
      <point x="182" y="673" type="curve" smooth="yes"/>
      <point x="182" y="407"/>
      <point x="362" y="226"/>
    </contour>
    <contour>
      <point x="620" y="461" type="curve" smooth="yes"/>
      <point x="502" y="461"/>
      <point x="432" y="550"/>
      <point x="432" y="673" type="curve" smooth="yes"/>
      <point x="432" y="796"/>
      <point x="502" y="884"/>
      <point x="620" y="884" type="curve" smooth="yes"/>
      <point x="738" y="884"/>
      <point x="808" y="796"/>
      <point x="808" y="673" type="curve" smooth="yes"/>
      <point x="808" y="550"/>
      <point x="738" y="461"/>
    </contour>
    <contour>
      <point x="755" y="342" type="line"/>
      <point x="967" y="118" type="line"/>
      <point x="1175" y="325" type="line"/>
      <point x="951" y="537" type="line"/>
    </contour>
    <contour>
      <point x="952" y="809" type="line"/>
      <point x="1175" y="1020" type="line"/>
      <point x="967" y="1227" type="line"/>
      <point x="756" y="1004" type="line"/>
    </contour>
    <contour>
      <point x="65" y="1020" type="line"/>
      <point x="300" y="796" type="line"/>
      <point x="497" y="992" type="line"/>
      <point x="273" y="1227" type="line"/>
    </contour>
    <contour>
      <point x="273" y="118" type="line"/>
      <point x="483" y="340" type="line"/>
      <point x="287" y="535" type="line"/>
      <point x="65" y="325" type="line"/>
    </contour>
  </outline>
</glyph>
<glyph name="brokenbar" format="2">
  <advance width="1240"/>
  <unicode hex="00A6"/>
  <outline>
    <contour>
      <point x="785" y="733" type="line"/>
      <point x="785" y="1602" type="line"/>
      <point x="455" y="1602" type="line"/>
      <point x="455" y="733" type="line"/>
    </contour>
    <contour>
      <point x="785" y="-400" type="line"/>
      <point x="785" y="469" type="line"/>
      <point x="455" y="469" type="line"/>
      <point x="455" y="-400" type="line"/>
    </contour>
  </outline>
</glyph>
<glyph name="dieresis" format="2">
  <advance width="1240"/>
  <unicode hex="00A8"/>
  <outline>
    <contour>
      <point x="339.46" y="1227.184" type="line"/>
      <point x="531.954" y="1436.533" type="line"/>
      <point x="339.46" y="1644.885" type="line"/>
      <point x="146.083" y="1436.533" type="line"/>
    </contour>
    <contour>
      <point x="900.46" y="1227.184" type="line"/>
      <point x="1092.954" y="1436.533" type="line"/>
      <point x="900.46" y="1644.885" type="line"/>
      <point x="707.083" y="1436.533" type="line"/>
    </contour>
  </outline>
</glyph>
<glyph name="ordfeminine" format="2">
  <advance width="1240"/>
  <unicode hex="00AA"/>
  <outline>
    <contour>
      <point x="513" y="1543" type="curve" smooth="yes"/>
      <point x="330" y="1543"/>
      <point x="263" y="1471"/>
      <point x="263" y="1367" type="curve" smooth="yes"/>
      <point x="263" y="1339" type="line"/>
      <point x="437" y="1339" type="line"/>
      <point x="437" y="1358" type="line" smooth="yes"/>
      <point x="437" y="1387"/>
      <point x="462" y="1413"/>
      <point x="508" y="1412" type="curve" smooth="yes"/>
      <point x="549" y="1411"/>
      <point x="579" y="1389"/>
      <point x="579" y="1348" type="curve" smooth="yes"/>
      <point x="579" y="1046" type="line"/>
      <point x="591" y="1035" type="line"/>
      <point x="591" y="964"/>
      <point x="608" y="912"/>
      <point x="720" y="912" type="curve" smooth="yes"/>
      <point x="755" y="912"/>
      <point x="792" y="917"/>
      <point x="829" y="926" type="curve"/>
      <point x="829" y="1068" type="line"/>
      <point x="787" y="1068"/>
      <point x="779" y="1077"/>
      <point x="779" y="1108" type="curve" smooth="yes"/>
      <point x="779" y="1354" type="line" smooth="yes"/>
      <point x="779" y="1490"/>
      <point x="673" y="1543"/>
    </contour>
    <contour>
      <point x="669" y="1150" type="curve"/>
      <point x="606" y="1265" type="line"/>
      <point x="478" y="1272"/>
      <point x="244" y="1253"/>
      <point x="244" y="1073" type="curve" smooth="yes"/>
      <point x="244" y="976"/>
      <point x="313" y="912"/>
      <point x="409" y="912" type="curve" smooth="yes"/>
      <point x="473" y="912"/>
      <point x="538" y="940"/>
      <point x="573" y="994" type="curve"/>
      <point x="599" y="994" type="line"/>
      <point x="606" y="1087" type="line"/>
      <point x="582" y="1064"/>
      <point x="545" y="1051"/>
      <point x="516" y="1051" type="curve" smooth="yes"/>
      <point x="478" y="1051"/>
      <point x="453" y="1073"/>
      <point x="453" y="1103" type="curve" smooth="yes"/>
      <point x="453" y="1137"/>
      <point x="486" y="1168"/>
      <point x="560" y="1168" type="curve" smooth="yes"/>
      <point x="596" y="1168"/>
      <point x="629" y="1163"/>
    </contour>
  </outline>
</glyph>
<glyph name="logicalnot" format="2">
  <advance width="1240"/>
  <unicode hex="00AC"/>
  <outline>
    <contour>
      <point x="140" y="627" type="line"/>
      <point x="1100" y="627" type="line"/>
      <point x="1100" y="898" type="line"/>
      <point x="140" y="898" type="line"/>
    </contour>
    <contour>
      <point x="809" y="898" type="line"/>
      <point x="809" y="278" type="line"/>
      <point x="1100" y="278" type="line"/>
      <point x="1100" y="898" type="line"/>
    </contour>
  </outline>
</glyph>
<glyph name="registered" format="2">
  <advance width="1240"/>
  <unicode hex="00AE"/>
  <outline>
    <contour>
      <point x="789" y="697" type="line"/>
      <point x="627" y="687" type="line"/>
      <point x="713" y="390" type="line"/>
      <point x="909" y="390" type="line"/>
    </contour>
    <contour>
      <point x="570" y="390" type="line"/>
      <point x="570" y="1072" type="line"/>
      <point x="397" y="1072" type="line"/>
      <point x="397" y="390" type="line"/>
    </contour>
    <contour>
      <point x="508" y="724" type="line"/>
      <point x="509" y="607" type="line"/>
      <point x="577" y="607" type="line" smooth="yes"/>
      <point x="788" y="607"/>
      <point x="897" y="702"/>
      <point x="897" y="858" type="curve" smooth="yes"/>
      <point x="897" y="1001"/>
      <point x="805" y="1074"/>
      <point x="658" y="1073" type="curve" smooth="yes"/>
      <point x="499" y="1072" type="line"/>
      <point x="499" y="956" type="line"/>
      <point x="604" y="956" type="line" smooth="yes"/>
      <point x="680" y="956"/>
      <point x="713" y="910"/>
      <point x="713" y="843" type="curve" smooth="yes"/>
      <point x="713" y="783"/>
      <point x="687" y="724"/>
      <point x="578" y="724" type="curve" smooth="yes"/>
    </contour>
    <contour>
      <point x="1182" y="732" type="curve" smooth="yes"/>
      <point x="1182" y="1206"/>
      <point x="948" y="1484"/>
      <point x="620" y="1484" type="curve" smooth="yes"/>
      <point x="291" y="1484"/>
      <point x="58" y="1206"/>
      <point x="58" y="732" type="curve" smooth="yes"/>
      <point x="58" y="254"/>
      <point x="291" y="-24"/>
      <point x="620" y="-24" type="curve" smooth="yes"/>
      <point x="948" y="-24"/>
      <point x="1182" y="254"/>
    </contour>
    <contour>
      <point x="1082" y="732" type="curve" smooth="yes"/>
      <point x="1082" y="307"/>
      <point x="888" y="74"/>
      <point x="620" y="74" type="curve" smooth="yes"/>
      <point x="352" y="74"/>
      <point x="158" y="307"/>
      <point x="158" y="732" type="curve" smooth="yes"/>
      <point x="158" y="1154"/>
      <point x="352" y="1386"/>
      <point x="620" y="1386" type="curve" smooth="yes"/>
      <point x="888" y="1386"/>
      <point x="1082" y="1154"/>
    </contour>
  </outline>
</glyph>
<glyph name="plusminus" format="2">
  <advance width="1240"/>
  <unicode hex="00B1"/>
  <outline>
    <contour>
      <point x="140" y="901" type="line"/>
      <point x="1100" y="901" type="line"/>
      <point x="1100" y="1172" type="line"/>
      <point x="140" y="1172" type="line"/>
    </contour>
    <contour>
      <point x="475" y="1460" type="line"/>
      <point x="475" y="614" type="line"/>
      <point x="766" y="614" type="line"/>
      <point x="766" y="1460" type="line"/>
    </contour>
    <contour>
      <point x="140" y="115" type="line"/>
      <point x="1100" y="115" type="line"/>
      <point x="1100" y="386" type="line"/>
      <point x="140" y="386" type="line"/>
    </contour>
  </outline>
</glyph>
<glyph name="threesuperior" format="2">
  <advance width="1240"/>
  <unicode hex="00B3"/>
  <outline>
    <contour>
      <point x="614" y="1664" type="curve" smooth="yes"/>
      <point x="436" y="1664"/>
      <point x="354" y="1596"/>
      <point x="357" y="1485" type="curve"/>
      <point x="499" y="1470" type="line"/>
      <point x="509" y="1523"/>
      <point x="543" y="1542"/>
      <point x="605" y="1542" type="curve" smooth="yes"/>
      <point x="669" y="1542"/>
      <point x="699" y="1522"/>
      <point x="699" y="1489" type="curve" smooth="yes"/>
      <point x="699" y="1446"/>
      <point x="671" y="1420"/>
      <point x="576" y="1420" type="curve" smooth="yes"/>
      <point x="534" y="1420" type="line"/>
      <point x="534" y="1320" type="line"/>
      <point x="573" y="1320" type="line" smooth="yes"/>
      <point x="688" y="1320"/>
      <point x="702" y="1297"/>
      <point x="702" y="1266" type="curve" smooth="yes"/>
      <point x="702" y="1239"/>
      <point x="684" y="1217"/>
      <point x="604" y="1217" type="curve" smooth="yes"/>
      <point x="524" y="1217"/>
      <point x="497" y="1238"/>
      <point x="484" y="1275" type="curve"/>
      <point x="337" y="1259" type="line"/>
      <point x="337" y="1118"/>
      <point x="447" y="1091"/>
      <point x="602" y="1091" type="curve" smooth="yes"/>
      <point x="749" y="1091"/>
      <point x="867" y="1127"/>
      <point x="867" y="1260" type="curve" smooth="yes"/>
      <point x="867" y="1375"/>
      <point x="745" y="1385"/>
      <point x="632" y="1385" type="curve"/>
      <point x="632" y="1362" type="line"/>
      <point x="729" y="1362"/>
      <point x="855" y="1389"/>
      <point x="855" y="1508" type="curve" smooth="yes"/>
      <point x="855" y="1611"/>
      <point x="767" y="1664"/>
    </contour>
  </outline>
</glyph>
<glyph name="acute" format="2">
  <advance width="1240"/>
  <unicode hex="00B4"/>
  <outline>
    <contour>
      <point x="754" y="1275" type="line"/>
      <point x="495" y="1275" type="line"/>
      <point x="678" y="1643" type="line"/>
      <point x="1003" y="1643" type="line"/>
    </contour>
  </outline>
</glyph>
<glyph name="micro" format="2">
  <advance width="1240"/>
  <unicode hex="00B5"/>
  <outline>
    <contour>
      <point x="794" y="234" type="line"/>
      <point x="810" y="220" type="line"/>
      <point x="810" y="0" type="line"/>
      <point x="1114" y="0" type="line"/>
      <point x="1114" y="1082" type="line"/>
      <point x="794" y="1082" type="line"/>
    </contour>
    <contour>
      <point x="446" y="-400" type="line"/>
      <point x="446" y="82" type="line"/>
      <point x="266" y="60" type="line"/>
      <point x="295" y="0"/>
      <point x="350" y="-24"/>
      <point x="416" y="-24" type="curve" smooth="yes"/>
      <point x="551" y="-24"/>
      <point x="709" y="33"/>
      <point x="795" y="234" type="curve"/>
      <point x="835" y="234" type="line"/>
      <point x="800" y="428" type="line"/>
      <point x="782" y="318"/>
      <point x="691" y="229"/>
      <point x="567" y="229" type="curve" smooth="yes"/>
      <point x="496" y="229"/>
      <point x="446" y="260"/>
      <point x="446" y="341" type="curve" smooth="yes"/>
      <point x="446" y="1082" type="line"/>
      <point x="126" y="1082" type="line"/>
      <point x="126" y="-400" type="line"/>
    </contour>
  </outline>
</glyph>
<glyph name="periodcentered" format="2">
  <advance width="1240"/>
  <unicode hex="00B7"/>
  <outline>
    <contour>
      <point x="615" y="443" type="curve" smooth="yes"/>
      <point x="744" y="443"/>
      <point x="851" y="531"/>
      <point x="851" y="674" type="curve" smooth="yes"/>
      <point x="851" y="818"/>
      <point x="744" y="903"/>
      <point x="615" y="903" type="curve" smooth="yes"/>
      <point x="484" y="903"/>
      <point x="376" y="818"/>
      <point x="376" y="674" type="curve" smooth="yes"/>
      <point x="376" y="531"/>
      <point x="484" y="443"/>
    </contour>
  </outline>
</glyph>
<glyph name="onesuperior" format="2">
  <advance width="1240"/>
  <unicode hex="00B9"/>
  <outline>
    <contour>
      <point x="410" y="1591" type="curve"/>
      <point x="410" y="1425" type="line"/>
      <point x="541" y="1425"/>
      <point x="664" y="1573"/>
      <point x="664" y="1655" type="curve"/>
      <point x="551" y="1655" type="line"/>
      <point x="530" y="1606"/>
      <point x="457" y="1591"/>
    </contour>
    <contour>
      <point x="715" y="1100" type="line"/>
      <point x="715" y="1655" type="line"/>
      <point x="551" y="1655" type="line"/>
      <point x="551" y="1100" type="line"/>
    </contour>
    <contour>
      <point x="395" y="1100" type="line"/>
      <point x="866" y="1100" type="line"/>
      <point x="866" y="1230" type="line"/>
      <point x="395" y="1230" type="line"/>
    </contour>
  </outline>
</glyph>
<glyph name="guillemetright" format="2">
  <advance width="1240"/>
  <unicode hex="00BB"/>
  <outline>
    <contour>
      <point x="620" y="1022" type="line"/>
      <point x="981" y="400" type="line"/>
      <point x="1220" y="543" type="line"/>
      <point x="926" y="1058" type="line"/>
    </contour>
    <contour>
      <point x="926" y="24" type="line"/>
      <point x="1220" y="543" type="line"/>
      <point x="979" y="658" type="line"/>
      <point x="620" y="59" type="line"/>
    </contour>
    <contour>
      <point x="90" y="1022" type="line"/>
      <point x="451" y="400" type="line"/>
      <point x="690" y="543" type="line"/>
      <point x="396" y="1058" type="line"/>
    </contour>
    <contour>
      <point x="396" y="24" type="line"/>
      <point x="690" y="543" type="line"/>
      <point x="449" y="658" type="line"/>
      <point x="90" y="59" type="line"/>
    </contour>
  </outline>
</glyph>
<glyph name="onequarter" format="2">
  <advance width="1240"/>
  <unicode hex="00BC"/>
  <outline>
    <contour>
      <point x="85" y="1396" type="curve"/>
      <point x="85" y="1230" type="line"/>
      <point x="216" y="1230"/>
      <point x="339" y="1378"/>
      <point x="339" y="1460" type="curve"/>
      <point x="226" y="1460" type="line"/>
      <point x="205" y="1411"/>
      <point x="132" y="1396"/>
    </contour>
    <contour>
      <point x="390" y="905" type="line"/>
      <point x="390" y="1460" type="line"/>
      <point x="226" y="1460" type="line"/>
      <point x="226" y="905" type="line"/>
    </contour>
    <contour>
      <point x="70" y="905" type="line"/>
      <point x="541" y="905" type="line"/>
      <point x="541" y="1035" type="line"/>
      <point x="70" y="1035" type="line"/>
    </contour>
    <contour>
      <point x="993" y="1130" type="line"/>
      <point x="223" y="461" type="line"/>
      <point x="344" y="328" type="line"/>
      <point x="1114" y="997" type="line"/>
    </contour>
    <contour>
      <point x="1067" y="0" type="line"/>
      <point x="1067" y="555" type="line"/>
      <point x="894" y="555" type="line"/>
      <point x="610" y="241" type="line"/>
      <point x="610" y="111" type="line"/>
      <point x="1146" y="111" type="line"/>
      <point x="1146" y="241" type="line"/>
      <point x="1017" y="241" type="line"/>
      <point x="962" y="231" type="line"/>
      <point x="714" y="231" type="line"/>
      <point x="741" y="205" type="line"/>
      <point x="936" y="404" type="line"/>
      <point x="909" y="414" type="line"/>
      <point x="909" y="0" type="line"/>
    </contour>
  </outline>
</glyph>
<glyph name="onehalf" format="2">
  <advance width="1240"/>
  <unicode hex="00BD"/>
  <outline>
    <contour>
      <point x="85" y="1396" type="curve"/>
      <point x="85" y="1230" type="line"/>
      <point x="216" y="1230"/>
      <point x="339" y="1378"/>
      <point x="339" y="1460" type="curve"/>
      <point x="226" y="1460" type="line"/>
      <point x="205" y="1411"/>
      <point x="132" y="1396"/>
    </contour>
    <contour>
      <point x="390" y="905" type="line"/>
      <point x="390" y="1460" type="line"/>
      <point x="226" y="1460" type="line"/>
      <point x="226" y="905" type="line"/>
    </contour>
    <contour>
      <point x="70" y="905" type="line"/>
      <point x="541" y="905" type="line"/>
      <point x="541" y="1035" type="line"/>
      <point x="70" y="1035" type="line"/>
    </contour>
    <contour>
      <point x="983" y="1130" type="line"/>
      <point x="213" y="461" type="line"/>
      <point x="334" y="328" type="line"/>
      <point x="1104" y="997" type="line"/>
    </contour>
    <contour>
      <point x="949" y="563" type="curve" smooth="yes"/>
      <point x="776" y="563"/>
      <point x="689" y="486"/>
      <point x="697" y="379" type="curve"/>
      <point x="844" y="364" type="line"/>
      <point x="848" y="418"/>
      <point x="880" y="442"/>
      <point x="948" y="442" type="curve" smooth="yes"/>
      <point x="1003" y="442"/>
      <point x="1024" y="426"/>
      <point x="1024" y="387" type="curve" smooth="yes"/>
      <point x="1024" y="340"/>
      <point x="961" y="330"/>
      <point x="906" y="306" type="curve" smooth="yes"/>
      <point x="804" y="263"/>
      <point x="700" y="223"/>
      <point x="700" y="130" type="curve" smooth="yes"/>
      <point x="700" y="0" type="line"/>
      <point x="1197" y="0" type="line"/>
      <point x="1197" y="130" type="line"/>
      <point x="830" y="130" type="line"/>
      <point x="852" y="109" type="line"/>
      <point x="852" y="149"/>
      <point x="881" y="164"/>
      <point x="972" y="202" type="curve" smooth="yes"/>
      <point x="1065" y="241"/>
      <point x="1185" y="279"/>
      <point x="1185" y="402" type="curve" smooth="yes"/>
      <point x="1185" y="516"/>
      <point x="1084" y="563"/>
    </contour>
  </outline>
</glyph>
<glyph name="Agrave" format="2">
  <advance width="1240"/>
  <unicode hex="00C0"/>
  <outline>
    <contour>
      <point x="132" y="0" type="line"/>
      <point x="459" y="0" type="line"/>
      <point x="459" y="819" type="line"/>
      <point x="661" y="1261" type="line"/>
      <point x="579" y="1261" type="line"/>
      <point x="781" y="819" type="line"/>
      <point x="781" y="0" type="line"/>
      <point x="1108" y="0" type="line"/>
      <point x="1108" y="933" type="line"/>
      <point x="823" y="1460" type="line"/>
      <point x="417" y="1460" type="line"/>
      <point x="132" y="933" type="line"/>
    </contour>
    <contour>
      <point x="339" y="303" type="line"/>
      <point x="930" y="303" type="line"/>
      <point x="930" y="537" type="line"/>
      <point x="339" y="537" type="line"/>
    </contour>
    <contour>
      <point x="486" y="1619.05" type="line"/>
      <point x="745" y="1619.05" type="line"/>
      <point x="562" y="1877.386" type="line"/>
      <point x="237" y="1877.386" type="line"/>
    </contour>
  </outline>
</glyph>
<glyph name="Ocircumflex" format="2">
  <advance width="1240"/>
  <unicode hex="00D4"/>
  <outline>
    <contour>
      <point x="437" y="0" type="line"/>
      <point x="803" y="0" type="line"/>
      <point x="1168" y="528" type="line"/>
      <point x="1168" y="932" type="line"/>
      <point x="803" y="1460" type="line"/>
      <point x="437" y="1460" type="line"/>
      <point x="72" y="932" type="line"/>
      <point x="72" y="528" type="line"/>
    </contour>
    <contour>
      <point x="587" y="311" type="line"/>
      <point x="397" y="642" type="line"/>
      <point x="397" y="818" type="line"/>
      <point x="587" y="1149" type="line"/>
      <point x="653" y="1149" type="line"/>
      <point x="843" y="818" type="line"/>
      <point x="843" y="642" type="line"/>
      <point x="653" y="311" type="line"/>
    </contour>
    <contour>
      <point x="199" y="1620" type="line"/>
      <point x="483" y="1620" type="line"/>
      <point x="644" y="1824" type="line"/>
      <point x="596" y="1824" type="line"/>
      <point x="757" y="1620" type="line"/>
      <point x="1041" y="1620" type="line"/>
      <point x="813" y="1878" type="line"/>
      <point x="427" y="1878" type="line"/>
    </contour>
  </outline>
</glyph>
<glyph name="Odieresis" format="2">
  <advance width="1240"/>
  <unicode hex="00D6"/>
  <outline>
    <contour>
      <point x="437" y="0" type="line"/>
      <point x="803" y="0" type="line"/>
      <point x="1168" y="528" type="line"/>
      <point x="1168" y="932" type="line"/>
      <point x="803" y="1460" type="line"/>
      <point x="437" y="1460" type="line"/>
      <point x="72" y="932" type="line"/>
      <point x="72" y="528" type="line"/>
    </contour>
    <contour>
      <point x="587" y="311" type="line"/>
      <point x="397" y="642" type="line"/>
      <point x="397" y="818" type="line"/>
      <point x="587" y="1149" type="line"/>
      <point x="653" y="1149" type="line"/>
      <point x="843" y="818" type="line"/>
      <point x="843" y="642" type="line"/>
      <point x="653" y="311" type="line"/>
    </contour>
    <contour>
      <point x="339.68" y="1618.8" type="line"/>
      <point x="510.592" y="1786.8" type="line"/>
      <point x="339.68" y="1954" type="line"/>
      <point x="167.984" y="1786.8" type="line"/>
    </contour>
    <contour>
      <point x="900.68" y="1618.8" type="line"/>
      <point x="1071.592" y="1786.8" type="line"/>
      <point x="900.68" y="1954" type="line"/>
      <point x="728.984" y="1786.8" type="line"/>
    </contour>
  </outline>
</glyph>
<glyph name="Uacute" format="2">
  <advance width="1240"/>
  <unicode hex="00DA"/>
  <outline>
    <contour>
      <point x="327" y="0" type="line"/>
      <point x="913" y="0" type="line"/>
      <point x="1108" y="249" type="line"/>
      <point x="1108" y="1460" type="line"/>
      <point x="773" y="1460" type="line"/>
      <point x="773" y="353" type="line"/>
      <point x="715" y="271" type="line"/>
      <point x="525" y="271" type="line"/>
      <point x="467" y="353" type="line"/>
      <point x="467" y="1460" type="line"/>
      <point x="132" y="1460" type="line"/>
      <point x="132" y="249" type="line"/>
    </contour>
    <contour>
      <point x="754" y="1619.05" type="line"/>
      <point x="495" y="1619.05" type="line"/>
      <point x="678" y="1877.386" type="line"/>
      <point x="1003" y="1877.386" type="line"/>
    </contour>
  </outline>
</glyph>
<glyph name="eacute" format="2">
  <advance width="1240"/>
  <unicode hex="00E9"/>
  <outline>
    <contour>
      <point x="445" y="0" type="line"/>
      <point x="1053" y="0" type="line"/>
      <point x="1083" y="251" type="line"/>
      <point x="605" y="251" type="line"/>
      <point x="435" y="423" type="line"/>
      <point x="435" y="639" type="line"/>
      <point x="595" y="851" type="line"/>
      <point x="803" y="851" type="line"/>
      <point x="859" y="793" type="line"/>
      <point x="859" y="707" type="line"/>
      <point x="809" y="647" type="line"/>
      <point x="365" y="647" type="line"/>
      <point x="365" y="457" type="line"/>
      <point x="1014" y="457" type="line"/>
      <point x="1124" y="569" type="line"/>
      <point x="1124" y="851" type="line"/>
      <point x="915" y="1082" type="line"/>
      <point x="445" y="1082" type="line"/>
      <point x="130" y="713" type="line"/>
      <point x="130" y="369" type="line"/>
    </contour>
    <contour>
      <point x="794" y="1275" type="line"/>
      <point x="535" y="1275" type="line"/>
      <point x="718" y="1643" type="line"/>
      <point x="1043" y="1643" type="line"/>
    </contour>
  </outline>
</glyph>
<glyph name="igrave" format="2">
  <advance width="1240"/>
  <unicode hex="00EC"/>
  <outline>
    <contour>
      <point x="573" y="0" type="line"/>
      <point x="898" y="0" type="line"/>
      <point x="898" y="867" type="line"/>
      <point x="713" y="1082" type="line"/>
      <point x="157" y="1082" type="line"/>
      <point x="127" y="781" type="line"/>
      <point x="632" y="781" type="line"/>
      <point x="573" y="836" type="line"/>
    </contour>
    <contour>
      <point x="399" y="1275" type="line"/>
      <point x="658" y="1275" type="line"/>
      <point x="475" y="1643" type="line"/>
      <point x="150" y="1643" type="line"/>
    </contour>
  </outline>
</glyph>
<glyph name="eth" format="2">
  <advance width="1240"/>
  <unicode hex="00F0"/>
  <outline>
    <contour>
      <point x="285" y="1023" type="line"/>
      <point x="1080" y="1399" type="line"/>
      <point x="1017" y="1530" type="line"/>
      <point x="222" y="1154" type="line"/>
    </contour>
    <contour>
      <point x="814" y="0" type="line"/>
      <point x="1159" y="307" type="line"/>
      <point x="1159" y="863" type="line"/>
      <point x="605" y="1530" type="line"/>
      <point x="270" y="1530" type="line"/>
      <point x="874" y="792" type="line"/>
      <point x="874" y="411" type="line"/>
      <point x="684" y="251" type="line"/>
      <point x="568" y="251" type="line"/>
      <point x="389" y="391" type="line"/>
      <point x="389" y="564" type="line"/>
      <point x="550" y="661" type="line"/>
      <point x="1004" y="661" type="line"/>
      <point x="1004" y="904" type="line"/>
      <point x="479" y="904" type="line"/>
      <point x="104" y="689" type="line"/>
      <point x="104" y="287" type="line"/>
      <point x="448" y="0" type="line"/>
    </contour>
  </outline>
</glyph>
<glyph name="ocircumflex" format="2">
  <advance width="1240"/>
  <unicode hex="00F4"/>
  <outline>
    <contour>
      <point x="415" y="0" type="line"/>
      <point x="825" y="0" type="line"/>
      <point x="1140" y="369" type="line"/>
      <point x="1140" y="713" type="line"/>
      <point x="825" y="1082" type="line"/>
      <point x="415" y="1082" type="line"/>
      <point x="100" y="713" type="line"/>
      <point x="100" y="369" type="line"/>
    </contour>
    <contour>
      <point x="545" y="281" type="line"/>
      <point x="405" y="453" type="line"/>
      <point x="405" y="629" type="line"/>
      <point x="545" y="801" type="line"/>
      <point x="695" y="801" type="line"/>
      <point x="835" y="629" type="line"/>
      <point x="835" y="453" type="line"/>
      <point x="695" y="281" type="line"/>
    </contour>
    <contour>
      <point x="199" y="1275" type="line"/>
      <point x="473" y="1275" type="line"/>
      <point x="654" y="1591" type="line"/>
      <point x="586" y="1591" type="line"/>
      <point x="767" y="1275" type="line"/>
      <point x="1041" y="1275" type="line"/>
      <point x="813" y="1643" type="line"/>
      <point x="427" y="1643" type="line"/>
    </contour>
  </outline>
</glyph>
<glyph name="odieresis" format="2">
  <advance width="1240"/>
  <unicode hex="00F6"/>
  <outline>
    <contour>
      <point x="415" y="0" type="line"/>
      <point x="825" y="0" type="line"/>
      <point x="1140" y="369" type="line"/>
      <point x="1140" y="713" type="line"/>
      <point x="825" y="1082" type="line"/>
      <point x="415" y="1082" type="line"/>
      <point x="100" y="713" type="line"/>
      <point x="100" y="369" type="line"/>
    </contour>
    <contour>
      <point x="545" y="281" type="line"/>
      <point x="405" y="453" type="line"/>
      <point x="405" y="629" type="line"/>
      <point x="545" y="801" type="line"/>
      <point x="695" y="801" type="line"/>
      <point x="835" y="629" type="line"/>
      <point x="835" y="453" type="line"/>
      <point x="695" y="281" type="line"/>
    </contour>
    <contour>
      <point x="339.46" y="1227.184" type="line"/>
      <point x="531.954" y="1436.533" type="line"/>
      <point x="339.46" y="1644.885" type="line"/>
      <point x="146.083" y="1436.533" type="line"/>
    </contour>
    <contour>
      <point x="900.46" y="1227.184" type="line"/>
      <point x="1092.954" y="1436.533" type="line"/>
      <point x="900.46" y="1644.885" type="line"/>
      <point x="707.083" y="1436.533" type="line"/>
    </contour>
  </outline>
</glyph>
<glyph name="ucircumflex" format="2">
  <advance width="1240"/>
  <unicode hex="00FB"/>
  <outline>
    <contour>
      <point x="437" y="1082" type="line"/>
      <point x="112" y="1082" type="line"/>
      <point x="112" y="271" type="line"/>
      <point x="407" y="-24" type="line"/>
      <point x="984" y="154" type="line"/>
      <point x="984" y="335" type="line"/>
      <point x="531" y="259" type="line"/>
      <point x="437" y="342" type="line"/>
    </contour>
    <contour>
      <point x="1128" y="1082" type="line"/>
      <point x="803" y="1082" type="line"/>
      <point x="803" y="165" type="line"/>
      <point x="883" y="0" type="line"/>
      <point x="1128" y="0" type="line"/>
    </contour>
    <contour>
      <point x="199" y="1275" type="line"/>
      <point x="473" y="1275" type="line"/>
      <point x="654" y="1591" type="line"/>
      <point x="586" y="1591" type="line"/>
      <point x="767" y="1275" type="line"/>
      <point x="1041" y="1275" type="line"/>
      <point x="813" y="1643" type="line"/>
      <point x="427" y="1643" type="line"/>
    </contour>
  </outline>
</glyph>
<glyph name="Abreve" format="2">
  <advance width="1240"/>
  <unicode hex="0102"/>
  <outline>
    <contour>
      <point x="132" y="0" type="line"/>
      <point x="459" y="0" type="line"/>
      <point x="459" y="819" type="line"/>
      <point x="661" y="1261" type="line"/>
      <point x="579" y="1261" type="line"/>
      <point x="781" y="819" type="line"/>
      <point x="781" y="0" type="line"/>
      <point x="1108" y="0" type="line"/>
      <point x="1108" y="933" type="line"/>
      <point x="823" y="1460" type="line"/>
      <point x="417" y="1460" type="line"/>
      <point x="132" y="933" type="line"/>
    </contour>
    <contour>
      <point x="339" y="303" type="line"/>
      <point x="930" y="303" type="line"/>
      <point x="930" y="537" type="line"/>
      <point x="339" y="537" type="line"/>
    </contour>
    <contour>
      <point x="453" y="1600" type="line"/>
      <point x="787" y="1600" type="line"/>
      <point x="980" y="1753" type="line"/>
      <point x="980" y="1878" type="line"/>
      <point x="782" y="1878" type="line"/>
      <point x="782" y="1820" type="line"/>
      <point x="707" y="1763" type="line"/>
      <point x="533" y="1763" type="line"/>
      <point x="458" y="1820" type="line"/>
      <point x="458" y="1878" type="line"/>
      <point x="260" y="1878" type="line"/>
      <point x="260" y="1752" type="line"/>
    </contour>
  </outline>
</glyph>
<glyph name="Aogonek" format="2">
  <advance width="1240"/>
  <unicode hex="0104"/>
  <outline>
    <contour>
      <point x="132" y="0" type="line"/>
      <point x="459" y="0" type="line"/>
      <point x="459" y="819" type="line"/>
      <point x="661" y="1261" type="line"/>
      <point x="579" y="1261" type="line"/>
      <point x="781" y="819" type="line"/>
      <point x="781" y="0" type="line"/>
      <point x="1108" y="0" type="line"/>
      <point x="1108" y="933" type="line"/>
      <point x="823" y="1460" type="line"/>
      <point x="417" y="1460" type="line"/>
      <point x="132" y="933" type="line"/>
    </contour>
    <contour>
      <point x="339" y="303" type="line"/>
      <point x="930" y="303" type="line"/>
      <point x="930" y="537" type="line"/>
      <point x="339" y="537" type="line"/>
    </contour>
    <contour>
      <point x="722" y="-133" type="line"/>
      <point x="722" y="-320" type="line"/>
      <point x="925" y="-443" type="line"/>
      <point x="1089" y="-443" type="line"/>
      <point x="1089" y="-240" type="line"/>
      <point x="997" y="-240" type="line"/>
      <point x="945" y="-210" type="line"/>
      <point x="945" y="-173" type="line"/>
      <point x="1108" y="0" type="line"/>
      <point x="991" y="44" type="line"/>
    </contour>
  </outline>
</glyph>
<glyph name="aogonek" format="2">
  <advance width="1240"/>
  <unicode hex="0105"/>
  <outline>
    <contour>
      <point x="883" y="0" type="line"/>
      <point x="1128" y="0" type="line"/>
      <point x="1128" y="833" type="line"/>
      <point x="893" y="1082" type="line"/>
      <point x="238" y="1082" type="line"/>
      <point x="208" y="829" type="line"/>
      <point x="726" y="829" type="line"/>
      <point x="803" y="764" type="line"/>
      <point x="803" y="165" type="line"/>
    </contour>
    <contour>
      <point x="345" y="-22" type="line"/>
      <point x="899" y="116" type="line"/>
      <point x="899" y="297" type="line"/>
      <point x="469" y="211" type="line"/>
      <point x="375" y="324" type="line"/>
      <point x="375" y="393" type="line"/>
      <point x="455" y="453" type="line"/>
      <point x="899" y="453" type="line"/>
      <point x="899" y="643" type="line"/>
      <point x="325" y="643" type="line"/>
      <point x="80" y="467" type="line"/>
      <point x="80" y="193" type="line"/>
    </contour>
    <contour>
      <point x="742" y="-133" type="line"/>
      <point x="742" y="-320" type="line"/>
      <point x="945" y="-443" type="line"/>
      <point x="1109" y="-443" type="line"/>
      <point x="1109" y="-240" type="line"/>
      <point x="1017" y="-240" type="line"/>
      <point x="965" y="-210" type="line"/>
      <point x="965" y="-173" type="line"/>
      <point x="1128" y="0" type="line"/>
      <point x="1011" y="44" type="line"/>
    </contour>
  </outline>
</glyph>
<glyph name="Cacute" format="2">
  <advance width="1240"/>
  <unicode hex="0106"/>
  <outline>
    <contour>
      <point x="417" y="0" type="line"/>
      <point x="1082" y="0" type="line"/>
      <point x="1122" y="301" type="line"/>
      <point x="587" y="301" type="line"/>
      <point x="397" y="642" type="line"/>
      <point x="397" y="818" type="line"/>
      <point x="587" y="1159" type="line"/>
      <point x="1122" y="1159" type="line"/>
      <point x="1082" y="1460" type="line"/>
      <point x="417" y="1460" type="line"/>
      <point x="72" y="932" type="line"/>
      <point x="72" y="528" type="line"/>
    </contour>
    <contour>
      <point x="834" y="1619.05" type="line"/>
      <point x="575" y="1619.05" type="line"/>
      <point x="758" y="1877.386" type="line"/>
      <point x="1083" y="1877.386" type="line"/>
    </contour>
  </outline>
</glyph>
<glyph name="Ccaron" format="2">
  <advance width="1240"/>
  <unicode hex="010C"/>
  <outline>
    <contour>
      <point x="417" y="0" type="line"/>
      <point x="1082" y="0" type="line"/>
      <point x="1122" y="301" type="line"/>
      <point x="587" y="301" type="line"/>
      <point x="397" y="642" type="line"/>
      <point x="397" y="818" type="line"/>
      <point x="587" y="1159" type="line"/>
      <point x="1122" y="1159" type="line"/>
      <point x="1082" y="1460" type="line"/>
      <point x="417" y="1460" type="line"/>
      <point x="72" y="932" type="line"/>
      <point x="72" y="528" type="line"/>
    </contour>
    <contour>
      <point x="279" y="1878" type="line"/>
      <point x="563" y="1878" type="line"/>
      <point x="724" y="1674" type="line"/>
      <point x="676" y="1674" type="line"/>
      <point x="837" y="1878" type="line"/>
      <point x="1121" y="1878" type="line"/>
      <point x="893" y="1620" type="line"/>
      <point x="507" y="1620" type="line"/>
    </contour>
  </outline>
</glyph>
<glyph name="dcaron" format="2">
  <advance width="1240"/>
  <unicode hex="010F"/>
  <outline>
    <contour>
      <point x="771" y="0" type="line"/>
      <point x="976" y="0" type="line"/>
      <point x="976" y="1530" type="line"/>
      <point x="658" y="1470" type="line"/>
      <point x="658" y="942" type="line"/>
      <point x="693" y="882" type="line"/>
      <point x="693" y="168" type="line"/>
    </contour>
    <contour>
      <point x="830" y="1080" type="line"/>
      <point x="423" y="1080" type="line"/>
      <point x="78" y="763" type="line"/>
      <point x="78" y="279" type="line"/>
      <point x="393" y="-26" type="line"/>
      <point x="830" y="152" type="line"/>
      <point x="830" y="351" type="line"/>
      <point x="467" y="275" type="line"/>
      <point x="373" y="358" type="line"/>
      <point x="373" y="657" type="line"/>
      <point x="533" y="817" type="line"/>
      <point x="830" y="817" type="line"/>
    </contour>
    <contour>
      <point x="1055.034" y="1312" type="line"/>
      <point x="1271.332" y="1312" type="line"/>
      <point x="1307.235" y="1708" type="line"/>
      <point x="1069.921" y="1708" type="line"/>
    </contour>
  </outline>
</glyph>
<glyph name="dcroat" format="2">
  <advance width="1240"/>
  <unicode hex="0111"/>
  <outline>
    <contour>
      <point x="392" y="1191" type="line"/>
      <point x="1212" y="1191" type="line"/>
      <point x="1212" y="1350" type="line"/>
      <point x="972" y="1350" type="line"/>
      <point x="943" y="1350" type="line"/>
      <point x="392" y="1350" type="line"/>
    </contour>
    <contour>
      <point x="911" y="0" type="line"/>
      <point x="1128" y="0" type="line"/>
      <point x="1128" y="1530" type="line"/>
      <point x="798" y="1470" type="line"/>
      <point x="798" y="842" type="line"/>
      <point x="813" y="782" type="line"/>
      <point x="813" y="168" type="line"/>
    </contour>
    <contour>
      <point x="970" y="980" type="line"/>
      <point x="445" y="980" type="line"/>
      <point x="100" y="663" type="line"/>
      <point x="100" y="279" type="line"/>
      <point x="415" y="-26" type="line"/>
      <point x="970" y="152" type="line"/>
      <point x="970" y="351" type="line"/>
      <point x="519" y="275" type="line"/>
      <point x="425" y="358" type="line"/>
      <point x="425" y="557" type="line"/>
      <point x="585" y="717" type="line"/>
      <point x="970" y="717" type="line"/>
    </contour>
  </outline>
</glyph>
<glyph name="eogonek" format="2">
  <advance width="1240"/>
  <unicode hex="0119"/>
  <outline>
    <contour>
      <point x="445" y="0" type="line"/>
      <point x="1053" y="0" type="line"/>
      <point x="1083" y="251" type="line"/>
      <point x="605" y="251" type="line"/>
      <point x="435" y="423" type="line"/>
      <point x="435" y="639" type="line"/>
      <point x="595" y="851" type="line"/>
      <point x="803" y="851" type="line"/>
      <point x="859" y="793" type="line"/>
      <point x="859" y="707" type="line"/>
      <point x="809" y="647" type="line"/>
      <point x="365" y="647" type="line"/>
      <point x="365" y="457" type="line"/>
      <point x="1014" y="457" type="line"/>
      <point x="1124" y="569" type="line"/>
      <point x="1124" y="851" type="line"/>
      <point x="915" y="1082" type="line"/>
      <point x="445" y="1082" type="line"/>
      <point x="130" y="713" type="line"/>
      <point x="130" y="369" type="line"/>
    </contour>
    <contour>
      <point x="507" y="-133" type="line"/>
      <point x="507" y="-320" type="line"/>
      <point x="710" y="-443" type="line"/>
      <point x="874" y="-443" type="line"/>
      <point x="874" y="-240" type="line"/>
      <point x="782" y="-240" type="line"/>
      <point x="730" y="-210" type="line"/>
      <point x="730" y="-173" type="line"/>
      <point x="893" y="0" type="line"/>
      <point x="776" y="44" type="line"/>
    </contour>
  </outline>
</glyph>
<glyph name="Gbreve" format="2">
  <advance width="1240"/>
  <unicode hex="011E"/>
  <outline>
    <contour>
      <point x="437" y="0" type="line"/>
      <point x="918" y="0" type="line"/>
      <point x="1152" y="247" type="line"/>
      <point x="1152" y="829" type="line"/>
      <point x="686" y="829" type="line"/>
      <point x="686" y="582" type="line"/>
      <point x="954" y="582" type="line"/>
      <point x="882" y="669" type="line"/>
      <point x="882" y="384" type="line"/>
      <point x="790" y="301" type="line"/>
      <point x="607" y="301" type="line"/>
      <point x="397" y="642" type="line"/>
      <point x="397" y="818" type="line"/>
      <point x="587" y="1159" type="line"/>
      <point x="1082" y="1159" type="line"/>
      <point x="1052" y="1460" type="line"/>
      <point x="417" y="1460" type="line"/>
      <point x="72" y="932" type="line"/>
      <point x="72" y="528" type="line"/>
    </contour>
    <contour>
      <point x="533" y="1600" type="line"/>
      <point x="867" y="1600" type="line"/>
      <point x="1060" y="1753" type="line"/>
      <point x="1060" y="1878" type="line"/>
      <point x="862" y="1878" type="line"/>
      <point x="862" y="1820" type="line"/>
      <point x="787" y="1763" type="line"/>
      <point x="613" y="1763" type="line"/>
      <point x="538" y="1820" type="line"/>
      <point x="538" y="1878" type="line"/>
      <point x="340" y="1878" type="line"/>
      <point x="340" y="1752" type="line"/>
    </contour>
  </outline>
</glyph>
<glyph name="gdotaccent" format="2">
  <advance width="1240"/>
  <unicode hex="0121"/>
  <outline>
    <contour>
      <point x="278" y="-400" type="line"/>
      <point x="853" y="-400" type="line"/>
      <point x="1128" y="-81" type="line"/>
      <point x="1128" y="1082" type="line"/>
      <point x="813" y="1082" type="line"/>
      <point x="813" y="355" type="line"/>
      <point x="798" y="308" type="line"/>
      <point x="798" y="13" type="line"/>
      <point x="677" y="-119" type="line"/>
      <point x="248" y="-119" type="line"/>
    </contour>
    <contour>
      <point x="435" y="117" type="line"/>
      <point x="970" y="245" type="line"/>
      <point x="970" y="456" type="line"/>
      <point x="529" y="390" type="line"/>
      <point x="425" y="493" type="line"/>
      <point x="425" y="642" type="line"/>
      <point x="585" y="802" type="line"/>
      <point x="970" y="802" type="line"/>
      <point x="970" y="1083" type="line"/>
      <point x="445" y="1083" type="line"/>
      <point x="100" y="766" type="line"/>
      <point x="100" y="392" type="line"/>
    </contour>
    <contour>
      <point x="640" y="1231" type="line"/>
      <point x="858" y="1441" type="line"/>
      <point x="640" y="1650" type="line"/>
      <point x="421" y="1441" type="line"/>
    </contour>
  </outline>
</glyph>
<glyph name="Hbar" format="2">
  <advance width="1240"/>
  <unicode hex="0126"/>
  <outline>
    <contour>
      <point x="40" y="1082" type="line"/>
      <point x="1200" y="1082" type="line"/>
      <point x="1200" y="1293" type="line"/>
      <point x="40" y="1293" type="line"/>
    </contour>
    <contour>
      <point x="771" y="0" type="line"/>
      <point x="1108" y="0" type="line"/>
      <point x="1108" y="1460" type="line"/>
      <point x="771" y="1460" type="line"/>
    </contour>
    <contour>
      <point x="132" y="0" type="line"/>
      <point x="469" y="0" type="line"/>
      <point x="469" y="1460" type="line"/>
      <point x="132" y="1460" type="line"/>
    </contour>
    <contour>
      <point x="269" y="602" type="line"/>
      <point x="967" y="602" type="line"/>
      <point x="967" y="873" type="line"/>
      <point x="269" y="873" type="line"/>
    </contour>
  </outline>
</glyph>
<glyph name="Imacron" format="2">
  <advance width="1240"/>
  <unicode hex="012A"/>
  <outline>
    <contour>
      <point x="455" y="0" type="line"/>
      <point x="785" y="0" type="line"/>
      <point x="785" y="1460" type="line"/>
      <point x="455" y="1460" type="line"/>
    </contour>
    <contour>
      <point x="165" y="0" type="line"/>
      <point x="1075" y="0" type="line"/>
      <point x="1095" y="271" type="line"/>
      <point x="145" y="271" type="line"/>
    </contour>
    <contour>
      <point x="145" y="1189" type="line"/>
      <point x="1095" y="1189" type="line"/>
      <point x="1075" y="1460" type="line"/>
      <point x="165" y="1460" type="line"/>
    </contour>
    <contour>
      <point x="271" y="1691" type="line"/>
      <point x="969" y="1691" type="line"/>
      <point x="969" y="1884" type="line"/>
      <point x="271" y="1884" type="line"/>
    </contour>
  </outline>
</glyph>
<glyph name="imacron" format="2">
  <advance width="1240"/>
  <unicode hex="012B"/>
  <outline>
    <contour>
      <point x="573" y="0" type="line"/>
      <point x="898" y="0" type="line"/>
      <point x="898" y="867" type="line"/>
      <point x="713" y="1082" type="line"/>
      <point x="157" y="1082" type="line"/>
      <point x="127" y="781" type="line"/>
      <point x="632" y="781" type="line"/>
      <point x="573" y="836" type="line"/>
    </contour>
    <contour>
      <point x="184" y="1299" type="line"/>
      <point x="882" y="1299" type="line"/>
      <point x="882" y="1492" type="line"/>
      <point x="184" y="1492" type="line"/>
    </contour>
  </outline>
</glyph>
<glyph name="ibreve" format="2">
  <advance width="1240"/>
  <unicode hex="012D"/>
  <outline>
    <contour>
      <point x="573" y="0" type="line"/>
      <point x="898" y="0" type="line"/>
      <point x="898" y="867" type="line"/>
      <point x="713" y="1082" type="line"/>
      <point x="157" y="1082" type="line"/>
      <point x="127" y="781" type="line"/>
      <point x="632" y="781" type="line"/>
      <point x="573" y="836" type="line"/>
    </contour>
    <contour>
      <point x="366" y="1267" type="line"/>
      <point x="700" y="1267" type="line"/>
      <point x="893" y="1450" type="line"/>
      <point x="893" y="1643" type="line"/>
      <point x="695" y="1643" type="line"/>
      <point x="695" y="1517" type="line"/>
      <point x="620" y="1440" type="line"/>
      <point x="446" y="1440" type="line"/>
      <point x="371" y="1517" type="line"/>
      <point x="371" y="1643" type="line"/>
      <point x="173" y="1643" type="line"/>
      <point x="173" y="1449" type="line"/>
    </contour>
  </outline>
</glyph>
<glyph name="Idotaccent" format="2">
  <advance width="1240"/>
  <unicode hex="0130"/>
  <outline>
    <contour>
      <point x="455" y="0" type="line"/>
      <point x="785" y="0" type="line"/>
      <point x="785" y="1460" type="line"/>
      <point x="455" y="1460" type="line"/>
    </contour>
    <contour>
      <point x="165" y="0" type="line"/>
      <point x="1075" y="0" type="line"/>
      <point x="1095" y="271" type="line"/>
      <point x="145" y="271" type="line"/>
    </contour>
    <contour>
      <point x="145" y="1189" type="line"/>
      <point x="1095" y="1189" type="line"/>
      <point x="1075" y="1460" type="line"/>
      <point x="165" y="1460" type="line"/>
    </contour>
    <contour>
      <point x="616" y="1618.8" type="line"/>
      <point x="790.4" y="1786.8" type="line"/>
      <point x="616" y="1954" type="line"/>
      <point x="440.8" y="1786.8" type="line"/>
    </contour>
  </outline>
</glyph>
<glyph name="idotless" format="2">
  <advance width="1240"/>
  <unicode hex="0131"/>
  <outline>
    <contour>
      <point x="573" y="0" type="line"/>
      <point x="898" y="0" type="line"/>
      <point x="898" y="867" type="line"/>
      <point x="713" y="1082" type="line"/>
      <point x="157" y="1082" type="line"/>
      <point x="127" y="781" type="line"/>
      <point x="632" y="781" type="line"/>
      <point x="573" y="836" type="line"/>
    </contour>
  </outline>
</glyph>
<glyph name="IJ" format="2">
  <advance width="1240"/>
  <unicode hex="0132"/>
  <outline>
    <contour>
      <point x="132" y="678" type="line"/>
      <point x="467" y="678" type="line"/>
      <point x="467" y="1460" type="line"/>
      <point x="132" y="1460" type="line"/>
    </contour>
    <contour>
      <point x="447" y="0" type="line"/>
      <point x="793" y="0" type="line"/>
      <point x="1108" y="229" type="line"/>
      <point x="1108" y="1460" type="line"/>
      <point x="773" y="1460" type="line"/>
      <point x="773" y="353" type="line"/>
      <point x="655" y="271" type="line"/>
      <point x="585" y="271" type="line"/>
      <point x="467" y="353" type="line"/>
      <point x="467" y="467" type="line"/>
      <point x="132" y="467" type="line"/>
      <point x="132" y="229" type="line"/>
    </contour>
    <contour>
      <point x="590" y="1184" type="line"/>
      <point x="961" y="1184" type="line"/>
      <point x="961" y="1460" type="line"/>
      <point x="620" y="1460" type="line"/>
    </contour>
  </outline>
</glyph>
<glyph name="Jcircumflex" format="2">
  <advance width="1240"/>
  <unicode hex="0134"/>
  <outline>
    <contour>
      <point x="466" y="0" type="line"/>
      <point x="751" y="0" type="line"/>
      <point x="1106" y="448" type="line"/>
      <point x="1106" y="1460" type="line"/>
      <point x="781" y="1460" type="line"/>
      <point x="781" y="562" type="line"/>
      <point x="568" y="242" type="line"/>
      <point x="649" y="242" type="line"/>
      <point x="416" y="562" type="line"/>
      <point x="416" y="738" type="line"/>
      <point x="91" y="738" type="line"/>
      <point x="91" y="448" type="line"/>
    </contour>
    <contour>
      <point x="257" y="1184" type="line"/>
      <point x="961" y="1184" type="line"/>
      <point x="961" y="1460" type="line"/>
      <point x="287" y="1460" type="line"/>
    </contour>
    <contour>
      <point x="199" y="1620" type="line"/>
      <point x="483" y="1620" type="line"/>
      <point x="644" y="1824" type="line"/>
      <point x="596" y="1824" type="line"/>
      <point x="757" y="1620" type="line"/>
      <point x="1041" y="1620" type="line"/>
      <point x="813" y="1878" type="line"/>
      <point x="427" y="1878" type="line"/>
    </contour>
  </outline>
</glyph>
<glyph name="kcommaaccent" format="2">
  <advance width="1240"/>
  <unicode hex="0137"/>
  <outline>
    <contour>
      <point x="795" y="0" type="line"/>
      <point x="1150" y="0" type="line"/>
      <point x="1150" y="215" type="line"/>
      <point x="785" y="620" type="line"/>
      <point x="785" y="570" type="line"/>
      <point x="1172" y="1082" type="line"/>
      <point x="832" y="1082" type="line"/>
      <point x="517" y="639" type="line"/>
      <point x="666" y="692" type="line"/>
      <point x="402" y="692" type="line"/>
      <point x="402" y="441" type="line"/>
      <point x="644" y="441" type="line"/>
      <point x="497" y="488" type="line"/>
      <point x="795" y="161" type="line"/>
    </contour>
    <contour>
      <point x="118" y="0" type="line"/>
      <point x="446" y="0" type="line"/>
      <point x="446" y="1530" type="line"/>
      <point x="118" y="1470" type="line"/>
    </contour>
    <contour>
      <point x="448" y="-494" type="line"/>
      <point x="689" y="-494" type="line"/>
      <point x="689" y="-418" type="line"/>
      <point x="448" y="-721" type="line"/>
      <point x="573" y="-786" type="line"/>
      <point x="791" y="-504" type="line"/>
      <point x="791" y="-151" type="line"/>
      <point x="448" y="-151" type="line"/>
    </contour>
  </outline>
</glyph>
<glyph name="lacute" format="2">
  <advance width="1240"/>
  <unicode hex="013A"/>
  <outline>
    <contour>
      <point x="649" y="-1" type="line"/>
      <point x="1102" y="-1" type="line"/>
      <point x="1132" y="300" type="line"/>
      <point x="819" y="300" type="line"/>
      <point x="699" y="432" type="line"/>
      <point x="699" y="1315" type="line"/>
      <point x="514" y="1530" type="line"/>
      <point x="78" y="1530" type="line"/>
      <point x="48" y="1229" type="line"/>
      <point x="433" y="1229" type="line"/>
      <point x="374" y="1284" type="line"/>
      <point x="374" y="318" type="line"/>
    </contour>
    <contour>
      <point x="674" y="1689.05" type="line"/>
      <point x="415" y="1689.05" type="line"/>
      <point x="598" y="1947.386" type="line"/>
      <point x="923" y="1947.386" type="line"/>
    </contour>
  </outline>
</glyph>
<glyph name="Lcommaaccent" format="2">
  <advance width="1240"/>
  <unicode hex="013B"/>
  <outline>
    <contour>
      <point x="173" y="0" type="line"/>
      <point x="502" y="0" type="line"/>
      <point x="502" y="1460" type="line"/>
      <point x="173" y="1460" type="line"/>
    </contour>
    <contour>
      <point x="333" y="0" type="line"/>
      <point x="1082" y="0" type="line"/>
      <point x="1112" y="271" type="line"/>
      <point x="333" y="271" type="line"/>
    </contour>
    <contour>
      <point x="448" y="-494" type="line"/>
      <point x="689" y="-494" type="line"/>
      <point x="689" y="-418" type="line"/>
      <point x="448" y="-721" type="line"/>
      <point x="573" y="-786" type="line"/>
      <point x="791" y="-504" type="line"/>
      <point x="791" y="-151" type="line"/>
      <point x="448" y="-151" type="line"/>
    </contour>
  </outline>
</glyph>
<glyph name="Lcaron" format="2">
  <advance width="1240"/>
  <unicode hex="013D"/>
  <outline>
    <contour>
      <point x="173" y="0" type="line"/>
      <point x="502" y="0" type="line"/>
      <point x="502" y="1460" type="line"/>
      <point x="173" y="1460" type="line"/>
    </contour>
    <contour>
      <point x="333" y="0" type="line"/>
      <point x="1082" y="0" type="line"/>
      <point x="1112" y="271" type="line"/>
      <point x="333" y="271" type="line"/>
    </contour>
    <contour>
      <point x="647" y="1242" type="line"/>
      <point x="894" y="1242" type="line"/>
      <point x="935" y="1638" type="line"/>
      <point x="664" y="1638" type="line"/>
    </contour>
  </outline>
</glyph>
<glyph name="ldot" format="2">
  <advance width="1240"/>
  <unicode hex="0140"/>
  <outline>
    <contour>
      <point x="649" y="-1" type="line"/>
      <point x="1102" y="-1" type="line"/>
      <point x="1132" y="300" type="line"/>
      <point x="819" y="300" type="line"/>
      <point x="699" y="432" type="line"/>
      <point x="699" y="1315" type="line"/>
      <point x="514" y="1530" type="line"/>
      <point x="78" y="1530" type="line"/>
      <point x="48" y="1229" type="line"/>
      <point x="433" y="1229" type="line"/>
      <point x="374" y="1284" type="line"/>
      <point x="374" y="318" type="line"/>
    </contour>
    <contour>
      <point x="1122" y="638" type="line"/>
      <point x="1340" y="848" type="line"/>
      <point x="1122" y="1057" type="line"/>
      <point x="903" y="848" type="line"/>
    </contour>
  </outline>
</glyph>
<glyph name="lslash" format="2">
  <advance width="1240"/>
  <unicode hex="0142"/>
  <outline>
    <contour>
      <point x="197" y="532" type="line"/>
      <point x="1043" y="944" type="line"/>
      <point x="1043" y="1223" type="line"/>
      <point x="197" y="811" type="line"/>
    </contour>
    <contour>
      <point x="649" y="-1" type="line"/>
      <point x="1102" y="-1" type="line"/>
      <point x="1132" y="300" type="line"/>
      <point x="819" y="300" type="line"/>
      <point x="699" y="432" type="line"/>
      <point x="699" y="1315" type="line"/>
      <point x="514" y="1530" type="line"/>
      <point x="78" y="1530" type="line"/>
      <point x="48" y="1229" type="line"/>
      <point x="433" y="1229" type="line"/>
      <point x="374" y="1284" type="line"/>
      <point x="374" y="318" type="line"/>
    </contour>
  </outline>
</glyph>
<glyph name="ncommaaccent" format="2">
  <advance width="1240"/>
  <unicode hex="0146"/>
  <outline>
    <contour>
      <point x="803" y="0" type="line"/>
      <point x="1128" y="0" type="line"/>
      <point x="1128" y="811" type="line"/>
      <point x="833" y="1106" type="line"/>
      <point x="256" y="928" type="line"/>
      <point x="256" y="747" type="line"/>
      <point x="709" y="823" type="line"/>
      <point x="803" y="740" type="line"/>
    </contour>
    <contour>
      <point x="112" y="0" type="line"/>
      <point x="437" y="0" type="line"/>
      <point x="437" y="917" type="line"/>
      <point x="357" y="1082" type="line"/>
      <point x="112" y="1082" type="line"/>
    </contour>
    <contour>
      <point x="448" y="-494" type="line"/>
      <point x="689" y="-494" type="line"/>
      <point x="689" y="-418" type="line"/>
      <point x="448" y="-721" type="line"/>
      <point x="573" y="-786" type="line"/>
      <point x="791" y="-504" type="line"/>
      <point x="791" y="-151" type="line"/>
      <point x="448" y="-151" type="line"/>
    </contour>
  </outline>
</glyph>
<glyph name="ncaron" format="2">
  <advance width="1240"/>
  <unicode hex="0148"/>
  <outline>
    <contour>
      <point x="803" y="0" type="line"/>
      <point x="1128" y="0" type="line"/>
      <point x="1128" y="811" type="line"/>
      <point x="833" y="1106" type="line"/>
      <point x="256" y="928" type="line"/>
      <point x="256" y="747" type="line"/>
      <point x="709" y="823" type="line"/>
      <point x="803" y="740" type="line"/>
    </contour>
    <contour>
      <point x="112" y="0" type="line"/>
      <point x="437" y="0" type="line"/>
      <point x="437" y="917" type="line"/>
      <point x="357" y="1082" type="line"/>
      <point x="112" y="1082" type="line"/>
    </contour>
    <contour>
      <point x="199" y="1643" type="line"/>
      <point x="473" y="1643" type="line"/>
      <point x="654" y="1327" type="line"/>
      <point x="586" y="1327" type="line"/>
      <point x="767" y="1643" type="line"/>
      <point x="1041" y="1643" type="line"/>
      <point x="813" y="1275" type="line"/>
      <point x="427" y="1275" type="line"/>
    </contour>
  </outline>
</glyph>
<glyph name="Eng" format="2">
  <advance width="1240"/>
  <unicode hex="014A"/>
  <outline>
    <contour>
      <point x="811" y="-76" type="line"/>
      <point x="1108" y="0" type="line"/>
      <point x="1108" y="1460" type="line"/>
      <point x="846" y="1460" type="line"/>
      <point x="846" y="511" type="line"/>
      <point x="834" y="511" type="line"/>
      <point x="461" y="1460" type="line"/>
      <point x="132" y="1460" type="line"/>
      <point x="132" y="0" type="line"/>
      <point x="394" y="0" type="line"/>
      <point x="394" y="934" type="line"/>
      <point x="406" y="934" type="line"/>
    </contour>
    <contour>
      <point x="910" y="-400" type="line"/>
      <point x="1108" y="-171" type="line"/>
      <point x="1108" y="40" type="line"/>
      <point x="780" y="40" type="line"/>
      <point x="780" y="-57" type="line"/>
      <point x="740" y="-99" type="line"/>
      <point x="604" y="-99" type="line"/>
      <point x="634" y="-400" type="line"/>
    </contour>
  </outline>
</glyph>
<glyph name="eng" format="2">
  <advance width="1240"/>
  <unicode hex="014B"/>
  <outline>
    <contour>
      <point x="1128" y="50" type="line"/>
      <point x="803" y="50" type="line"/>
      <point x="803" y="-57" type="line"/>
      <point x="763" y="-99" type="line"/>
      <point x="627" y="-99" type="line"/>
      <point x="657" y="-400" type="line"/>
      <point x="933" y="-400" type="line"/>
      <point x="1128" y="-171" type="line"/>
    </contour>
    <contour>
      <point x="803" y="0" type="line"/>
      <point x="1128" y="0" type="line"/>
      <point x="1128" y="811" type="line"/>
      <point x="833" y="1106" type="line"/>
      <point x="256" y="928" type="line"/>
      <point x="256" y="747" type="line"/>
      <point x="709" y="823" type="line"/>
      <point x="803" y="740" type="line"/>
    </contour>
    <contour>
      <point x="112" y="0" type="line"/>
      <point x="437" y="0" type="line"/>
      <point x="437" y="917" type="line"/>
      <point x="357" y="1082" type="line"/>
      <point x="112" y="1082" type="line"/>
    </contour>
  </outline>
</glyph>
<glyph name="Obreve" format="2">
  <advance width="1240"/>
  <unicode hex="014E"/>
  <outline>
    <contour>
      <point x="437" y="0" type="line"/>
      <point x="803" y="0" type="line"/>
      <point x="1168" y="528" type="line"/>
      <point x="1168" y="932" type="line"/>
      <point x="803" y="1460" type="line"/>
      <point x="437" y="1460" type="line"/>
      <point x="72" y="932" type="line"/>
      <point x="72" y="528" type="line"/>
    </contour>
    <contour>
      <point x="587" y="311" type="line"/>
      <point x="397" y="642" type="line"/>
      <point x="397" y="818" type="line"/>
      <point x="587" y="1149" type="line"/>
      <point x="653" y="1149" type="line"/>
      <point x="843" y="818" type="line"/>
      <point x="843" y="642" type="line"/>
      <point x="653" y="311" type="line"/>
    </contour>
    <contour>
      <point x="453" y="1600" type="line"/>
      <point x="787" y="1600" type="line"/>
      <point x="980" y="1753" type="line"/>
      <point x="980" y="1878" type="line"/>
      <point x="782" y="1878" type="line"/>
      <point x="782" y="1820" type="line"/>
      <point x="707" y="1763" type="line"/>
      <point x="533" y="1763" type="line"/>
      <point x="458" y="1820" type="line"/>
      <point x="458" y="1878" type="line"/>
      <point x="260" y="1878" type="line"/>
      <point x="260" y="1752" type="line"/>
    </contour>
  </outline>
</glyph>
<glyph name="Tcedilla" format="2">
  <advance width="1240"/>
  <unicode hex="0162"/>
  <outline>
    <contour>
      <point x="458" y="0" type="line"/>
      <point x="788" y="0" type="line"/>
      <point x="788" y="1460" type="line"/>
      <point x="458" y="1460" type="line"/>
    </contour>
    <contour>
      <point x="81" y="1189" type="line"/>
      <point x="1157" y="1189" type="line"/>
      <point x="1137" y="1460" type="line"/>
      <point x="101" y="1460" type="line"/>
    </contour>
    <contour>
      <point x="494" y="-637" type="line"/>
      <point x="688" y="-637" type="line"/>
      <point x="870" y="-474" type="line"/>
      <point x="870" y="-280" type="line"/>
      <point x="695" y="-140" type="line"/>
      <point x="675" y="-140" type="line"/>
      <point x="714" y="-200" type="line"/>
      <point x="714" y="48" type="line"/>
      <point x="534" y="48" type="line"/>
      <point x="534" y="-305" type="line"/>
      <point x="620" y="-305" type="line"/>
      <point x="697" y="-360" type="line"/>
      <point x="697" y="-394" type="line"/>
      <point x="620" y="-449" type="line"/>
      <point x="494" y="-449" type="line"/>
    </contour>
  </outline>
</glyph>
<glyph name="tcedilla" format="2">
  <advance width="1240"/>
  <unicode hex="0163"/>
  <outline>
    <contour>
      <point x="566" y="-1" type="line"/>
      <point x="1098" y="-1" type="line"/>
      <point x="1098" y="280" type="line"/>
      <point x="736" y="280" type="line"/>
      <point x="616" y="432" type="line"/>
      <point x="616" y="1341" type="line"/>
      <point x="291" y="1281" type="line"/>
      <point x="291" y="318" type="line"/>
    </contour>
    <contour>
      <point x="68" y="695" type="line"/>
      <point x="1098" y="695" type="line"/>
      <point x="1098" y="953" type="line"/>
      <point x="68" y="953" type="line"/>
    </contour>
    <contour>
      <point x="568" y="-637" type="line"/>
      <point x="762" y="-637" type="line"/>
      <point x="944" y="-474" type="line"/>
      <point x="944" y="-280" type="line"/>
      <point x="769" y="-140" type="line"/>
      <point x="749" y="-140" type="line"/>
      <point x="788" y="-200" type="line"/>
      <point x="788" y="48" type="line"/>
      <point x="608" y="48" type="line"/>
      <point x="608" y="-305" type="line"/>
      <point x="694" y="-305" type="line"/>
      <point x="771" y="-360" type="line"/>
      <point x="771" y="-394" type="line"/>
      <point x="694" y="-449" type="line"/>
      <point x="568" y="-449" type="line"/>
    </contour>
  </outline>
</glyph>
<glyph name="Tcaron" format="2">
  <advance width="1240"/>
  <unicode hex="0164"/>
  <outline>
    <contour>
      <point x="458" y="0" type="line"/>
      <point x="788" y="0" type="line"/>
      <point x="788" y="1460" type="line"/>
      <point x="458" y="1460" type="line"/>
    </contour>
    <contour>
      <point x="81" y="1189" type="line"/>
      <point x="1157" y="1189" type="line"/>
      <point x="1137" y="1460" type="line"/>
      <point x="101" y="1460" type="line"/>
    </contour>
    <contour>
      <point x="199" y="1878" type="line"/>
      <point x="483" y="1878" type="line"/>
      <point x="644" y="1674" type="line"/>
      <point x="596" y="1674" type="line"/>
      <point x="757" y="1878" type="line"/>
      <point x="1041" y="1878" type="line"/>
      <point x="813" y="1620" type="line"/>
      <point x="427" y="1620" type="line"/>
    </contour>
  </outline>
</glyph>
<glyph name="tcaron" format="2">
  <advance width="1240"/>
  <unicode hex="0165"/>
  <outline>
    <contour>
      <point x="566" y="-1" type="line"/>
      <point x="1098" y="-1" type="line"/>
      <point x="1098" y="280" type="line"/>
      <point x="736" y="280" type="line"/>
      <point x="616" y="432" type="line"/>
      <point x="616" y="1341" type="line"/>
      <point x="291" y="1281" type="line"/>
      <point x="291" y="318" type="line"/>
    </contour>
    <contour>
      <point x="68" y="695" type="line"/>
      <point x="1098" y="695" type="line"/>
      <point x="1098" y="953" type="line"/>
      <point x="68" y="953" type="line"/>
    </contour>
    <contour>
      <point x="941" y="1242" type="line"/>
      <point x="1188" y="1242" type="line"/>
      <point x="1229" y="1638" type="line"/>
      <point x="958" y="1638" type="line"/>
    </contour>
  </outline>
</glyph>
<glyph name="tbar" format="2">
  <advance width="1240"/>
  <unicode hex="0167"/>
  <outline>
    <contour>
      <point x="98" y="525" type="line"/>
      <point x="1098" y="525" type="line"/>
      <point x="1098" y="726" type="line"/>
      <point x="464" y="726" type="line"/>
      <point x="435" y="726" type="line"/>
      <point x="98" y="726" type="line"/>
    </contour>
    <contour>
      <point x="98" y="914" type="line"/>
      <point x="1098" y="914" type="line"/>
      <point x="1098" y="1115" type="line"/>
      <point x="464" y="1115" type="line"/>
      <point x="435" y="1115" type="line"/>
      <point x="98" y="1115" type="line"/>
    </contour>
    <contour>
      <point x="566" y="-1" type="line"/>
      <point x="1098" y="-1" type="line"/>
      <point x="1098" y="280" type="line"/>
      <point x="736" y="280" type="line"/>
      <point x="616" y="432" type="line"/>
      <point x="616" y="1341" type="line"/>
      <point x="291" y="1281" type="line"/>
      <point x="291" y="318" type="line"/>
    </contour>
  </outline>
</glyph>
<glyph name="utilde" format="2">
  <advance width="1240"/>
  <unicode hex="0169"/>
  <outline>
    <contour>
      <point x="437" y="1082" type="line"/>
      <point x="112" y="1082" type="line"/>
      <point x="112" y="271" type="line"/>
      <point x="407" y="-24" type="line"/>
      <point x="984" y="154" type="line"/>
      <point x="984" y="335" type="line"/>
      <point x="531" y="259" type="line"/>
      <point x="437" y="342" type="line"/>
    </contour>
    <contour>
      <point x="1128" y="1082" type="line"/>
      <point x="803" y="1082" type="line"/>
      <point x="803" y="165" type="line"/>
      <point x="883" y="0" type="line"/>
      <point x="1128" y="0" type="line"/>
    </contour>
    <contour>
      <point x="596" y="1613" type="line"/>
      <point x="308" y="1613" type="line"/>
      <point x="155" y="1430" type="line"/>
      <point x="155" y="1257" type="line"/>
      <point x="358" y="1257" type="line"/>
      <point x="358" y="1358" type="line"/>
      <point x="418" y="1450" type="line"/>
      <point x="486" y="1450" type="line"/>
      <point x="626" y="1257" type="line"/>
      <point x="914" y="1257" type="line"/>
      <point x="1067" y="1440" type="line"/>
      <point x="1067" y="1613" type="line"/>
      <point x="864" y="1613" type="line"/>
      <point x="864" y="1502" type="line"/>
      <point x="804" y="1420" type="line"/>
      <point x="736" y="1420" type="line"/>
    </contour>
  </outline>
</glyph>
<glyph name="Ubreve" format="2">
  <advance width="1240"/>
  <unicode hex="016C"/>
  <outline>
    <contour>
      <point x="327" y="0" type="line"/>
      <point x="913" y="0" type="line"/>
      <point x="1108" y="249" type="line"/>
      <point x="1108" y="1460" type="line"/>
      <point x="773" y="1460" type="line"/>
      <point x="773" y="353" type="line"/>
      <point x="715" y="271" type="line"/>
      <point x="525" y="271" type="line"/>
      <point x="467" y="353" type="line"/>
      <point x="467" y="1460" type="line"/>
      <point x="132" y="1460" type="line"/>
      <point x="132" y="249" type="line"/>
    </contour>
    <contour>
      <point x="453" y="1600" type="line"/>
      <point x="787" y="1600" type="line"/>
      <point x="980" y="1753" type="line"/>
      <point x="980" y="1878" type="line"/>
      <point x="782" y="1878" type="line"/>
      <point x="782" y="1820" type="line"/>
      <point x="707" y="1763" type="line"/>
      <point x="533" y="1763" type="line"/>
      <point x="458" y="1820" type="line"/>
      <point x="458" y="1878" type="line"/>
      <point x="260" y="1878" type="line"/>
      <point x="260" y="1752" type="line"/>
    </contour>
  </outline>
</glyph>
<glyph name="Uhungarumlaut" format="2">
  <advance width="1240"/>
  <unicode hex="0170"/>
  <outline>
    <contour>
      <point x="327" y="0" type="line"/>
      <point x="913" y="0" type="line"/>
      <point x="1108" y="249" type="line"/>
      <point x="1108" y="1460" type="line"/>
      <point x="773" y="1460" type="line"/>
      <point x="773" y="353" type="line"/>
      <point x="715" y="271" type="line"/>
      <point x="525" y="271" type="line"/>
      <point x="467" y="353" type="line"/>
      <point x="467" y="1460" type="line"/>
      <point x="132" y="1460" type="line"/>
      <point x="132" y="249" type="line"/>
    </contour>
    <contour>
      <point x="727" y="1619.05" type="line"/>
      <point x="932" y="1619.05" type="line"/>
      <point x="1098" y="1877.386" type="line"/>
      <point x="853" y="1877.386" type="line"/>
    </contour>
    <contour>
      <point x="305" y="1619.05" type="line"/>
      <point x="511" y="1619.05" type="line"/>
      <point x="676" y="1877.386" type="line"/>
      <point x="432" y="1877.386" type="line"/>
    </contour>
  </outline>
</glyph>
<glyph name="Uogonek" format="2">
  <advance width="1240"/>
  <unicode hex="0172"/>
  <outline>
    <contour>
      <point x="327" y="0" type="line"/>
      <point x="913" y="0" type="line"/>
      <point x="1108" y="249" type="line"/>
      <point x="1108" y="1460" type="line"/>
      <point x="773" y="1460" type="line"/>
      <point x="773" y="353" type="line"/>
      <point x="715" y="271" type="line"/>
      <point x="525" y="271" type="line"/>
      <point x="467" y="353" type="line"/>
      <point x="467" y="1460" type="line"/>
      <point x="132" y="1460" type="line"/>
      <point x="132" y="249" type="line"/>
    </contour>
    <contour>
      <point x="428" y="-133" type="line"/>
      <point x="428" y="-320" type="line"/>
      <point x="631" y="-443" type="line"/>
      <point x="795" y="-443" type="line"/>
      <point x="795" y="-240" type="line"/>
      <point x="703" y="-240" type="line"/>
      <point x="651" y="-210" type="line"/>
      <point x="651" y="-173" type="line"/>
      <point x="814" y="0" type="line"/>
      <point x="697" y="44" type="line"/>
    </contour>
  </outline>
</glyph>
<glyph name="uogonek" format="2">
  <advance width="1240"/>
  <unicode hex="0173"/>
  <outline>
    <contour>
      <point x="437" y="1082" type="line"/>
      <point x="112" y="1082" type="line"/>
      <point x="112" y="271" type="line"/>
      <point x="407" y="-24" type="line"/>
      <point x="984" y="154" type="line"/>
      <point x="984" y="335" type="line"/>
      <point x="531" y="259" type="line"/>
      <point x="437" y="342" type="line"/>
    </contour>
    <contour>
      <point x="1128" y="1082" type="line"/>
      <point x="803" y="1082" type="line"/>
      <point x="803" y="165" type="line"/>
      <point x="883" y="0" type="line"/>
      <point x="1128" y="0" type="line"/>
    </contour>
    <contour>
      <point x="742" y="-133" type="line"/>
      <point x="742" y="-320" type="line"/>
      <point x="945" y="-443" type="line"/>
      <point x="1109" y="-443" type="line"/>
      <point x="1109" y="-240" type="line"/>
      <point x="1017" y="-240" type="line"/>
      <point x="965" y="-210" type="line"/>
      <point x="965" y="-173" type="line"/>
      <point x="1128" y="0" type="line"/>
      <point x="1011" y="44" type="line"/>
    </contour>
  </outline>
</glyph>
<glyph name="Zacute" format="2">
  <advance width="1240"/>
  <unicode hex="0179"/>
  <outline>
    <contour>
      <point x="160" y="0" type="line"/>
      <point x="1094" y="0" type="line"/>
      <point x="1154" y="266" type="line"/>
      <point x="370" y="266" type="line"/>
      <point x="425" y="160" type="line"/>
      <point x="1098" y="1245" type="line"/>
      <point x="1037" y="1460" type="line"/>
      <point x="165" y="1460" type="line"/>
      <point x="105" y="1196" type="line"/>
      <point x="855" y="1196" type="line"/>
      <point x="766" y="1291" type="line"/>
      <point x="100" y="226" type="line"/>
    </contour>
    <contour>
      <point x="754" y="1619.05" type="line"/>
      <point x="495" y="1619.05" type="line"/>
      <point x="678" y="1877.386" type="line"/>
      <point x="1003" y="1877.386" type="line"/>
    </contour>
  </outline>
</glyph>
<glyph name="Schwa" format="2">
  <advance width="1240"/>
  <unicode hex="018F"/>
  <outline>
    <contour>
      <point x="306" y="0" type="line"/>
      <point x="787" y="0" type="line"/>
      <point x="1152" y="528" type="line"/>
      <point x="1152" y="932" type="line"/>
      <point x="807" y="1460" type="line"/>
      <point x="172" y="1460" type="line"/>
      <point x="142" y="1159" type="line"/>
      <point x="637" y="1159" type="line"/>
      <point x="827" y="818" type="line"/>
      <point x="827" y="642" type="line"/>
      <point x="617" y="301" type="line"/>
      <point x="434" y="301" type="line"/>
      <point x="342" y="404" type="line"/>
      <point x="342" y="571" type="line"/>
      <point x="434" y="672" type="line"/>
      <point x="948" y="672" type="line"/>
      <point x="948" y="909" type="line"/>
      <point x="306" y="909" type="line"/>
      <point x="72" y="641" type="line"/>
      <point x="72" y="267" type="line"/>
    </contour>
  </outline>
</glyph>
<glyph name="Nhookleft" format="2">
  <advance width="1240"/>
  <unicode hex="019D"/>
  <outline>
    <contour>
      <point x="439" y="50" type="line"/>
      <point x="132" y="50" type="line"/>
      <point x="132" y="-57" type="line"/>
      <point x="92" y="-99" type="line"/>
      <point x="-44" y="-99" type="line"/>
      <point x="-14" y="-400" type="line"/>
      <point x="262" y="-400" type="line"/>
      <point x="439" y="-171" type="line"/>
    </contour>
    <contour>
      <point x="132" y="0" type="line"/>
      <point x="439" y="0" type="line"/>
      <point x="439" y="774" type="line"/>
      <point x="451" y="774" type="line"/>
      <point x="907" y="0" type="line"/>
      <point x="1108" y="0" type="line"/>
      <point x="1108" y="1460" type="line"/>
      <point x="801" y="1460" type="line"/>
      <point x="801" y="671" type="line"/>
      <point x="789" y="671" type="line"/>
      <point x="335" y="1460" type="line"/>
      <point x="132" y="1460" type="line"/>
    </contour>
  </outline>
</glyph>
<glyph name="aeacute" format="2">
  <advance width="1240"/>
  <unicode hex="01FD"/>
  <outline>
    <contour>
      <point x="553" y="1082" type="line"/>
      <point x="148" y="1082" type="line"/>
      <point x="118" y="859" type="line"/>
      <point x="436" y="859" type="line"/>
      <point x="492" y="764" type="line"/>
      <point x="492" y="693" type="line"/>
      <point x="710" y="693" type="line"/>
      <point x="710" y="833" type="line"/>
    </contour>
    <contour>
      <point x="280" y="643" type="line"/>
      <point x="55" y="477" type="line"/>
      <point x="55" y="193" type="line"/>
      <point x="300" y="-10" type="line"/>
      <point x="560" y="122" type="line"/>
      <point x="675" y="122" type="line"/>
      <point x="675" y="297" type="line"/>
      <point x="590" y="297" type="line"/>
      <point x="384" y="211" type="line"/>
      <point x="280" y="294" type="line"/>
      <point x="280" y="393" type="line"/>
      <point x="370" y="453" type="line"/>
      <point x="589" y="453" type="line"/>
      <point x="589" y="643" type="line"/>
    </contour>
    <contour>
      <point x="751" y="1082" type="line"/>
      <point x="492" y="722" type="line"/>
      <point x="492" y="218" type="line"/>
      <point x="771" y="0" type="line"/>
      <point x="1114" y="0" type="line"/>
      <point x="1144" y="221" type="line"/>
      <point x="861" y="221" type="line"/>
      <point x="711" y="343" type="line"/>
      <point x="711" y="659" type="line"/>
      <point x="841" y="851" type="line"/>
      <point x="939" y="851" type="line"/>
      <point x="985" y="813" type="line"/>
      <point x="985" y="697" type="line"/>
      <point x="935" y="643" type="line"/>
      <point x="671" y="643" type="line"/>
      <point x="671" y="453" type="line"/>
      <point x="1075" y="453" type="line"/>
      <point x="1185" y="569" type="line"/>
      <point x="1185" y="921" type="line"/>
      <point x="1001" y="1082" type="line"/>
    </contour>
    <contour>
      <point x="754" y="1275" type="line"/>
      <point x="495" y="1275" type="line"/>
      <point x="678" y="1643" type="line"/>
      <point x="1003" y="1643" type="line"/>
    </contour>
  </outline>
</glyph>
<glyph name="oslashacute" format="2">
  <advance width="1240"/>
  <unicode hex="01FF"/>
  <outline>
    <contour>
      <point x="390" y="155" type="line"/>
      <point x="966" y="842" type="line"/>
      <point x="847" y="935" type="line"/>
      <point x="261" y="236" type="line"/>
    </contour>
    <contour>
      <point x="160" y="-165" type="line"/>
      <point x="449" y="179" type="line"/>
      <point x="285" y="309" type="line"/>
      <point x="-7" y="-37" type="line"/>
    </contour>
    <contour>
      <point x="948" y="766" type="line"/>
      <point x="1241" y="1114" type="line"/>
      <point x="1069" y="1246" type="line"/>
      <point x="787" y="912" type="line"/>
    </contour>
    <contour>
      <point x="415" y="0" type="line"/>
      <point x="825" y="0" type="line"/>
      <point x="1140" y="369" type="line"/>
      <point x="1140" y="713" type="line"/>
      <point x="825" y="1082" type="line"/>
      <point x="415" y="1082" type="line"/>
      <point x="100" y="713" type="line"/>
      <point x="100" y="369" type="line"/>
    </contour>
    <contour>
      <point x="545" y="281" type="line"/>
      <point x="405" y="453" type="line"/>
      <point x="405" y="629" type="line"/>
      <point x="545" y="801" type="line"/>
      <point x="695" y="801" type="line"/>
      <point x="835" y="629" type="line"/>
      <point x="835" y="453" type="line"/>
      <point x="695" y="281" type="line"/>
    </contour>
    <contour>
      <point x="754" y="1275" type="line"/>
      <point x="495" y="1275" type="line"/>
      <point x="678" y="1643" type="line"/>
      <point x="1003" y="1643" type="line"/>
    </contour>
  </outline>
</glyph>
<glyph name="Tcommaaccent" format="2">
  <advance width="1240"/>
  <unicode hex="021A"/>
  <outline>
    <contour>
      <point x="458" y="0" type="line"/>
      <point x="788" y="0" type="line"/>
      <point x="788" y="1460" type="line"/>
      <point x="458" y="1460" type="line"/>
    </contour>
    <contour>
      <point x="81" y="1189" type="line"/>
      <point x="1157" y="1189" type="line"/>
      <point x="1137" y="1460" type="line"/>
      <point x="101" y="1460" type="line"/>
    </contour>
    <contour>
      <point x="454" y="-494" type="line"/>
      <point x="695" y="-494" type="line"/>
      <point x="695" y="-418" type="line"/>
      <point x="454" y="-721" type="line"/>
      <point x="579" y="-786" type="line"/>
      <point x="797" y="-504" type="line"/>
      <point x="797" y="-151" type="line"/>
      <point x="454" y="-151" type="line"/>
    </contour>
  </outline>
</glyph>
<glyph name="schwa" format="2">
  <advance width="1240"/>
  <unicode hex="0259"/>
  <outline>
    <contour>
      <point x="795" y="1082" type="line"/>
      <point x="187" y="1082" type="line"/>
      <point x="157" y="831" type="line"/>
      <point x="635" y="831" type="line"/>
      <point x="805" y="659" type="line"/>
      <point x="805" y="443" type="line"/>
      <point x="645" y="231" type="line"/>
      <point x="437" y="231" type="line"/>
      <point x="381" y="289" type="line"/>
      <point x="381" y="375" type="line"/>
      <point x="431" y="435" type="line"/>
      <point x="875" y="435" type="line"/>
      <point x="875" y="625" type="line"/>
      <point x="226" y="625" type="line"/>
      <point x="116" y="513" type="line"/>
      <point x="116" y="231" type="line"/>
      <point x="325" y="0" type="line"/>
      <point x="795" y="0" type="line"/>
      <point x="1110" y="369" type="line"/>
      <point x="1110" y="713" type="line"/>
    </contour>
  </outline>
</glyph>
<glyph name="dotaccent" format="2">
  <advance width="1240"/>
  <unicode hex="02D9"/>
  <outline>
    <contour>
      <point x="620" y="1231" type="line"/>
      <point x="838" y="1441" type="line"/>
      <point x="620" y="1650" type="line"/>
      <point x="401" y="1441" type="line"/>
    </contour>
  </outline>
</glyph>
<glyph name="ogonek" format="2">
  <advance width="1240"/>
  <unicode hex="02DB"/>
  <outline>
    <contour>
      <point x="234" y="-133" type="line"/>
      <point x="234" y="-320" type="line"/>
      <point x="437" y="-443" type="line"/>
      <point x="601" y="-443" type="line"/>
      <point x="601" y="-240" type="line"/>
      <point x="509" y="-240" type="line"/>
      <point x="457" y="-210" type="line"/>
      <point x="457" y="-173" type="line"/>
      <point x="620" y="0" type="line"/>
      <point x="503" y="44" type="line"/>
    </contour>
  </outline>
</glyph>
<glyph name="hungarumlaut" format="2">
  <advance width="1240"/>
  <unicode hex="02DD"/>
  <outline>
    <contour>
      <point x="727" y="1275" type="line"/>
      <point x="932" y="1275" type="line"/>
      <point x="1098" y="1643" type="line"/>
      <point x="853" y="1643" type="line"/>
    </contour>
    <contour>
      <point x="305" y="1275" type="line"/>
      <point x="511" y="1275" type="line"/>
      <point x="676" y="1643" type="line"/>
      <point x="432" y="1643" type="line"/>
    </contour>
  </outline>
</glyph>
<glyph name="acutecomb" format="2">
  <unicode hex="0301"/>
  <outline>
    <contour>
      <point x="754" y="1275" type="line"/>
      <point x="495" y="1275" type="line"/>
      <point x="678" y="1643" type="line"/>
      <point x="1003" y="1643" type="line"/>
    </contour>
  </outline>
</glyph>
<glyph name="brevecomb" format="2">
  <unicode hex="0306"/>
  <outline>
    <contour>
      <point x="453" y="1267" type="line"/>
      <point x="787" y="1267" type="line"/>
      <point x="980" y="1450" type="line"/>
      <point x="980" y="1643" type="line"/>
      <point x="782" y="1643" type="line"/>
      <point x="782" y="1517" type="line"/>
      <point x="707" y="1440" type="line"/>
      <point x="533" y="1440" type="line"/>
      <point x="458" y="1517" type="line"/>
      <point x="458" y="1643" type="line"/>
      <point x="260" y="1643" type="line"/>
      <point x="260" y="1449" type="line"/>
    </contour>
  </outline>
</glyph>
<glyph name="dotaccentcomb" format="2">
  <unicode hex="0307"/>
  <outline>
    <contour>
      <point x="620" y="1231" type="line"/>
      <point x="838" y="1441" type="line"/>
      <point x="620" y="1650" type="line"/>
      <point x="401" y="1441" type="line"/>
    </contour>
  </outline>
</glyph>
<glyph name="dieresiscomb" format="2">
  <unicode hex="0308"/>
  <outline>
    <contour>
      <point x="339.46" y="1227.184" type="line"/>
      <point x="531.954" y="1436.533" type="line"/>
      <point x="339.46" y="1644.885" type="line"/>
      <point x="146.083" y="1436.533" type="line"/>
    </contour>
    <contour>
      <point x="900.46" y="1227.184" type="line"/>
      <point x="1092.954" y="1436.533" type="line"/>
      <point x="900.46" y="1644.885" type="line"/>
      <point x="707.083" y="1436.533" type="line"/>
    </contour>
  </outline>
</glyph>
<glyph name="hungarumlautcomb" format="2">
  <unicode hex="030B"/>
  <outline>
    <contour>
      <point x="727" y="1275" type="line"/>
      <point x="932" y="1275" type="line"/>
      <point x="1098" y="1643" type="line"/>
      <point x="853" y="1643" type="line"/>
    </contour>
    <contour>
      <point x="305" y="1275" type="line"/>
      <point x="511" y="1275" type="line"/>
      <point x="676" y="1643" type="line"/>
      <point x="432" y="1643" type="line"/>
    </contour>
  </outline>
</glyph>
<glyph name="caroncomb" format="2">
  <unicode hex="030C"/>
  <outline>
    <contour>
      <point x="199" y="1643" type="line"/>
      <point x="473" y="1643" type="line"/>
      <point x="654" y="1327" type="line"/>
      <point x="586" y="1327" type="line"/>
      <point x="767" y="1643" type="line"/>
      <point x="1041" y="1643" type="line"/>
      <point x="813" y="1275" type="line"/>
      <point x="427" y="1275" type="line"/>
    </contour>
  </outline>
</glyph>
<glyph name="dotbelowcomb" format="2">
  <unicode hex="0323"/>
  <outline>
    <contour>
      <point x="620" y="-528" type="line"/>
      <point x="838" y="-318" type="line"/>
      <point x="620" y="-109" type="line"/>
      <point x="401" y="-318" type="line"/>
    </contour>
  </outline>
</glyph>
<glyph name="commaaccentcomb" format="2">
  <unicode hex="0326"/>
  <outline>
    <contour>
      <point x="448" y="-494" type="line"/>
      <point x="689" y="-494" type="line"/>
      <point x="689" y="-418" type="line"/>
      <point x="448" y="-721" type="line"/>
      <point x="573" y="-786" type="line"/>
      <point x="791" y="-504" type="line"/>
      <point x="791" y="-151" type="line"/>
      <point x="448" y="-151" type="line"/>
    </contour>
  </outline>
</glyph>
<glyph name="Idotbelow" format="2">
  <advance width="1240"/>
  <unicode hex="1ECA"/>
  <outline>
    <contour>
      <point x="455" y="0" type="line"/>
      <point x="785" y="0" type="line"/>
      <point x="785" y="1460" type="line"/>
      <point x="455" y="1460" type="line"/>
    </contour>
    <contour>
      <point x="165" y="0" type="line"/>
      <point x="1075" y="0" type="line"/>
      <point x="1095" y="271" type="line"/>
      <point x="145" y="271" type="line"/>
    </contour>
    <contour>
      <point x="145" y="1189" type="line"/>
      <point x="1095" y="1189" type="line"/>
      <point x="1075" y="1460" type="line"/>
      <point x="165" y="1460" type="line"/>
    </contour>
    <contour>
      <point x="620" y="-528" type="line"/>
      <point x="838" y="-318" type="line"/>
      <point x="620" y="-109" type="line"/>
      <point x="401" y="-318" type="line"/>
    </contour>
  </outline>
</glyph>
<glyph name="idotbelow" format="2">
  <advance width="1240"/>
  <unicode hex="1ECB"/>
  <outline>
    <contour>
      <point x="573" y="0" type="line"/>
      <point x="898" y="0" type="line"/>
      <point x="898" y="867" type="line"/>
      <point x="713" y="1082" type="line"/>
      <point x="157" y="1082" type="line"/>
      <point x="127" y="781" type="line"/>
      <point x="632" y="781" type="line"/>
      <point x="573" y="836" type="line"/>
    </contour>
    <contour>
      <point x="693" y="1231" type="line"/>
      <point x="911" y="1441" type="line"/>
      <point x="693" y="1650" type="line"/>
      <point x="474" y="1441" type="line"/>
    </contour>
    <contour>
      <point x="738" y="-528" type="line"/>
      <point x="956" y="-318" type="line"/>
      <point x="738" y="-109" type="line"/>
      <point x="519" y="-318" type="line"/>
    </contour>
  </outline>
</glyph>
<glyph name="odotbelow" format="2">
  <advance width="1240"/>
  <unicode hex="1ECD"/>
  <outline>
    <contour>
      <point x="415" y="0" type="line"/>
      <point x="825" y="0" type="line"/>
      <point x="1140" y="369" type="line"/>
      <point x="1140" y="713" type="line"/>
      <point x="825" y="1082" type="line"/>
      <point x="415" y="1082" type="line"/>
      <point x="100" y="713" type="line"/>
      <point x="100" y="369" type="line"/>
    </contour>
    <contour>
      <point x="545" y="281" type="line"/>
      <point x="405" y="453" type="line"/>
      <point x="405" y="629" type="line"/>
      <point x="545" y="801" type="line"/>
      <point x="695" y="801" type="line"/>
      <point x="835" y="629" type="line"/>
      <point x="835" y="453" type="line"/>
      <point x="695" y="281" type="line"/>
    </contour>
    <contour>
      <point x="620" y="-528" type="line"/>
      <point x="838" y="-318" type="line"/>
      <point x="620" y="-109" type="line"/>
      <point x="401" y="-318" type="line"/>
    </contour>
  </outline>
</glyph>
<glyph name="ygrave" format="2">
  <advance width="1240"/>
  <unicode hex="1EF3"/>
  <outline>
    <contour>
      <point x="278" y="-400" type="line"/>
      <point x="853" y="-400" type="line"/>
      <point x="1128" y="-81" type="line"/>
      <point x="1128" y="1082" type="line"/>
      <point x="803" y="1082" type="line"/>
      <point x="803" y="365" type="line"/>
      <point x="803" y="318" type="line"/>
      <point x="803" y="23" type="line"/>
      <point x="678" y="-109" type="line"/>
      <point x="228" y="-109" type="line"/>
    </contour>
    <contour>
      <point x="407" y="117" type="line"/>
      <point x="984" y="295" type="line"/>
      <point x="984" y="476" type="line"/>
      <point x="531" y="400" type="line"/>
      <point x="437" y="483" type="line"/>
      <point x="437" y="1082" type="line"/>
      <point x="112" y="1082" type="line"/>
      <point x="112" y="412" type="line"/>
    </contour>
    <contour>
      <point x="486" y="1275" type="line"/>
      <point x="745" y="1275" type="line"/>
      <point x="562" y="1643" type="line"/>
      <point x="237" y="1643" type="line"/>
    </contour>
  </outline>
</glyph>
<glyph name="quotedblleft" format="2">
  <advance width="1240"/>
  <unicode hex="201C"/>
  <outline>
    <contour>
      <point x="326" y="1044" type="curve" smooth="yes"/>
      <point x="276" y="1044"/>
      <point x="233" y="1032"/>
      <point x="193" y="1009" type="curve"/>
      <point x="269" y="933" type="line"/>
      <point x="273" y="1104"/>
      <point x="407" y="1247"/>
      <point x="608" y="1379" type="curve"/>
      <point x="461" y="1494" type="line"/>
      <point x="252" y="1369"/>
      <point x="60" y="1171"/>
      <point x="60" y="896" type="curve" smooth="yes"/>
      <point x="60" y="683"/>
      <point x="175" y="584"/>
      <point x="324" y="584" type="curve" smooth="yes"/>
      <point x="464" y="584"/>
      <point x="566" y="672"/>
      <point x="566" y="813" type="curve" smooth="yes"/>
      <point x="566" y="956"/>
      <point x="461" y="1044"/>
    </contour>
    <contour>
      <point x="918" y="1044" type="curve" smooth="yes"/>
      <point x="868" y="1044"/>
      <point x="825" y="1032"/>
      <point x="785" y="1009" type="curve"/>
      <point x="861" y="933" type="line"/>
      <point x="865" y="1104"/>
      <point x="999" y="1247"/>
      <point x="1200" y="1379" type="curve"/>
      <point x="1053" y="1494" type="line"/>
      <point x="844" y="1369"/>
      <point x="652" y="1171"/>
      <point x="652" y="896" type="curve" smooth="yes"/>
      <point x="652" y="683"/>
      <point x="767" y="584"/>
      <point x="916" y="584" type="curve" smooth="yes"/>
      <point x="1056" y="584"/>
      <point x="1158" y="672"/>
      <point x="1158" y="813" type="curve" smooth="yes"/>
      <point x="1158" y="956"/>
      <point x="1053" y="1044"/>
    </contour>
  </outline>
</glyph>
<glyph name="dagger" format="2">
  <advance width="1240"/>
  <unicode hex="2020"/>
  <outline>
    <contour>
      <point x="785" y="-220" type="line"/>
      <point x="785" y="1460" type="line"/>
      <point x="455" y="1460" type="line"/>
      <point x="455" y="-220" type="line"/>
    </contour>
    <contour>
      <point x="126" y="809" type="line"/>
      <point x="1112" y="809" type="line"/>
      <point x="1112" y="1080" type="line"/>
      <point x="126" y="1080" type="line"/>
    </contour>
  </outline>
</glyph>
<glyph name="triangularbullet" format="2">
  <advance width="1240"/>
  <unicode hex="2023"/>
  <outline>
    <contour>
      <point x="307" y="1069" type="line"/>
      <point x="307" y="276" type="line"/>
      <point x="1001" y="673" type="line"/>
    </contour>
  </outline>
</glyph>
<glyph name="guilsinglleft" format="2">
  <advance width="1240"/>
  <unicode hex="2039"/>
  <outline>
    <contour>
      <point x="940" y="126" type="line"/>
      <point x="544" y="694" type="line"/>
      <point x="280" y="539" type="line"/>
      <point x="656" y="-24" type="line"/>
    </contour>
    <contour>
      <point x="657" y="1106" type="line"/>
      <point x="280" y="539" type="line"/>
      <point x="546" y="406" type="line"/>
      <point x="940" y="958" type="line"/>
    </contour>
  </outline>
</glyph>
<glyph name="sevensuperior" format="2">
  <advance width="1240"/>
  <unicode hex="2077"/>
  <outline>
    <contour>
      <point x="374" y="1655" type="line"/>
      <point x="374" y="1524" type="line"/>
      <point x="771" y="1524" type="line"/>
      <point x="705" y="1569" type="line"/>
      <point x="485" y="1100" type="line"/>
      <point x="648" y="1100" type="line"/>
      <point x="868" y="1572" type="line"/>
      <point x="868" y="1655" type="line"/>
    </contour>
  </outline>
</glyph>
<glyph name="ninesuperior" format="2">
  <advance width="1240"/>
  <unicode hex="2079"/>
  <outline>
    <contour>
      <point x="601" y="1091" type="curve" smooth="yes"/>
      <point x="778" y="1091"/>
      <point x="888" y="1170"/>
      <point x="888" y="1378" type="curve" smooth="yes"/>
      <point x="888" y="1586"/>
      <point x="768" y="1663"/>
      <point x="609" y="1663" type="curve" smooth="yes"/>
      <point x="463" y="1663"/>
      <point x="353" y="1602"/>
      <point x="353" y="1477" type="curve" smooth="yes"/>
      <point x="353" y="1352"/>
      <point x="448" y="1321"/>
      <point x="545" y="1321" type="curve" smooth="yes"/>
      <point x="685" y="1321"/>
      <point x="754" y="1387"/>
      <point x="798" y="1440" type="curve"/>
      <point x="783" y="1490" type="line"/>
      <point x="747" y="1464"/>
      <point x="683" y="1425"/>
      <point x="597" y="1425" type="curve" smooth="yes"/>
      <point x="545" y="1425"/>
      <point x="513" y="1439"/>
      <point x="513" y="1475" type="curve" smooth="yes"/>
      <point x="513" y="1514"/>
      <point x="548" y="1538"/>
      <point x="610" y="1538" type="curve" smooth="yes"/>
      <point x="678" y="1538"/>
      <point x="718" y="1509"/>
      <point x="718" y="1399" type="curve" smooth="yes"/>
      <point x="718" y="1256"/>
      <point x="689" y="1213"/>
      <point x="602" y="1213" type="curve" smooth="yes"/>
      <point x="552" y="1213"/>
      <point x="523" y="1229"/>
      <point x="518" y="1269" type="curve"/>
      <point x="371" y="1253" type="line"/>
      <point x="387" y="1147"/>
      <point x="451" y="1091"/>
    </contour>
  </outline>
</glyph>
<glyph name="oneinferior" format="2">
  <advance width="1240"/>
  <unicode hex="2081"/>
  <outline>
    <contour>
      <point x="410" y="211" type="curve"/>
      <point x="410" y="45" type="line"/>
      <point x="541" y="45"/>
      <point x="664" y="193"/>
      <point x="664" y="275" type="curve"/>
      <point x="551" y="275" type="line"/>
      <point x="530" y="226"/>
      <point x="457" y="211"/>
    </contour>
    <contour>
      <point x="715" y="-280" type="line"/>
      <point x="715" y="275" type="line"/>
      <point x="551" y="275" type="line"/>
      <point x="551" y="-280" type="line"/>
    </contour>
    <contour>
      <point x="395" y="-280" type="line"/>
      <point x="866" y="-280" type="line"/>
      <point x="866" y="-150" type="line"/>
      <point x="395" y="-150" type="line"/>
    </contour>
  </outline>
</glyph>
<glyph name="threeinferior" format="2">
  <advance width="1240"/>
  <unicode hex="2083"/>
  <outline>
    <contour>
      <point x="614" y="284" type="curve" smooth="yes"/>
      <point x="436" y="284"/>
      <point x="354" y="216"/>
      <point x="357" y="105" type="curve"/>
      <point x="499" y="90" type="line"/>
      <point x="509" y="143"/>
      <point x="543" y="162"/>
      <point x="605" y="162" type="curve" smooth="yes"/>
      <point x="669" y="162"/>
      <point x="699" y="142"/>
      <point x="699" y="109" type="curve" smooth="yes"/>
      <point x="699" y="66"/>
      <point x="671" y="40"/>
      <point x="576" y="40" type="curve" smooth="yes"/>
      <point x="534" y="40" type="line"/>
      <point x="534" y="-60" type="line"/>
      <point x="573" y="-60" type="line" smooth="yes"/>
      <point x="688" y="-60"/>
      <point x="702" y="-83"/>
      <point x="702" y="-114" type="curve" smooth="yes"/>
      <point x="702" y="-141"/>
      <point x="684" y="-163"/>
      <point x="604" y="-163" type="curve" smooth="yes"/>
      <point x="524" y="-163"/>
      <point x="497" y="-142"/>
      <point x="484" y="-105" type="curve"/>
      <point x="337" y="-121" type="line"/>
      <point x="337" y="-262"/>
      <point x="447" y="-289"/>
      <point x="602" y="-289" type="curve" smooth="yes"/>
      <point x="749" y="-289"/>
      <point x="867" y="-253"/>
      <point x="867" y="-120" type="curve" smooth="yes"/>
      <point x="867" y="-5"/>
      <point x="745" y="5"/>
      <point x="632" y="5" type="curve"/>
      <point x="632" y="-18" type="line"/>
      <point x="729" y="-18"/>
      <point x="855" y="9"/>
      <point x="855" y="128" type="curve" smooth="yes"/>
      <point x="855" y="231"/>
      <point x="767" y="284"/>
    </contour>
  </outline>
</glyph>
<glyph name="fiveinferior" format="2">
  <advance width="1240"/>
  <unicode hex="2085"/>
  <outline>
    <contour>
      <point x="411" y="275" type="line"/>
      <point x="364" y="-30" type="line"/>
      <point x="506" y="-46" type="line"/>
      <point x="532" y="-24"/>
      <point x="572" y="-15"/>
      <point x="609" y="-15" type="curve" smooth="yes"/>
      <point x="691" y="-15"/>
      <point x="717" y="-46"/>
      <point x="717" y="-85" type="curve" smooth="yes"/>
      <point x="717" y="-134"/>
      <point x="676" y="-163"/>
      <point x="606" y="-163" type="curve" smooth="yes"/>
      <point x="552" y="-163"/>
      <point x="509" y="-144"/>
      <point x="499" y="-106" type="curve"/>
      <point x="347" y="-121" type="line"/>
      <point x="347" y="-252"/>
      <point x="466" y="-288"/>
      <point x="607" y="-288" type="curve" smooth="yes"/>
      <point x="767" y="-288"/>
      <point x="877" y="-225"/>
      <point x="877" y="-87" type="curve" smooth="yes"/>
      <point x="877" y="34"/>
      <point x="791" y="83"/>
      <point x="658" y="83" type="curve" smooth="yes"/>
      <point x="588" y="83"/>
      <point x="542" y="67"/>
      <point x="499" y="46" type="curve"/>
      <point x="508" y="14" type="line"/>
      <point x="545" y="189" type="line"/>
      <point x="508" y="144" type="line"/>
      <point x="844" y="144" type="line"/>
      <point x="844" y="275" type="line"/>
    </contour>
  </outline>
</glyph>
<glyph name="won" format="2">
  <advance width="1240"/>
  <unicode hex="20A9"/>
  <outline>
    <contour>
      <point x="92" y="1460" type="line"/>
      <point x="250" y="0" type="line"/>
      <point x="465" y="0" type="line"/>
      <point x="610" y="742" type="line"/>
      <point x="622" y="742" type="line"/>
      <point x="752" y="0" type="line"/>
      <point x="988" y="0" type="line"/>
      <point x="1148" y="1460" type="line"/>
      <point x="867" y="1460" type="line"/>
      <point x="805" y="708" type="line"/>
      <point x="785" y="708" type="line"/>
      <point x="722" y="1217" type="line"/>
      <point x="547" y="1217" type="line"/>
      <point x="454" y="708" type="line"/>
      <point x="434" y="708" type="line"/>
      <point x="384" y="1460" type="line"/>
    </contour>
    <contour>
      <point x="1206" y="585" type="line"/>
      <point x="1206" y="815" type="line"/>
      <point x="34" y="815" type="line"/>
      <point x="34" y="585" type="line"/>
    </contour>
  </outline>
</glyph>
<glyph name="ruble" format="2">
  <advance width="1240"/>
  <unicode hex="20BD"/>
  <outline>
    <contour>
      <point x="554" y="0" type="line"/>
      <point x="554" y="1460" type="line"/>
      <point x="217" y="1460" type="line"/>
      <point x="217" y="0" type="line"/>
    </contour>
    <contour>
      <point x="51" y="792" type="line"/>
      <point x="51" y="562" type="line"/>
      <point x="573" y="562" type="line" smooth="yes"/>
      <point x="1004" y="562"/>
      <point x="1170" y="777"/>
      <point x="1170" y="1060" type="curve" smooth="yes"/>
      <point x="1170" y="1345"/>
      <point x="998" y="1460"/>
      <point x="736" y="1460" type="curve" smooth="yes"/>
      <point x="470" y="1460" type="line"/>
      <point x="470" y="1238" type="line"/>
      <point x="632" y="1238" type="line" smooth="yes"/>
      <point x="773" y="1238"/>
      <point x="840" y="1186"/>
      <point x="840" y="1033" type="curve" smooth="yes"/>
      <point x="840" y="897"/>
      <point x="786" y="792"/>
      <point x="616" y="792" type="curve" smooth="yes"/>
    </contour>
    <contour>
      <point x="944" y="179" type="line"/>
      <point x="944" y="409" type="line"/>
      <point x="51" y="409" type="line"/>
      <point x="51" y="179" type="line"/>
    </contour>
  </outline>
</glyph>
<glyph name="literSign" format="2">
  <advance width="1240"/>
  <unicode hex="2113"/>
  <outline>
    <contour>
      <point x="767" y="-22" type="curve" smooth="yes"/>
      <point x="896" y="-22"/>
      <point x="1018" y="7"/>
      <point x="1133" y="51" type="curve"/>
      <point x="1091" y="295" type="line"/>
      <point x="1018" y="264"/>
      <point x="935" y="244"/>
      <point x="859" y="244" type="curve" smooth="yes"/>
      <point x="678" y="244"/>
      <point x="620" y="357"/>
      <point x="620" y="779" type="curve" smooth="yes"/>
      <point x="620" y="1157"/>
      <point x="673" y="1244"/>
      <point x="769" y="1244" type="curve" smooth="yes"/>
      <point x="829" y="1244"/>
      <point x="867" y="1210"/>
      <point x="867" y="1121" type="curve" smooth="yes"/>
      <point x="867" y="864"/>
      <point x="550" y="602"/>
      <point x="73" y="387" type="curve"/>
      <point x="143" y="208" type="line"/>
      <point x="675" y="438"/>
      <point x="1088" y="725"/>
      <point x="1088" y="1137" type="curve" smooth="yes"/>
      <point x="1088" y="1360"/>
      <point x="967" y="1484"/>
      <point x="748" y="1484" type="curve" smooth="yes"/>
      <point x="464" y="1484"/>
      <point x="284" y="1299"/>
      <point x="284" y="719" type="curve" smooth="yes"/>
      <point x="284" y="83"/>
      <point x="467" y="-22"/>
    </contour>
  </outline>
</glyph>
<glyph name="numero" format="2">
  <advance width="1240"/>
  <unicode hex="2116"/>
  <outline>
    <contour>
      <point x="476" y="0" type="line"/>
      <point x="679" y="0" type="line"/>
      <point x="679" y="1460" type="line"/>
      <point x="505" y="1460" type="line"/>
      <point x="505" y="561" type="line"/>
      <point x="487" y="561" type="line"/>
      <point x="285" y="1460" type="line"/>
      <point x="80" y="1460" type="line"/>
      <point x="80" y="0" type="line"/>
      <point x="254" y="0" type="line"/>
      <point x="254" y="884" type="line"/>
      <point x="272" y="884" type="line"/>
    </contour>
    <contour>
      <point x="1215" y="1080" type="curve" smooth="yes"/>
      <point x="1215" y="1361"/>
      <point x="1119" y="1484"/>
      <point x="992" y="1484" type="curve" smooth="yes"/>
      <point x="866" y="1484"/>
      <point x="770" y="1361"/>
      <point x="770" y="1080" type="curve" smooth="yes"/>
      <point x="770" y="798"/>
      <point x="866" y="689"/>
      <point x="992" y="689" type="curve" smooth="yes"/>
      <point x="1119" y="689"/>
      <point x="1215" y="798"/>
    </contour>
    <contour>
      <point x="1071" y="1083" type="curve" smooth="yes"/>
      <point x="1071" y="944"/>
      <point x="1041" y="900"/>
      <point x="992" y="900" type="curve" smooth="yes"/>
      <point x="943" y="900"/>
      <point x="914" y="944"/>
      <point x="914" y="1083" type="curve" smooth="yes"/>
      <point x="914" y="1223"/>
      <point x="943" y="1273"/>
      <point x="992" y="1273" type="curve" smooth="yes"/>
      <point x="1041" y="1273"/>
      <point x="1071" y="1223"/>
    </contour>
    <contour>
      <point x="994" y="276" type="curve" smooth="yes"/>
      <point x="1061" y="276"/>
      <point x="1115" y="327"/>
      <point x="1115" y="410" type="curve" smooth="yes"/>
      <point x="1115" y="494"/>
      <point x="1061" y="543"/>
      <point x="994" y="543" type="curve" smooth="yes"/>
      <point x="926" y="543"/>
      <point x="870" y="494"/>
      <point x="870" y="410" type="curve" smooth="yes"/>
      <point x="870" y="327"/>
      <point x="926" y="276"/>
    </contour>
  </outline>
</glyph>
<glyph name="trademark" format="2">
  <advance width="1240"/>
  <unicode hex="2122"/>
  <outline>
    <contour>
      <point x="367" y="855" type="line"/>
      <point x="367" y="1530" type="line"/>
      <point x="197" y="1530" type="line"/>
      <point x="197" y="855" type="line"/>
    </contour>
    <contour>
      <point x="62" y="1375" type="line"/>
      <point x="502" y="1375" type="line"/>
      <point x="502" y="1530" type="line"/>
      <point x="62" y="1530" type="line"/>
    </contour>
    <contour>
      <point x="583" y="1530" type="line"/>
      <point x="583" y="855" type="line"/>
      <point x="743" y="855" type="line"/>
      <point x="743" y="1240" type="line"/>
      <point x="749" y="1240" type="line"/>
      <point x="846" y="1026" type="line"/>
      <point x="877" y="1026" type="line"/>
      <point x="979" y="1240" type="line"/>
      <point x="987" y="1240" type="line"/>
      <point x="987" y="855" type="line"/>
      <point x="1147" y="855" type="line"/>
      <point x="1147" y="1530" type="line"/>
      <point x="981" y="1530" type="line"/>
      <point x="869" y="1302" type="line"/>
      <point x="863" y="1302" type="line"/>
      <point x="762" y="1530" type="line"/>
    </contour>
  </outline>
</glyph>
<glyph name="upDownArrow" format="2">
  <advance width="1240"/>
  <unicode hex="2195"/>
  <outline>
    <contour>
      <point x="620" y="129" type="line"/>
      <point x="1055" y="494" type="line"/>
      <point x="929" y="645" type="line"/>
      <point x="581" y="350" type="line"/>
      <point x="659" y="350" type="line"/>
      <point x="311" y="645" type="line"/>
      <point x="185" y="494" type="line"/>
    </contour>
    <contour>
      <point x="826" y="447" type="line"/>
      <point x="620" y="564" type="line"/>
      <point x="414" y="447" type="line"/>
      <point x="620" y="322" type="line"/>
    </contour>
    <contour>
      <point x="620" y="1329" type="line"/>
      <point x="185" y="964" type="line"/>
      <point x="311" y="813" type="line"/>
      <point x="659" y="1108" type="line"/>
      <point x="581" y="1108" type="line"/>
      <point x="929" y="813" type="line"/>
      <point x="1055" y="964" type="line"/>
    </contour>
    <contour>
      <point x="735" y="1138" type="line"/>
      <point x="505" y="1138" type="line"/>
      <point x="505" y="319" type="line"/>
      <point x="735" y="319" type="line"/>
    </contour>
    <contour>
      <point x="414" y="1011" type="line"/>
      <point x="620" y="894" type="line"/>
      <point x="826" y="1011" type="line"/>
      <point x="620" y="1136" type="line"/>
    </contour>
  </outline>
</glyph>
<glyph name="northEastArrow" format="2">
  <advance width="1240"/>
  <unicode hex="2197"/>
  <outline>
    <contour>
      <point x="1009" y="1122" type="line"/>
      <point x="282" y="1124" type="line"/>
      <point x="282" y="893" type="line"/>
      <point x="822" y="895" type="line"/>
      <point x="782" y="935" type="line"/>
      <point x="780" y="395" type="line"/>
      <point x="1010" y="395" type="line"/>
    </contour>
    <contour>
      <point x="735" y="1026" type="line"/>
      <point x="187" y="479" type="line"/>
      <point x="365" y="300" type="line"/>
      <point x="913" y="848" type="line"/>
    </contour>
    <contour>
      <point x="841" y="665" type="line"/>
      <point x="759" y="873" type="line"/>
      <point x="551" y="954" type="line"/>
      <point x="638" y="751" type="line"/>
    </contour>
  </outline>
</glyph>
<glyph name="leftHookArrow" format="2">
  <advance width="1240"/>
  <unicode hex="21A9"/>
  <outline>
    <contour>
      <point x="50" y="471" type="line"/>
      <point x="544" y="-24" type="line"/>
      <point x="703" y="135" type="line"/>
      <point x="330" y="507" type="line"/>
      <point x="330" y="434" type="line"/>
      <point x="703" y="806" type="line"/>
      <point x="544" y="965" type="line"/>
    </contour>
    <contour>
      <point x="493" y="287" type="line"/>
      <point x="573" y="471" type="line"/>
      <point x="494" y="654" type="line"/>
      <point x="406" y="471" type="line"/>
    </contour>
    <contour>
      <point x="893" y="904" type="curve" smooth="yes"/>
      <point x="893" y="687"/>
      <point x="819" y="596"/>
      <point x="632" y="596" type="curve" smooth="yes"/>
      <point x="290" y="596" type="line"/>
      <point x="290" y="344" type="line"/>
      <point x="641" y="344" type="line" smooth="yes"/>
      <point x="1015" y="344"/>
      <point x="1174" y="500"/>
      <point x="1174" y="904" type="curve" smooth="yes"/>
      <point x="1174" y="1308"/>
      <point x="1015" y="1460"/>
      <point x="641" y="1460" type="curve" smooth="yes"/>
      <point x="110" y="1460" type="line"/>
      <point x="110" y="1208" type="line"/>
      <point x="632" y="1208" type="line" smooth="yes"/>
      <point x="819" y="1208"/>
      <point x="893" y="1121"/>
    </contour>
  </outline>
</glyph>
<glyph name="gradient" format="2">
  <advance width="1240"/>
  <unicode hex="2207"/>
  <outline>
    <contour>
      <point x="94" y="1190" type="line"/>
      <point x="448" y="1" type="line"/>
      <point x="800" y="1" type="line"/>
      <point x="1147" y="1190" type="line"/>
      <point x="817" y="1252" type="line"/>
      <point x="817" y="1178" type="line"/>
      <point x="642" y="476" type="line"/>
      <point x="627" y="476" type="line"/>
      <point x="447" y="1178" type="line"/>
      <point x="447" y="1242" type="line"/>
    </contour>
    <contour>
      <point x="1147" y="1461" type="line"/>
      <point x="96" y="1461" type="line"/>
      <point x="94" y="1190" type="line"/>
      <point x="1147" y="1190" type="line"/>
    </contour>
  </outline>
</glyph>
<glyph name="element" format="2">
  <advance width="1240"/>
  <unicode hex="2208"/>
  <outline>
    <contour>
      <point x="465" y="730" type="curve" smooth="yes"/>
      <point x="465" y="1057"/>
      <point x="564" y="1189"/>
      <point x="851" y="1189" type="curve" smooth="yes"/>
      <point x="1035" y="1189" type="line"/>
      <point x="1035" y="1460" type="line"/>
      <point x="800" y="1460" type="line" smooth="yes"/>
      <point x="336" y="1460"/>
      <point x="150" y="1216"/>
      <point x="150" y="730" type="curve" smooth="yes"/>
      <point x="150" y="244"/>
      <point x="336" y="0"/>
      <point x="800" y="0" type="curve" smooth="yes"/>
      <point x="1035" y="0" type="line"/>
      <point x="1035" y="271" type="line"/>
      <point x="851" y="271" type="line" smooth="yes"/>
      <point x="564" y="271"/>
      <point x="465" y="403"/>
    </contour>
    <contour>
      <point x="289" y="604" type="line"/>
      <point x="1035" y="604" type="line"/>
      <point x="1035" y="861" type="line"/>
      <point x="289" y="861" type="line"/>
    </contour>
  </outline>
</glyph>
<glyph name="summation" format="2">
  <advance width="1240"/>
  <unicode hex="2211"/>
  <outline>
    <contour>
      <point x="546" y="568" type="line"/>
      <point x="150" y="-159" type="line"/>
      <point x="150" y="-400" type="line"/>
      <point x="1070" y="-400" type="line"/>
      <point x="1070" y="-129" type="line"/>
      <point x="438" y="-129" type="line"/>
      <point x="498" y="-179" type="line"/>
      <point x="890" y="537" type="line"/>
      <point x="500" y="1253" type="line"/>
      <point x="438" y="1189" type="line"/>
      <point x="1070" y="1189" type="line"/>
      <point x="1070" y="1460" type="line"/>
      <point x="150" y="1460" type="line"/>
      <point x="150" y="1219" type="line"/>
      <point x="546" y="492" type="line"/>
    </contour>
  </outline>
</glyph>
<glyph name="angle" format="2">
  <advance width="1240"/>
  <unicode hex="2220"/>
  <outline>
    <contour>
      <point x="1070" y="0" type="line"/>
      <point x="1070" y="271" type="line"/>
      <point x="568" y="271" type="line"/>
      <point x="560" y="285" type="line"/>
      <point x="916" y="981" type="line"/>
      <point x="638" y="1094" type="line"/>
      <point x="135" y="99" type="line"/>
      <point x="176" y="0" type="line"/>
    </contour>
  </outline>
</glyph>
<glyph name="logicaland" format="2">
  <advance width="1240"/>
  <unicode hex="2227"/>
  <outline>
    <contour>
      <point x="1197" y="194" type="line"/>
      <point x="677" y="1276" type="line"/>
      <point x="538" y="1276" type="line"/>
      <point x="43" y="194" type="line"/>
      <point x="366" y="194" type="line"/>
      <point x="594" y="758" type="line"/>
      <point x="608" y="758" type="line"/>
      <point x="849" y="194" type="line"/>
    </contour>
  </outline>
</glyph>
<glyph name="logicalor" format="2">
  <advance width="1240"/>
  <unicode hex="2228"/>
  <outline>
    <contour>
      <point x="43" y="1266" type="line"/>
      <point x="563" y="184" type="line"/>
      <point x="702" y="184" type="line"/>
      <point x="1197" y="1266" type="line"/>
      <point x="874" y="1266" type="line"/>
      <point x="646" y="702" type="line"/>
      <point x="632" y="702" type="line"/>
      <point x="391" y="1266" type="line"/>
    </contour>
  </outline>
</glyph>
<glyph name="notequal" format="2">
  <advance width="1240"/>
  <unicode hex="2260"/>
  <outline>
    <contour>
      <point x="590" y="0" type="line"/>
      <point x="883" y="1346" type="line"/>
      <point x="650" y="1346" type="line"/>
      <point x="357" y="0" type="line"/>
    </contour>
    <contour>
      <point x="140" y="831" type="line"/>
      <point x="1100" y="831" type="line"/>
      <point x="1100" y="1102" type="line"/>
      <point x="140" y="1102" type="line"/>
    </contour>
    <contour>
      <point x="140" y="244" type="line"/>
      <point x="1100" y="244" type="line"/>
      <point x="1100" y="515" type="line"/>
      <point x="140" y="515" type="line"/>
    </contour>
  </outline>
</glyph>
<glyph name="equivalence" format="2">
  <advance width="1240"/>
  <unicode hex="2261"/>
  <outline>
    <contour>
      <point x="140" y="1033" type="line"/>
      <point x="1100" y="1033" type="line"/>
      <point x="1100" y="1243" type="line"/>
      <point x="140" y="1243" type="line"/>
    </contour>
    <contour>
      <point x="140" y="567" type="line"/>
      <point x="1100" y="567" type="line"/>
      <point x="1100" y="778" type="line"/>
      <point x="140" y="778" type="line"/>
    </contour>
    <contour>
      <point x="140" y="102" type="line"/>
      <point x="1100" y="102" type="line"/>
      <point x="1100" y="312" type="line"/>
      <point x="140" y="312" type="line"/>
    </contour>
  </outline>
</glyph>
<glyph name="lessequal" format="2">
  <advance width="1240"/>
  <unicode hex="2264"/>
  <outline>
    <contour>
      <point x="1100" y="115" type="line"/>
      <point x="1100" y="386" type="line"/>
      <point x="140" y="386" type="line"/>
      <point x="140" y="115" type="line"/>
    </contour>
    <contour>
      <point x="1033" y="1514" type="line"/>
      <point x="140" y="1190" type="line"/>
      <point x="140" y="885" type="line"/>
      <point x="1034" y="561" type="line"/>
      <point x="1126" y="815" type="line"/>
      <point x="547" y="1025" type="line"/>
      <point x="547" y="1051" type="line"/>
      <point x="1125" y="1260" type="line"/>
    </contour>
  </outline>
</glyph>
<glyph name="greaterequal" format="2">
  <advance width="1240"/>
  <unicode hex="2265"/>
  <outline>
    <contour>
      <point x="140" y="115" type="line"/>
      <point x="1100" y="115" type="line"/>
      <point x="1100" y="386" type="line"/>
      <point x="140" y="386" type="line"/>
    </contour>
    <contour>
      <point x="207" y="561" type="line"/>
      <point x="1100" y="885" type="line"/>
      <point x="1099" y="1190" type="line"/>
      <point x="206" y="1514" type="line"/>
      <point x="114" y="1260" type="line"/>
      <point x="693" y="1050" type="line"/>
      <point x="693" y="1024" type="line"/>
      <point x="115" y="815" type="line"/>
    </contour>
  </outline>
</glyph>
<glyph name="rightBlackSmallTriangle" format="2">
  <advance width="1240"/>
  <unicode hex="25B8"/>
  <outline>
    <contour>
      <point x="307" y="1125" type="line"/>
      <point x="307" y="332" type="line"/>
      <point x="1001" y="729" type="line"/>
    </contour>
  </outline>
</glyph>
<glyph name="downBlackSmallTriangle" format="2">
  <advance width="1240"/>
  <unicode hex="25BE"/>
  <outline>
    <contour>
      <point x="1016" y="1063" type="line"/>
      <point x="223" y="1063" type="line"/>
      <point x="620" y="369" type="line"/>
    </contour>
  </outline>
</glyph>
<glyph name="lozenge" format="2">
  <advance width="1240"/>
  <unicode hex="25CA"/>
  <outline>
    <contour>
      <point x="41" y="730" type="line"/>
      <point x="469" y="0" type="line"/>
      <point x="768" y="0" type="line"/>
      <point x="1195" y="730" type="line"/>
      <point x="897" y="764" type="line"/>
      <point x="626" y="263" type="line"/>
      <point x="610" y="263" type="line"/>
      <point x="339" y="764" type="line"/>
    </contour>
    <contour>
      <point x="1195" y="730" type="line"/>
      <point x="768" y="1460" type="line"/>
      <point x="469" y="1460" type="line"/>
      <point x="41" y="730" type="line"/>
      <point x="339" y="696" type="line"/>
      <point x="610" y="1197" type="line"/>
      <point x="626" y="1197" type="line"/>
      <point x="897" y="696" type="line"/>
    </contour>
  </outline>
</glyph>
<glyph name="leftArrowTipUp" format="2">
  <advance width="1240"/>
  <unicode hex="2B11"/>
  <outline>
    <contour>
      <point x="575" y="1304" type="line"/>
      <point x="80" y="810" type="line"/>
      <point x="239" y="651" type="line"/>
      <point x="611" y="1024" type="line"/>
      <point x="538" y="1024" type="line"/>
      <point x="910" y="651" type="line"/>
      <point x="1069" y="810" type="line"/>
    </contour>
    <contour>
      <point x="700" y="1056" type="line"/>
      <point x="448" y="1056" type="line"/>
      <point x="448" y="177" type="line"/>
      <point x="700" y="177" type="line"/>
    </contour>
    <contour>
      <point x="391" y="861" type="line"/>
      <point x="575" y="781" type="line"/>
      <point x="758" y="860" type="line"/>
      <point x="575" y="948" type="line"/>
    </contour>
    <contour>
      <point x="448" y="435" type="line"/>
      <point x="448" y="177" type="line"/>
      <point x="1110" y="177" type="line"/>
      <point x="1110" y="435" type="line"/>
    </contour>
  </outline>
</glyph>
<glyph name="AE.alt1" format="2">
  <advance width="1240"/>
  <outline>
    <contour>
      <point x="612" y="0" type="line"/>
      <point x="911" y="0" type="line"/>
      <point x="911" y="1460" type="line"/>
      <point x="612" y="1460" type="line"/>
    </contour>
    <contour>
      <point x="72" y="0" type="line"/>
      <point x="371" y="0" type="line"/>
      <point x="371" y="819" type="line"/>
      <point x="562" y="1189" type="line"/>
      <point x="742" y="1189" type="line"/>
      <point x="742" y="1460" type="line"/>
      <point x="376" y="1460" type="line"/>
      <point x="72" y="933" type="line"/>
    </contour>
    <contour>
      <point x="260" y="303" type="line"/>
      <point x="734" y="303" type="line"/>
      <point x="734" y="537" type="line"/>
      <point x="260" y="537" type="line"/>
    </contour>
    <contour>
      <point x="772" y="0" type="line"/>
      <point x="1166" y="0" type="line"/>
      <point x="1196" y="271" type="line"/>
      <point x="772" y="271" type="line"/>
    </contour>
    <contour>
      <point x="772" y="609" type="line"/>
      <point x="1101" y="609" type="line"/>
      <point x="1101" y="866" type="line"/>
      <point x="772" y="866" type="line"/>
    </contour>
    <contour>
      <point x="772" y="1189" type="line"/>
      <point x="1176" y="1189" type="line"/>
      <point x="1146" y="1460" type="line"/>
      <point x="772" y="1460" type="line"/>
    </contour>
  </outline>
</glyph>
<glyph name="Abreve.alt1" format="2">
  <advance width="1240"/>
  <outline>
    <contour>
      <point x="132" y="0" type="line"/>
      <point x="459" y="0" type="line"/>
      <point x="459" y="819" type="line"/>
      <point x="661" y="1261" type="line"/>
      <point x="579" y="1261" type="line"/>
      <point x="781" y="819" type="line"/>
      <point x="781" y="0" type="line"/>
      <point x="1108" y="0" type="line"/>
      <point x="1108" y="933" type="line"/>
      <point x="823" y="1460" type="line"/>
      <point x="417" y="1460" type="line"/>
      <point x="132" y="933" type="line"/>
    </contour>
    <contour>
      <point x="339" y="303" type="line"/>
      <point x="930" y="303" type="line"/>
      <point x="930" y="537" type="line"/>
      <point x="339" y="537" type="line"/>
    </contour>
    <contour>
      <point x="453" y="1600" type="line"/>
      <point x="787" y="1600" type="line"/>
      <point x="980" y="1753" type="line"/>
      <point x="980" y="1878" type="line"/>
      <point x="782" y="1878" type="line"/>
      <point x="782" y="1820" type="line"/>
      <point x="707" y="1763" type="line"/>
      <point x="533" y="1763" type="line"/>
      <point x="458" y="1820" type="line"/>
      <point x="458" y="1878" type="line"/>
      <point x="260" y="1878" type="line"/>
      <point x="260" y="1752" type="line"/>
    </contour>
  </outline>
</glyph>
<glyph name="Aogonek.alt5" format="2">
  <advance width="1240"/>
  <outline>
    <contour>
      <point x="132" y="0" type="line"/>
      <point x="459" y="0" type="line"/>
      <point x="459" y="819" type="line"/>
      <point x="661" y="1261" type="line"/>
      <point x="579" y="1261" type="line"/>
      <point x="781" y="819" type="line"/>
      <point x="781" y="0" type="line"/>
      <point x="1108" y="0" type="line"/>
      <point x="1108" y="933" type="line"/>
      <point x="823" y="1460" type="line"/>
      <point x="417" y="1460" type="line"/>
      <point x="132" y="933" type="line"/>
    </contour>
    <contour>
      <point x="339" y="303" type="line"/>
      <point x="930" y="303" type="line"/>
      <point x="930" y="537" type="line"/>
      <point x="339" y="537" type="line"/>
    </contour>
    <contour>
      <point x="722" y="-133" type="line"/>
      <point x="722" y="-320" type="line"/>
      <point x="925" y="-443" type="line"/>
      <point x="1089" y="-443" type="line"/>
      <point x="1089" y="-240" type="line"/>
      <point x="997" y="-240" type="line"/>
      <point x="945" y="-210" type="line"/>
      <point x="945" y="-173" type="line"/>
      <point x="1108" y="0" type="line"/>
      <point x="991" y="44" type="line"/>
    </contour>
  </outline>
</glyph>
<glyph name="Aring.alt5" format="2">
  <advance width="1240"/>
  <outline>
    <contour>
      <point x="132" y="0" type="line"/>
      <point x="459" y="0" type="line"/>
      <point x="459" y="819" type="line"/>
      <point x="661" y="1261" type="line"/>
      <point x="579" y="1261" type="line"/>
      <point x="781" y="819" type="line"/>
      <point x="781" y="0" type="line"/>
      <point x="1108" y="0" type="line"/>
      <point x="1108" y="933" type="line"/>
      <point x="823" y="1460" type="line"/>
      <point x="417" y="1460" type="line"/>
      <point x="132" y="933" type="line"/>
    </contour>
    <contour>
      <point x="339" y="303" type="line"/>
      <point x="930" y="303" type="line"/>
      <point x="930" y="537" type="line"/>
      <point x="339" y="537" type="line"/>
    </contour>
    <contour>
      <point x="533" y="1438" type="line"/>
      <point x="707" y="1438" type="line"/>
      <point x="867" y="1605" type="line"/>
      <point x="867" y="1775" type="line"/>
      <point x="707" y="1941" type="line"/>
      <point x="533" y="1941" type="line"/>
      <point x="373" y="1774" type="line"/>
      <point x="373" y="1604" type="line"/>
    </contour>
    <contour>
      <point x="498" y="1656" type="line"/>
      <point x="498" y="1724" type="line"/>
      <point x="588" y="1820" type="line"/>
      <point x="652" y="1820" type="line"/>
      <point x="742" y="1724" type="line"/>
      <point x="742" y="1656" type="line"/>
      <point x="652" y="1559" type="line"/>
      <point x="588" y="1559" type="line"/>
    </contour>
  </outline>
</glyph>
<glyph name="B.alt4" format="2">
  <advance width="1240"/>
  <outline>
    <contour>
      <point x="258" y="0" type="line"/>
      <point x="823" y="0" type="line"/>
      <point x="1168" y="280" type="line"/>
      <point x="1168" y="584" type="line"/>
      <point x="820" y="836" type="line"/>
      <point x="820" y="688" type="line"/>
      <point x="1118" y="889" type="line"/>
      <point x="1118" y="1193" type="line"/>
      <point x="823" y="1460" type="line"/>
      <point x="258" y="1460" type="line"/>
      <point x="258" y="1219" type="line"/>
      <point x="683" y="1219" type="line"/>
      <point x="843" y="1079" type="line"/>
      <point x="843" y="1003" type="line"/>
      <point x="683" y="863" type="line"/>
      <point x="258" y="863" type="line"/>
      <point x="258" y="622" type="line"/>
      <point x="683" y="622" type="line"/>
      <point x="843" y="470" type="line"/>
      <point x="843" y="394" type="line"/>
      <point x="683" y="241" type="line"/>
      <point x="258" y="241" type="line"/>
    </contour>
    <contour>
      <point x="127" y="0" type="line"/>
      <point x="464" y="0" type="line"/>
      <point x="464" y="1460" type="line"/>
      <point x="127" y="1460" type="line"/>
    </contour>
  </outline>
</glyph>
<glyph name="C.alt3" format="2">
  <advance width="1240"/>
  <outline>
    <contour>
      <point x="417" y="0" type="line"/>
      <point x="1082" y="0" type="line"/>
      <point x="1122" y="301" type="line"/>
      <point x="587" y="301" type="line"/>
      <point x="397" y="642" type="line"/>
      <point x="397" y="818" type="line"/>
      <point x="587" y="1159" type="line"/>
      <point x="1122" y="1159" type="line"/>
      <point x="1082" y="1460" type="line"/>
      <point x="417" y="1460" type="line"/>
      <point x="72" y="932" type="line"/>
      <point x="72" y="528" type="line"/>
    </contour>
  </outline>
</glyph>
<glyph name="Cacute.alt1" format="2">
  <advance width="1240"/>
  <outline>
    <contour>
      <point x="417" y="0" type="line"/>
      <point x="1082" y="0" type="line"/>
      <point x="1122" y="301" type="line"/>
      <point x="587" y="301" type="line"/>
      <point x="397" y="642" type="line"/>
      <point x="397" y="818" type="line"/>
      <point x="587" y="1159" type="line"/>
      <point x="1122" y="1159" type="line"/>
      <point x="1082" y="1460" type="line"/>
      <point x="417" y="1460" type="line"/>
      <point x="72" y="932" type="line"/>
      <point x="72" y="528" type="line"/>
    </contour>
    <contour>
      <point x="834" y="1619.05" type="line"/>
      <point x="575" y="1619.05" type="line"/>
      <point x="758" y="1877.386" type="line"/>
      <point x="1083" y="1877.386" type="line"/>
    </contour>
  </outline>
</glyph>
<glyph name="Ccedilla.alt1" format="2">
  <advance width="1240"/>
  <outline>
    <contour>
      <point x="417" y="0" type="line"/>
      <point x="1082" y="0" type="line"/>
      <point x="1122" y="301" type="line"/>
      <point x="587" y="301" type="line"/>
      <point x="397" y="642" type="line"/>
      <point x="397" y="818" type="line"/>
      <point x="587" y="1159" type="line"/>
      <point x="1122" y="1159" type="line"/>
      <point x="1082" y="1460" type="line"/>
      <point x="417" y="1460" type="line"/>
      <point x="72" y="932" type="line"/>
      <point x="72" y="528" type="line"/>
    </contour>
    <contour>
      <point x="588" y="-637" type="line"/>
      <point x="782" y="-637" type="line"/>
      <point x="964" y="-474" type="line"/>
      <point x="964" y="-280" type="line"/>
      <point x="789" y="-140" type="line"/>
      <point x="769" y="-140" type="line"/>
      <point x="808" y="-200" type="line"/>
      <point x="808" y="48" type="line"/>
      <point x="628" y="48" type="line"/>
      <point x="628" y="-305" type="line"/>
      <point x="714" y="-305" type="line"/>
      <point x="791" y="-360" type="line"/>
      <point x="791" y="-394" type="line"/>
      <point x="714" y="-449" type="line"/>
      <point x="588" y="-449" type="line"/>
    </contour>
  </outline>
</glyph>
<glyph name="Cdotaccent.alt5" format="2">
  <advance width="1240"/>
  <outline>
    <contour>
      <point x="417" y="0" type="line"/>
      <point x="1082" y="0" type="line"/>
      <point x="1122" y="301" type="line"/>
      <point x="587" y="301" type="line"/>
      <point x="397" y="642" type="line"/>
      <point x="397" y="818" type="line"/>
      <point x="587" y="1159" type="line"/>
      <point x="1122" y="1159" type="line"/>
      <point x="1082" y="1460" type="line"/>
      <point x="417" y="1460" type="line"/>
      <point x="72" y="932" type="line"/>
      <point x="72" y="528" type="line"/>
    </contour>
    <contour>
      <point x="696" y="1618.8" type="line"/>
      <point x="870.4" y="1786.8" type="line"/>
      <point x="696" y="1954" type="line"/>
      <point x="520.8" y="1786.8" type="line"/>
    </contour>
  </outline>
</glyph>
<glyph name="Dcaron.alt1" format="2">
  <advance width="1240"/>
  <outline>
    <contour>
      <point x="268" y="0" type="line"/>
      <point x="823" y="0" type="line"/>
      <point x="1168" y="539" type="line"/>
      <point x="1168" y="943" type="line"/>
      <point x="823" y="1460" type="line"/>
      <point x="268" y="1460" type="line"/>
      <point x="238" y="1159" type="line"/>
      <point x="653" y="1159" type="line"/>
      <point x="843" y="829" type="line"/>
      <point x="843" y="653" type="line"/>
      <point x="653" y="301" type="line"/>
      <point x="238" y="301" type="line"/>
    </contour>
    <contour>
      <point x="132" y="0" type="line"/>
      <point x="461" y="0" type="line"/>
      <point x="461" y="1460" type="line"/>
      <point x="132" y="1460" type="line"/>
    </contour>
    <contour>
      <point x="99" y="1878" type="line"/>
      <point x="383" y="1878" type="line"/>
      <point x="544" y="1674" type="line"/>
      <point x="496" y="1674" type="line"/>
      <point x="657" y="1878" type="line"/>
      <point x="941" y="1878" type="line"/>
      <point x="713" y="1620" type="line"/>
      <point x="327" y="1620" type="line"/>
    </contour>
  </outline>
</glyph>
<glyph name="Ecaron.alt5" format="2">
  <advance width="1240"/>
  <outline>
    <contour>
      <point x="471" y="0" type="line"/>
      <point x="471" y="1460" type="line"/>
      <point x="142" y="1460" type="line"/>
      <point x="142" y="0" type="line"/>
    </contour>
    <contour>
      <point x="1092" y="271" type="line"/>
      <point x="303" y="271" type="line"/>
      <point x="303" y="0" type="line"/>
      <point x="1062" y="0" type="line"/>
    </contour>
    <contour>
      <point x="937" y="866" type="line"/>
      <point x="333" y="866" type="line"/>
      <point x="333" y="609" type="line"/>
      <point x="937" y="609" type="line"/>
    </contour>
    <contour>
      <point x="1062" y="1189" type="line"/>
      <point x="1032" y="1460" type="line"/>
      <point x="303" y="1460" type="line"/>
      <point x="303" y="1189" type="line"/>
    </contour>
    <contour>
      <point x="199" y="1878" type="line"/>
      <point x="483" y="1878" type="line"/>
      <point x="644" y="1674" type="line"/>
      <point x="596" y="1674" type="line"/>
      <point x="757" y="1878" type="line"/>
      <point x="1041" y="1878" type="line"/>
      <point x="813" y="1620" type="line"/>
      <point x="427" y="1620" type="line"/>
    </contour>
  </outline>
</glyph>
<glyph name="Egrave.alt5" format="2">
  <advance width="1240"/>
  <outline>
    <contour>
      <point x="471" y="0" type="line"/>
      <point x="471" y="1460" type="line"/>
      <point x="142" y="1460" type="line"/>
      <point x="142" y="0" type="line"/>
    </contour>
    <contour>
      <point x="1092" y="271" type="line"/>
      <point x="303" y="271" type="line"/>
      <point x="303" y="0" type="line"/>
      <point x="1062" y="0" type="line"/>
    </contour>
    <contour>
      <point x="937" y="866" type="line"/>
      <point x="333" y="866" type="line"/>
      <point x="333" y="609" type="line"/>
      <point x="937" y="609" type="line"/>
    </contour>
    <contour>
      <point x="1062" y="1189" type="line"/>
      <point x="1032" y="1460" type="line"/>
      <point x="303" y="1460" type="line"/>
      <point x="303" y="1189" type="line"/>
    </contour>
    <contour>
      <point x="486" y="1619.05" type="line"/>
      <point x="745" y="1619.05" type="line"/>
      <point x="562" y="1877.386" type="line"/>
      <point x="237" y="1877.386" type="line"/>
    </contour>
  </outline>
</glyph>
<glyph name="Eng.alt1" format="2">
  <advance width="1240"/>
  <outline>
    <contour>
      <point x="811" y="-76" type="line"/>
      <point x="1108" y="0" type="line"/>
      <point x="1108" y="1460" type="line"/>
      <point x="846" y="1460" type="line"/>
      <point x="846" y="511" type="line"/>
      <point x="834" y="511" type="line"/>
      <point x="461" y="1460" type="line"/>
      <point x="132" y="1460" type="line"/>
      <point x="132" y="0" type="line"/>
      <point x="394" y="0" type="line"/>
      <point x="394" y="934" type="line"/>
      <point x="406" y="934" type="line"/>
    </contour>
    <contour>
      <point x="910" y="-400" type="line"/>
      <point x="1108" y="-171" type="line"/>
      <point x="1108" y="40" type="line"/>
      <point x="780" y="40" type="line"/>
      <point x="780" y="-57" type="line"/>
      <point x="740" y="-99" type="line"/>
      <point x="604" y="-99" type="line"/>
      <point x="634" y="-400" type="line"/>
    </contour>
  </outline>
</glyph>
<glyph name="Eng.alt5" format="2">
  <advance width="1240"/>
  <outline>
    <contour>
      <point x="811" y="-76" type="line"/>
      <point x="1108" y="0" type="line"/>
      <point x="1108" y="1460" type="line"/>
      <point x="846" y="1460" type="line"/>
      <point x="846" y="511" type="line"/>
      <point x="834" y="511" type="line"/>
      <point x="461" y="1460" type="line"/>
      <point x="132" y="1460" type="line"/>
      <point x="132" y="0" type="line"/>
      <point x="394" y="0" type="line"/>
      <point x="394" y="934" type="line"/>
      <point x="406" y="934" type="line"/>
    </contour>
    <contour>
      <point x="910" y="-400" type="line"/>
      <point x="1108" y="-171" type="line"/>
      <point x="1108" y="40" type="line"/>
      <point x="780" y="40" type="line"/>
      <point x="780" y="-57" type="line"/>
      <point x="740" y="-99" type="line"/>
      <point x="604" y="-99" type="line"/>
      <point x="634" y="-400" type="line"/>
    </contour>
  </outline>
</glyph>
<glyph name="Eth.alt1" format="2">
  <advance width="1240"/>
  <outline>
    <contour>
      <point x="13" y="594" type="line"/>
      <point x="640" y="594" type="line"/>
      <point x="640" y="867" type="line"/>
      <point x="13" y="867" type="line"/>
    </contour>
    <contour>
      <point x="268" y="0" type="line"/>
      <point x="823" y="0" type="line"/>
      <point x="1168" y="539" type="line"/>
      <point x="1168" y="943" type="line"/>
      <point x="823" y="1460" type="line"/>
      <point x="268" y="1460" type="line"/>
      <point x="238" y="1159" type="line"/>
      <point x="653" y="1159" type="line"/>
      <point x="843" y="829" type="line"/>
      <point x="843" y="653" type="line"/>
      <point x="653" y="301" type="line"/>
      <point x="238" y="301" type="line"/>
    </contour>
    <contour>
      <point x="132" y="0" type="line"/>
      <point x="461" y="0" type="line"/>
      <point x="461" y="1460" type="line"/>
      <point x="132" y="1460" type="line"/>
    </contour>
  </outline>
</glyph>
<glyph name="Eth.alt5" format="2">
  <advance width="1240"/>
  <outline>
    <contour>
      <point x="13" y="594" type="line"/>
      <point x="640" y="594" type="line"/>
      <point x="640" y="867" type="line"/>
      <point x="13" y="867" type="line"/>
    </contour>
    <contour>
      <point x="268" y="0" type="line"/>
      <point x="823" y="0" type="line"/>
      <point x="1168" y="539" type="line"/>
      <point x="1168" y="943" type="line"/>
      <point x="823" y="1460" type="line"/>
      <point x="268" y="1460" type="line"/>
      <point x="238" y="1159" type="line"/>
      <point x="653" y="1159" type="line"/>
      <point x="843" y="829" type="line"/>
      <point x="843" y="653" type="line"/>
      <point x="653" y="301" type="line"/>
      <point x="238" y="301" type="line"/>
    </contour>
    <contour>
      <point x="132" y="0" type="line"/>
      <point x="461" y="0" type="line"/>
      <point x="461" y="1460" type="line"/>
      <point x="132" y="1460" type="line"/>
    </contour>
  </outline>
</glyph>
<glyph name="F.alt" format="2">
  <advance width="1240"/>
  <outline>
    <contour>
      <point x="152" y="0" type="line"/>
      <point x="481" y="0" type="line"/>
      <point x="481" y="1460" type="line"/>
      <point x="152" y="1460" type="line"/>
    </contour>
    <contour>
      <point x="333" y="539" type="line"/>
      <point x="957" y="539" type="line"/>
      <point x="957" y="796" type="line"/>
      <point x="333" y="796" type="line"/>
    </contour>
    <contour>
      <point x="303" y="1189" type="line"/>
      <point x="1082" y="1189" type="line"/>
      <point x="1052" y="1460" type="line"/>
      <point x="303" y="1460" type="line"/>
    </contour>
  </outline>
</glyph>
<glyph name="Gcaron.alt1" format="2">
  <advance width="1240"/>
  <outline>
    <contour>
      <point x="437" y="0" type="line"/>
      <point x="918" y="0" type="line"/>
      <point x="1152" y="247" type="line"/>
      <point x="1152" y="829" type="line"/>
      <point x="686" y="829" type="line"/>
      <point x="686" y="582" type="line"/>
      <point x="954" y="582" type="line"/>
      <point x="882" y="669" type="line"/>
      <point x="882" y="384" type="line"/>
      <point x="790" y="301" type="line"/>
      <point x="607" y="301" type="line"/>
      <point x="397" y="642" type="line"/>
      <point x="397" y="818" type="line"/>
      <point x="587" y="1159" type="line"/>
      <point x="1082" y="1159" type="line"/>
      <point x="1052" y="1460" type="line"/>
      <point x="417" y="1460" type="line"/>
      <point x="72" y="932" type="line"/>
      <point x="72" y="528" type="line"/>
    </contour>
    <contour>
      <point x="279" y="1878" type="line"/>
      <point x="563" y="1878" type="line"/>
      <point x="724" y="1674" type="line"/>
      <point x="676" y="1674" type="line"/>
      <point x="837" y="1878" type="line"/>
      <point x="1121" y="1878" type="line"/>
      <point x="893" y="1620" type="line"/>
      <point x="507" y="1620" type="line"/>
    </contour>
  </outline>
</glyph>
<glyph name="H.alt" format="2">
  <advance width="1240"/>
  <outline>
    <contour>
      <point x="771" y="0" type="line"/>
      <point x="1108" y="0" type="line"/>
      <point x="1108" y="1460" type="line"/>
      <point x="771" y="1460" type="line"/>
    </contour>
    <contour>
      <point x="132" y="0" type="line"/>
      <point x="469" y="0" type="line"/>
      <point x="469" y="1460" type="line"/>
      <point x="132" y="1460" type="line"/>
    </contour>
    <contour>
      <point x="269" y="602" type="line"/>
      <point x="967" y="602" type="line"/>
      <point x="967" y="873" type="line"/>
      <point x="269" y="873" type="line"/>
    </contour>
  </outline>
</glyph>
<glyph name="H.alt2" format="2">
  <advance width="1240"/>
  <outline>
    <contour>
      <point x="771" y="0" type="line"/>
      <point x="1108" y="0" type="line"/>
      <point x="1108" y="1460" type="line"/>
      <point x="771" y="1460" type="line"/>
    </contour>
    <contour>
      <point x="132" y="0" type="line"/>
      <point x="469" y="0" type="line"/>
      <point x="469" y="1460" type="line"/>
      <point x="132" y="1460" type="line"/>
    </contour>
    <contour>
      <point x="269" y="602" type="line"/>
      <point x="967" y="602" type="line"/>
      <point x="967" y="873" type="line"/>
      <point x="269" y="873" type="line"/>
    </contour>
  </outline>
</glyph>
<glyph name="Hbar.alt1" format="2">
  <advance width="1240"/>
  <outline>
    <contour>
      <point x="40" y="1082" type="line"/>
      <point x="1200" y="1082" type="line"/>
      <point x="1200" y="1293" type="line"/>
      <point x="40" y="1293" type="line"/>
    </contour>
    <contour>
      <point x="771" y="0" type="line"/>
      <point x="1108" y="0" type="line"/>
      <point x="1108" y="1460" type="line"/>
      <point x="771" y="1460" type="line"/>
    </contour>
    <contour>
      <point x="132" y="0" type="line"/>
      <point x="469" y="0" type="line"/>
      <point x="469" y="1460" type="line"/>
      <point x="132" y="1460" type="line"/>
    </contour>
    <contour>
      <point x="269" y="602" type="line"/>
      <point x="967" y="602" type="line"/>
      <point x="967" y="873" type="line"/>
      <point x="269" y="873" type="line"/>
    </contour>
  </outline>
</glyph>
<glyph name="I.alt2" format="2">
  <advance width="1240"/>
  <outline>
    <contour>
      <point x="455" y="0" type="line"/>
      <point x="785" y="0" type="line"/>
      <point x="785" y="1460" type="line"/>
      <point x="455" y="1460" type="line"/>
    </contour>
    <contour>
      <point x="165" y="0" type="line"/>
      <point x="1075" y="0" type="line"/>
      <point x="1095" y="271" type="line"/>
      <point x="145" y="271" type="line"/>
    </contour>
    <contour>
      <point x="145" y="1189" type="line"/>
      <point x="1095" y="1189" type="line"/>
      <point x="1075" y="1460" type="line"/>
      <point x="165" y="1460" type="line"/>
    </contour>
  </outline>
</glyph>
<glyph name="IJ.alt1" format="2">
  <advance width="1240"/>
  <outline>
    <contour>
      <point x="132" y="678" type="line"/>
      <point x="467" y="678" type="line"/>
      <point x="467" y="1460" type="line"/>
      <point x="132" y="1460" type="line"/>
    </contour>
    <contour>
      <point x="447" y="0" type="line"/>
      <point x="793" y="0" type="line"/>
      <point x="1108" y="229" type="line"/>
      <point x="1108" y="1460" type="line"/>
      <point x="773" y="1460" type="line"/>
      <point x="773" y="353" type="line"/>
      <point x="655" y="271" type="line"/>
      <point x="585" y="271" type="line"/>
      <point x="467" y="353" type="line"/>
      <point x="467" y="467" type="line"/>
      <point x="132" y="467" type="line"/>
      <point x="132" y="229" type="line"/>
    </contour>
    <contour>
      <point x="590" y="1184" type="line"/>
      <point x="961" y="1184" type="line"/>
      <point x="961" y="1460" type="line"/>
      <point x="620" y="1460" type="line"/>
    </contour>
  </outline>
</glyph>
<glyph name="Iacute.alt5" format="2">
  <advance width="1240"/>
  <outline>
    <contour>
      <point x="455" y="0" type="line"/>
      <point x="785" y="0" type="line"/>
      <point x="785" y="1460" type="line"/>
      <point x="455" y="1460" type="line"/>
    </contour>
    <contour>
      <point x="165" y="0" type="line"/>
      <point x="1075" y="0" type="line"/>
      <point x="1095" y="271" type="line"/>
      <point x="145" y="271" type="line"/>
    </contour>
    <contour>
      <point x="145" y="1189" type="line"/>
      <point x="1095" y="1189" type="line"/>
      <point x="1075" y="1460" type="line"/>
      <point x="165" y="1460" type="line"/>
    </contour>
    <contour>
      <point x="754" y="1619.05" type="line"/>
      <point x="495" y="1619.05" type="line"/>
      <point x="678" y="1877.386" type="line"/>
      <point x="1003" y="1877.386" type="line"/>
    </contour>
  </outline>
</glyph>
<glyph name="Ibreve.alt1" format="2">
  <advance width="1240"/>
  <outline>
    <contour>
      <point x="455" y="0" type="line"/>
      <point x="785" y="0" type="line"/>
      <point x="785" y="1460" type="line"/>
      <point x="455" y="1460" type="line"/>
    </contour>
    <contour>
      <point x="165" y="0" type="line"/>
      <point x="1075" y="0" type="line"/>
      <point x="1095" y="271" type="line"/>
      <point x="145" y="271" type="line"/>
    </contour>
    <contour>
      <point x="145" y="1189" type="line"/>
      <point x="1095" y="1189" type="line"/>
      <point x="1075" y="1460" type="line"/>
      <point x="165" y="1460" type="line"/>
    </contour>
    <contour>
      <point x="453" y="1600" type="line"/>
      <point x="787" y="1600" type="line"/>
      <point x="980" y="1753" type="line"/>
      <point x="980" y="1878" type="line"/>
      <point x="782" y="1878" type="line"/>
      <point x="782" y="1820" type="line"/>
      <point x="707" y="1763" type="line"/>
      <point x="533" y="1763" type="line"/>
      <point x="458" y="1820" type="line"/>
      <point x="458" y="1878" type="line"/>
      <point x="260" y="1878" type="line"/>
      <point x="260" y="1752" type="line"/>
    </contour>
  </outline>
</glyph>
<glyph name="Idieresis.alt5" format="2">
  <advance width="1240"/>
  <outline>
    <contour>
      <point x="455" y="0" type="line"/>
      <point x="785" y="0" type="line"/>
      <point x="785" y="1460" type="line"/>
      <point x="455" y="1460" type="line"/>
    </contour>
    <contour>
      <point x="165" y="0" type="line"/>
      <point x="1075" y="0" type="line"/>
      <point x="1095" y="271" type="line"/>
      <point x="145" y="271" type="line"/>
    </contour>
    <contour>
      <point x="145" y="1189" type="line"/>
      <point x="1095" y="1189" type="line"/>
      <point x="1075" y="1460" type="line"/>
      <point x="165" y="1460" type="line"/>
    </contour>
    <contour>
      <point x="339.68" y="1618.8" type="line"/>
      <point x="510.592" y="1786.8" type="line"/>
      <point x="339.68" y="1954" type="line"/>
      <point x="167.984" y="1786.8" type="line"/>
    </contour>
    <contour>
      <point x="900.68" y="1618.8" type="line"/>
      <point x="1071.592" y="1786.8" type="line"/>
      <point x="900.68" y="1954" type="line"/>
      <point x="728.984" y="1786.8" type="line"/>
    </contour>
  </outline>
</glyph>
<glyph name="Idotaccent.alt1" format="2">
  <advance width="1240"/>
  <outline>
    <contour>
      <point x="455" y="0" type="line"/>
      <point x="785" y="0" type="line"/>
      <point x="785" y="1460" type="line"/>
      <point x="455" y="1460" type="line"/>
    </contour>
    <contour>
      <point x="165" y="0" type="line"/>
      <point x="1075" y="0" type="line"/>
      <point x="1095" y="271" type="line"/>
      <point x="145" y="271" type="line"/>
    </contour>
    <contour>
      <point x="145" y="1189" type="line"/>
      <point x="1095" y="1189" type="line"/>
      <point x="1075" y="1460" type="line"/>
      <point x="165" y="1460" type="line"/>
    </contour>
    <contour>
      <point x="616" y="1618.8" type="line"/>
      <point x="790.4" y="1786.8" type="line"/>
      <point x="616" y="1954" type="line"/>
      <point x="440.8" y="1786.8" type="line"/>
    </contour>
  </outline>
</glyph>
<glyph name="Imacron.alt1" format="2">
  <advance width="1240"/>
  <outline>
    <contour>
      <point x="455" y="0" type="line"/>
      <point x="785" y="0" type="line"/>
      <point x="785" y="1460" type="line"/>
      <point x="455" y="1460" type="line"/>
    </contour>
    <contour>
      <point x="165" y="0" type="line"/>
      <point x="1075" y="0" type="line"/>
      <point x="1095" y="271" type="line"/>
      <point x="145" y="271" type="line"/>
    </contour>
    <contour>
      <point x="145" y="1189" type="line"/>
      <point x="1095" y="1189" type="line"/>
      <point x="1075" y="1460" type="line"/>
      <point x="165" y="1460" type="line"/>
    </contour>
    <contour>
      <point x="271" y="1691" type="line"/>
      <point x="969" y="1691" type="line"/>
      <point x="969" y="1884" type="line"/>
      <point x="271" y="1884" type="line"/>
    </contour>
  </outline>
</glyph>
<glyph name="J.alt3" format="2">
  <advance width="1240"/>
  <outline>
    <contour>
      <point x="466" y="0" type="line"/>
      <point x="751" y="0" type="line"/>
      <point x="1106" y="448" type="line"/>
      <point x="1106" y="1460" type="line"/>
      <point x="781" y="1460" type="line"/>
      <point x="781" y="562" type="line"/>
      <point x="568" y="242" type="line"/>
      <point x="649" y="242" type="line"/>
      <point x="416" y="562" type="line"/>
      <point x="416" y="738" type="line"/>
      <point x="91" y="738" type="line"/>
      <point x="91" y="448" type="line"/>
    </contour>
    <contour>
      <point x="257" y="1184" type="line"/>
      <point x="961" y="1184" type="line"/>
      <point x="961" y="1460" type="line"/>
      <point x="287" y="1460" type="line"/>
    </contour>
  </outline>
</glyph>
<glyph name="J.alt4" format="2">
  <advance width="1240"/>
  <outline>
    <contour>
      <point x="466" y="0" type="line"/>
      <point x="751" y="0" type="line"/>
      <point x="1106" y="448" type="line"/>
      <point x="1106" y="1460" type="line"/>
      <point x="781" y="1460" type="line"/>
      <point x="781" y="562" type="line"/>
      <point x="568" y="242" type="line"/>
      <point x="649" y="242" type="line"/>
      <point x="416" y="562" type="line"/>
      <point x="416" y="738" type="line"/>
      <point x="91" y="738" type="line"/>
      <point x="91" y="448" type="line"/>
    </contour>
    <contour>
      <point x="257" y="1184" type="line"/>
      <point x="961" y="1184" type="line"/>
      <point x="961" y="1460" type="line"/>
      <point x="287" y="1460" type="line"/>
    </contour>
  </outline>
</glyph>
<glyph name="K.alt4" format="2">
  <advance width="1240"/>
  <outline>
    <contour>
      <point x="763" y="0" type="line"/>
      <point x="1128" y="0" type="line"/>
      <point x="1128" y="361" type="line"/>
      <point x="816" y="851" type="line"/>
      <point x="816" y="659" type="line"/>
      <point x="1128" y="1099" type="line"/>
      <point x="1128" y="1460" type="line"/>
      <point x="793" y="1460" type="line"/>
      <point x="793" y="1153" type="line"/>
      <point x="595" y="838" type="line"/>
      <point x="626" y="860" type="line"/>
      <point x="402" y="860" type="line"/>
      <point x="402" y="588" type="line"/>
      <point x="624" y="588" type="line"/>
      <point x="575" y="615" type="line"/>
      <point x="763" y="267" type="line"/>
    </contour>
    <contour>
      <point x="118" y="0" type="line"/>
      <point x="455" y="0" type="line"/>
      <point x="455" y="1460" type="line"/>
      <point x="118" y="1460" type="line"/>
    </contour>
  </outline>
</glyph>
<glyph name="K.alt5" format="2">
  <advance width="1240"/>
  <outline>
    <contour>
      <point x="763" y="0" type="line"/>
      <point x="1128" y="0" type="line"/>
      <point x="1128" y="361" type="line"/>
      <point x="816" y="851" type="line"/>
      <point x="816" y="659" type="line"/>
      <point x="1128" y="1099" type="line"/>
      <point x="1128" y="1460" type="line"/>
      <point x="793" y="1460" type="line"/>
      <point x="793" y="1153" type="line"/>
      <point x="595" y="838" type="line"/>
      <point x="626" y="860" type="line"/>
      <point x="402" y="860" type="line"/>
      <point x="402" y="588" type="line"/>
      <point x="624" y="588" type="line"/>
      <point x="575" y="615" type="line"/>
      <point x="763" y="267" type="line"/>
    </contour>
    <contour>
      <point x="118" y="0" type="line"/>
      <point x="455" y="0" type="line"/>
      <point x="455" y="1460" type="line"/>
      <point x="118" y="1460" type="line"/>
    </contour>
  </outline>
</glyph>
<glyph name="L.alt1" format="2">
  <advance width="1240"/>
  <outline>
    <contour>
      <point x="173" y="0" type="line"/>
      <point x="502" y="0" type="line"/>
      <point x="502" y="1460" type="line"/>
      <point x="173" y="1460" type="line"/>
    </contour>
    <contour>
      <point x="333" y="0" type="line"/>
      <point x="1082" y="0" type="line"/>
      <point x="1112" y="271" type="line"/>
      <point x="333" y="271" type="line"/>
    </contour>
  </outline>
</glyph>
<glyph name="M.alt1" format="2">
  <advance width="1240"/>
  <outline>
    <contour>
      <point x="101" y="0" type="line"/>
      <point x="354" y="0" type="line"/>
      <point x="354" y="918" type="line"/>
      <point x="368" y="918" type="line"/>
      <point x="575" y="389" type="line"/>
      <point x="645" y="389" type="line"/>
      <point x="864" y="918" type="line"/>
      <point x="882" y="918" type="line"/>
      <point x="882" y="0" type="line"/>
      <point x="1139" y="0" type="line"/>
      <point x="1139" y="1460" type="line"/>
      <point x="869" y="1460" type="line"/>
      <point x="626" y="950" type="line"/>
      <point x="614" y="950" type="line"/>
      <point x="416" y="1460" type="line"/>
      <point x="101" y="1460" type="line"/>
    </contour>
  </outline>
</glyph>
<glyph name="N.alt" format="2">
  <advance width="1240"/>
  <outline>
    <contour>
      <point x="132" y="0" type="line"/>
      <point x="439" y="0" type="line"/>
      <point x="439" y="774" type="line"/>
      <point x="451" y="774" type="line"/>
      <point x="907" y="0" type="line"/>
      <point x="1108" y="0" type="line"/>
      <point x="1108" y="1460" type="line"/>
      <point x="801" y="1460" type="line"/>
      <point x="801" y="671" type="line"/>
      <point x="789" y="671" type="line"/>
      <point x="335" y="1460" type="line"/>
      <point x="132" y="1460" type="line"/>
    </contour>
  </outline>
</glyph>
<glyph name="N.alt2" format="2">
  <advance width="1240"/>
  <outline>
    <contour>
      <point x="132" y="0" type="line"/>
      <point x="439" y="0" type="line"/>
      <point x="439" y="774" type="line"/>
      <point x="451" y="774" type="line"/>
      <point x="907" y="0" type="line"/>
      <point x="1108" y="0" type="line"/>
      <point x="1108" y="1460" type="line"/>
      <point x="801" y="1460" type="line"/>
      <point x="801" y="671" type="line"/>
      <point x="789" y="671" type="line"/>
      <point x="335" y="1460" type="line"/>
      <point x="132" y="1460" type="line"/>
    </contour>
  </outline>
</glyph>
<glyph name="Nhookleft.alt1" format="2">
  <advance width="1240"/>
  <outline>
    <contour>
      <point x="439" y="50" type="line"/>
      <point x="132" y="50" type="line"/>
      <point x="132" y="-57" type="line"/>
      <point x="92" y="-99" type="line"/>
      <point x="-44" y="-99" type="line"/>
      <point x="-14" y="-400" type="line"/>
      <point x="262" y="-400" type="line"/>
      <point x="439" y="-171" type="line"/>
    </contour>
    <contour>
      <point x="132" y="0" type="line"/>
      <point x="439" y="0" type="line"/>
      <point x="439" y="774" type="line"/>
      <point x="451" y="774" type="line"/>
      <point x="907" y="0" type="line"/>
      <point x="1108" y="0" type="line"/>
      <point x="1108" y="1460" type="line"/>
      <point x="801" y="1460" type="line"/>
      <point x="801" y="671" type="line"/>
      <point x="789" y="671" type="line"/>
      <point x="335" y="1460" type="line"/>
      <point x="132" y="1460" type="line"/>
    </contour>
  </outline>
</glyph>
<glyph name="Nhookleft.alt5" format="2">
  <advance width="1240"/>
  <outline>
    <contour>
      <point x="439" y="50" type="line"/>
      <point x="132" y="50" type="line"/>
      <point x="132" y="-57" type="line"/>
      <point x="92" y="-99" type="line"/>
      <point x="-44" y="-99" type="line"/>
      <point x="-14" y="-400" type="line"/>
      <point x="262" y="-400" type="line"/>
      <point x="439" y="-171" type="line"/>
    </contour>
    <contour>
      <point x="132" y="0" type="line"/>
      <point x="439" y="0" type="line"/>
      <point x="439" y="774" type="line"/>
      <point x="451" y="774" type="line"/>
      <point x="907" y="0" type="line"/>
      <point x="1108" y="0" type="line"/>
      <point x="1108" y="1460" type="line"/>
      <point x="801" y="1460" type="line"/>
      <point x="801" y="671" type="line"/>
      <point x="789" y="671" type="line"/>
      <point x="335" y="1460" type="line"/>
      <point x="132" y="1460" type="line"/>
    </contour>
  </outline>
</glyph>
<glyph name="O.alt2" format="2">
  <advance width="1240"/>
  <outline>
    <contour>
      <point x="437" y="0" type="line"/>
      <point x="803" y="0" type="line"/>
      <point x="1168" y="528" type="line"/>
      <point x="1168" y="932" type="line"/>
      <point x="803" y="1460" type="line"/>
      <point x="437" y="1460" type="line"/>
      <point x="72" y="932" type="line"/>
      <point x="72" y="528" type="line"/>
    </contour>
    <contour>
      <point x="587" y="311" type="line"/>
      <point x="397" y="642" type="line"/>
      <point x="397" y="818" type="line"/>
      <point x="587" y="1149" type="line"/>
      <point x="653" y="1149" type="line"/>
      <point x="843" y="818" type="line"/>
      <point x="843" y="642" type="line"/>
      <point x="653" y="311" type="line"/>
    </contour>
  </outline>
</glyph>
<glyph name="OE.alt5" format="2">
  <advance width="1240"/>
  <outline>
    <contour>
      <point x="612" y="0" type="line"/>
      <point x="911" y="0" type="line"/>
      <point x="911" y="1460" type="line"/>
      <point x="612" y="1460" type="line"/>
    </contour>
    <contour>
      <point x="772" y="0" type="line"/>
      <point x="1166" y="0" type="line"/>
      <point x="1196" y="271" type="line"/>
      <point x="772" y="271" type="line"/>
    </contour>
    <contour>
      <point x="772" y="609" type="line"/>
      <point x="1101" y="609" type="line"/>
      <point x="1101" y="866" type="line"/>
      <point x="772" y="866" type="line"/>
    </contour>
    <contour>
      <point x="772" y="1189" type="line"/>
      <point x="1176" y="1189" type="line"/>
      <point x="1146" y="1460" type="line"/>
      <point x="772" y="1460" type="line"/>
    </contour>
    <contour>
      <point x="702" y="0" type="line"/>
      <point x="702" y="271" type="line"/>
      <point x="577" y="271" type="line"/>
      <point x="367" y="643" type="line"/>
      <point x="367" y="839" type="line"/>
      <point x="577" y="1189" type="line"/>
      <point x="702" y="1189" type="line"/>
      <point x="702" y="1460" type="line"/>
      <point x="407" y="1460" type="line"/>
      <point x="72" y="943" type="line"/>
      <point x="72" y="539" type="line"/>
      <point x="407" y="0" type="line"/>
    </contour>
  </outline>
</glyph>
<glyph name="Obreve.alt5" format="2">
  <advance width="1240"/>
  <outline>
    <contour>
      <point x="437" y="0" type="line"/>
      <point x="803" y="0" type="line"/>
      <point x="1168" y="528" type="line"/>
      <point x="1168" y="932" type="line"/>
      <point x="803" y="1460" type="line"/>
      <point x="437" y="1460" type="line"/>
      <point x="72" y="932" type="line"/>
      <point x="72" y="528" type="line"/>
    </contour>
    <contour>
      <point x="587" y="311" type="line"/>
      <point x="397" y="642" type="line"/>
      <point x="397" y="818" type="line"/>
      <point x="587" y="1149" type="line"/>
      <point x="653" y="1149" type="line"/>
      <point x="843" y="818" type="line"/>
      <point x="843" y="642" type="line"/>
      <point x="653" y="311" type="line"/>
    </contour>
    <contour>
      <point x="453" y="1600" type="line"/>
      <point x="787" y="1600" type="line"/>
      <point x="980" y="1753" type="line"/>
      <point x="980" y="1878" type="line"/>
      <point x="782" y="1878" type="line"/>
      <point x="782" y="1820" type="line"/>
      <point x="707" y="1763" type="line"/>
      <point x="533" y="1763" type="line"/>
      <point x="458" y="1820" type="line"/>
      <point x="458" y="1878" type="line"/>
      <point x="260" y="1878" type="line"/>
      <point x="260" y="1752" type="line"/>
    </contour>
  </outline>
</glyph>
<glyph name="Ocircumflex.alt5" format="2">
  <advance width="1240"/>
  <outline>
    <contour>
      <point x="437" y="0" type="line"/>
      <point x="803" y="0" type="line"/>
      <point x="1168" y="528" type="line"/>
      <point x="1168" y="932" type="line"/>
      <point x="803" y="1460" type="line"/>
      <point x="437" y="1460" type="line"/>
      <point x="72" y="932" type="line"/>
      <point x="72" y="528" type="line"/>
    </contour>
    <contour>
      <point x="587" y="311" type="line"/>
      <point x="397" y="642" type="line"/>
      <point x="397" y="818" type="line"/>
      <point x="587" y="1149" type="line"/>
      <point x="653" y="1149" type="line"/>
      <point x="843" y="818" type="line"/>
      <point x="843" y="642" type="line"/>
      <point x="653" y="311" type="line"/>
    </contour>
    <contour>
      <point x="199" y="1620" type="line"/>
      <point x="483" y="1620" type="line"/>
      <point x="644" y="1824" type="line"/>
      <point x="596" y="1824" type="line"/>
      <point x="757" y="1620" type="line"/>
      <point x="1041" y="1620" type="line"/>
      <point x="813" y="1878" type="line"/>
      <point x="427" y="1878" type="line"/>
    </contour>
  </outline>
</glyph>
<glyph name="Omacron.alt5" format="2">
  <advance width="1240"/>
  <outline>
    <contour>
      <point x="437" y="0" type="line"/>
      <point x="803" y="0" type="line"/>
      <point x="1168" y="528" type="line"/>
      <point x="1168" y="932" type="line"/>
      <point x="803" y="1460" type="line"/>
      <point x="437" y="1460" type="line"/>
      <point x="72" y="932" type="line"/>
      <point x="72" y="528" type="line"/>
    </contour>
    <contour>
      <point x="587" y="311" type="line"/>
      <point x="397" y="642" type="line"/>
      <point x="397" y="818" type="line"/>
      <point x="587" y="1149" type="line"/>
      <point x="653" y="1149" type="line"/>
      <point x="843" y="818" type="line"/>
      <point x="843" y="642" type="line"/>
      <point x="653" y="311" type="line"/>
    </contour>
    <contour>
      <point x="271" y="1691" type="line"/>
      <point x="969" y="1691" type="line"/>
      <point x="969" y="1884" type="line"/>
      <point x="271" y="1884" type="line"/>
    </contour>
  </outline>
</glyph>
<glyph name="Oslash.alt5" format="2">
  <advance width="1240"/>
  <outline>
    <contour>
      <point x="453" y="285" type="line"/>
      <point x="929" y="1059" type="line"/>
      <point x="779" y="1162" type="line"/>
      <point x="313" y="403" type="line"/>
    </contour>
    <contour>
      <point x="191" y="-122" type="line"/>
      <point x="502" y="329" type="line"/>
      <point x="353" y="515" type="line"/>
      <point x="12" y="2" type="line"/>
    </contour>
    <contour>
      <point x="886" y="952" type="line"/>
      <point x="1217" y="1446" type="line"/>
      <point x="1034" y="1572" type="line"/>
      <point x="720" y="1119" type="line"/>
    </contour>
    <contour>
      <point x="437" y="0" type="line"/>
      <point x="803" y="0" type="line"/>
      <point x="1168" y="528" type="line"/>
      <point x="1168" y="932" type="line"/>
      <point x="803" y="1460" type="line"/>
      <point x="437" y="1460" type="line"/>
      <point x="72" y="932" type="line"/>
      <point x="72" y="528" type="line"/>
    </contour>
    <contour>
      <point x="587" y="311" type="line"/>
      <point x="397" y="642" type="line"/>
      <point x="397" y="818" type="line"/>
      <point x="587" y="1149" type="line"/>
      <point x="653" y="1149" type="line"/>
      <point x="843" y="818" type="line"/>
      <point x="843" y="642" type="line"/>
      <point x="653" y="311" type="line"/>
    </contour>
  </outline>
</glyph>
<glyph name="Otilde.alt5" format="2">
  <advance width="1240"/>
  <outline>
    <contour>
      <point x="437" y="0" type="line"/>
      <point x="803" y="0" type="line"/>
      <point x="1168" y="528" type="line"/>
      <point x="1168" y="932" type="line"/>
      <point x="803" y="1460" type="line"/>
      <point x="437" y="1460" type="line"/>
      <point x="72" y="932" type="line"/>
      <point x="72" y="528" type="line"/>
    </contour>
    <contour>
      <point x="587" y="311" type="line"/>
      <point x="397" y="642" type="line"/>
      <point x="397" y="818" type="line"/>
      <point x="587" y="1149" type="line"/>
      <point x="653" y="1149" type="line"/>
      <point x="843" y="818" type="line"/>
      <point x="843" y="642" type="line"/>
      <point x="653" y="311" type="line"/>
    </contour>
    <contour>
      <point x="605" y="1887" type="line"/>
      <point x="317" y="1887" type="line"/>
      <point x="164" y="1744" type="line"/>
      <point x="164" y="1611" type="line"/>
      <point x="367" y="1611" type="line"/>
      <point x="367" y="1672" type="line"/>
      <point x="427" y="1734" type="line"/>
      <point x="495" y="1734" type="line"/>
      <point x="635" y="1611" type="line"/>
      <point x="923" y="1611" type="line"/>
      <point x="1076" y="1754" type="line"/>
      <point x="1076" y="1887" type="line"/>
      <point x="873" y="1887" type="line"/>
      <point x="873" y="1816" type="line"/>
      <point x="813" y="1764" type="line"/>
      <point x="745" y="1764" type="line"/>
    </contour>
  </outline>
</glyph>
<glyph name="Rcommaaccent.alt1" format="2">
  <advance width="1240"/>
  <outline>
    <contour>
      <point x="258" y="552" type="line"/>
      <point x="823" y="552" type="line"/>
      <point x="1168" y="849" type="line"/>
      <point x="1168" y="1163" type="line"/>
      <point x="813" y="1460" type="line"/>
      <point x="258" y="1460" type="line"/>
      <point x="258" y="1159" type="line"/>
      <point x="683" y="1159" type="line"/>
      <point x="843" y="1039" type="line"/>
      <point x="843" y="933" type="line"/>
      <point x="683" y="763" type="line"/>
      <point x="258" y="763" type="line"/>
    </contour>
    <contour>
      <point x="127" y="0" type="line"/>
      <point x="464" y="0" type="line"/>
      <point x="464" y="1460" type="line"/>
      <point x="127" y="1460" type="line"/>
    </contour>
    <contour>
      <point x="833" y="0" type="line"/>
      <point x="1168" y="0" type="line"/>
      <point x="1168" y="253" type="line"/>
      <point x="892" y="661" type="line"/>
      <point x="571" y="661" type="line"/>
      <point x="833" y="237" type="line"/>
    </contour>
    <contour>
      <point x="448" y="-494" type="line"/>
      <point x="689" y="-494" type="line"/>
      <point x="689" y="-418" type="line"/>
      <point x="448" y="-721" type="line"/>
      <point x="573" y="-786" type="line"/>
      <point x="791" y="-504" type="line"/>
      <point x="791" y="-151" type="line"/>
      <point x="448" y="-151" type="line"/>
    </contour>
  </outline>
</glyph>
<glyph name="S.alt4" format="2">
  <advance width="1240"/>
  <outline>
    <contour>
      <point x="146" y="0" type="line"/>
      <point x="851" y="0" type="line"/>
      <point x="1114" y="311" type="line"/>
      <point x="1114" y="539" type="line"/>
      <point x="501" y="1011" type="line"/>
      <point x="501" y="1075" type="line"/>
      <point x="559" y="1159" type="line"/>
      <point x="1104" y="1159" type="line"/>
      <point x="1074" y="1460" type="line"/>
      <point x="389" y="1460" type="line"/>
      <point x="126" y="1149" type="line"/>
      <point x="126" y="921" type="line"/>
      <point x="739" y="449" type="line"/>
      <point x="739" y="385" type="line"/>
      <point x="681" y="301" type="line"/>
      <point x="116" y="301" type="line"/>
    </contour>
  </outline>
</glyph>
<glyph name="T.alt" format="2">
  <advance width="1240"/>
  <outline>
    <contour>
      <point x="458" y="0" type="line"/>
      <point x="788" y="0" type="line"/>
      <point x="788" y="1460" type="line"/>
      <point x="458" y="1460" type="line"/>
    </contour>
    <contour>
      <point x="81" y="1189" type="line"/>
      <point x="1157" y="1189" type="line"/>
      <point x="1137" y="1460" type="line"/>
      <point x="101" y="1460" type="line"/>
    </contour>
  </outline>
</glyph>
<glyph name="U.alt4" format="2">
  <advance width="1240"/>
  <outline>
    <contour>
      <point x="327" y="0" type="line"/>
      <point x="913" y="0" type="line"/>
      <point x="1108" y="249" type="line"/>
      <point x="1108" y="1460" type="line"/>
      <point x="773" y="1460" type="line"/>
      <point x="773" y="353" type="line"/>
      <point x="715" y="271" type="line"/>
      <point x="525" y="271" type="line"/>
      <point x="467" y="353" type="line"/>
      <point x="467" y="1460" type="line"/>
      <point x="132" y="1460" type="line"/>
      <point x="132" y="249" type="line"/>
    </contour>
  </outline>
</glyph>
<glyph name="Udieresis.alt5" format="2">
  <advance width="1240"/>
  <outline>
    <contour>
      <point x="327" y="0" type="line"/>
      <point x="913" y="0" type="line"/>
      <point x="1108" y="249" type="line"/>
      <point x="1108" y="1460" type="line"/>
      <point x="773" y="1460" type="line"/>
      <point x="773" y="353" type="line"/>
      <point x="715" y="271" type="line"/>
      <point x="525" y="271" type="line"/>
      <point x="467" y="353" type="line"/>
      <point x="467" y="1460" type="line"/>
      <point x="132" y="1460" type="line"/>
      <point x="132" y="249" type="line"/>
    </contour>
    <contour>
      <point x="339.68" y="1618.8" type="line"/>
      <point x="510.592" y="1786.8" type="line"/>
      <point x="339.68" y="1954" type="line"/>
      <point x="167.984" y="1786.8" type="line"/>
    </contour>
    <contour>
      <point x="900.68" y="1618.8" type="line"/>
      <point x="1071.592" y="1786.8" type="line"/>
      <point x="900.68" y="1954" type="line"/>
      <point x="728.984" y="1786.8" type="line"/>
    </contour>
  </outline>
</glyph>
<glyph name="Uhungarumlaut.alt1" format="2">
  <advance width="1240"/>
  <outline>
    <contour>
      <point x="327" y="0" type="line"/>
      <point x="913" y="0" type="line"/>
      <point x="1108" y="249" type="line"/>
      <point x="1108" y="1460" type="line"/>
      <point x="773" y="1460" type="line"/>
      <point x="773" y="353" type="line"/>
      <point x="715" y="271" type="line"/>
      <point x="525" y="271" type="line"/>
      <point x="467" y="353" type="line"/>
      <point x="467" y="1460" type="line"/>
      <point x="132" y="1460" type="line"/>
      <point x="132" y="249" type="line"/>
    </contour>
    <contour>
      <point x="727" y="1619.05" type="line"/>
      <point x="932" y="1619.05" type="line"/>
      <point x="1098" y="1877.386" type="line"/>
      <point x="853" y="1877.386" type="line"/>
    </contour>
    <contour>
      <point x="305" y="1619.05" type="line"/>
      <point x="511" y="1619.05" type="line"/>
      <point x="676" y="1877.386" type="line"/>
      <point x="432" y="1877.386" type="line"/>
    </contour>
  </outline>
</glyph>
<glyph name="Uogonek.alt1" format="2">
  <advance width="1240"/>
  <outline>
    <contour>
      <point x="327" y="0" type="line"/>
      <point x="913" y="0" type="line"/>
      <point x="1108" y="249" type="line"/>
      <point x="1108" y="1460" type="line"/>
      <point x="773" y="1460" type="line"/>
      <point x="773" y="353" type="line"/>
      <point x="715" y="271" type="line"/>
      <point x="525" y="271" type="line"/>
      <point x="467" y="353" type="line"/>
      <point x="467" y="1460" type="line"/>
      <point x="132" y="1460" type="line"/>
      <point x="132" y="249" type="line"/>
    </contour>
    <contour>
      <point x="428" y="-133" type="line"/>
      <point x="428" y="-320" type="line"/>
      <point x="631" y="-443" type="line"/>
      <point x="795" y="-443" type="line"/>
      <point x="795" y="-240" type="line"/>
      <point x="703" y="-240" type="line"/>
      <point x="651" y="-210" type="line"/>
      <point x="651" y="-173" type="line"/>
      <point x="814" y="0" type="line"/>
      <point x="697" y="44" type="line"/>
    </contour>
  </outline>
</glyph>
<glyph name="V.alt3" format="2">
  <advance width="1240"/>
  <outline>
    <contour>
      <point x="417" y="0" type="line"/>
      <point x="823" y="0" type="line"/>
      <point x="1108" y="707" type="line"/>
      <point x="1108" y="1460" type="line"/>
      <point x="781" y="1460" type="line"/>
      <point x="781" y="821" type="line"/>
      <point x="587" y="199" type="line"/>
      <point x="653" y="199" type="line"/>
      <point x="459" y="821" type="line"/>
      <point x="459" y="1460" type="line"/>
      <point x="132" y="1460" type="line"/>
      <point x="132" y="707" type="line"/>
    </contour>
  </outline>
</glyph>
<glyph name="W.alt2" format="2">
  <advance width="1240"/>
  <outline>
    <contour>
      <point x="271" y="0" type="line"/>
      <point x="499" y="0" type="line"/>
      <point x="649" y="578" type="line"/>
      <point x="592" y="578" type="line"/>
      <point x="733" y="0" type="line"/>
      <point x="969" y="0" type="line"/>
      <point x="1148" y="687" type="line"/>
      <point x="1148" y="1460" type="line"/>
      <point x="878" y="1460" type="line"/>
      <point x="878" y="711" type="line"/>
      <point x="807" y="306" type="line"/>
      <point x="824" y="306" type="line"/>
      <point x="729" y="771" type="line"/>
      <point x="729" y="1032" type="line"/>
      <point x="512" y="1032" type="line"/>
      <point x="512" y="771" type="line"/>
      <point x="417" y="306" type="line"/>
      <point x="434" y="306" type="line"/>
      <point x="363" y="711" type="line"/>
      <point x="363" y="1460" type="line"/>
      <point x="92" y="1460" type="line"/>
      <point x="92" y="687" type="line"/>
    </contour>
  </outline>
</glyph>
<glyph name="X.alt3" format="2">
  <advance width="1240"/>
  <outline>
    <contour>
      <point x="793" y="0" type="line"/>
      <point x="1128" y="0" type="line"/>
      <point x="1128" y="361" type="line"/>
      <point x="447" y="1193" type="line"/>
      <point x="447" y="1460" type="line"/>
      <point x="112" y="1460" type="line"/>
      <point x="112" y="1099" type="line"/>
      <point x="793" y="267" type="line"/>
    </contour>
    <contour>
      <point x="112" y="0" type="line"/>
      <point x="417" y="0" type="line"/>
      <point x="417" y="267" type="line"/>
      <point x="645" y="622" type="line"/>
      <point x="475" y="858" type="line"/>
      <point x="112" y="351" type="line"/>
    </contour>
    <contour>
      <point x="765" y="602" type="line"/>
      <point x="1128" y="1109" type="line"/>
      <point x="1128" y="1460" type="line"/>
      <point x="823" y="1460" type="line"/>
      <point x="823" y="1193" type="line"/>
      <point x="595" y="838" type="line"/>
    </contour>
  </outline>
</glyph>
